<svg width="164.615967" height="140.764648" viewBox="0 0 164.616 140.765" fill="none" xmlns="http://www.w3.org/2000/svg" xmlns:xlink="http://www.w3.org/1999/xlink">
	<desc>
			Created with Pixso.
	</desc>
	<defs>
		<clipPath id="clip104_29">
			<rect id="1 4" width="164.615967" height="140.764633" fill="white" fill-opacity="0"/>
		</clipPath>
	</defs>
	<rect id="1 4" width="164.615967" height="140.764633" fill="#FFFFFF" fill-opacity="0"/>
	<g clip-path="url(#clip104_29)">
		<path id="Vector" d="M151.33 74.05L82.76 139.8L14.19 74.05C-3.49 57.1 -3.49 29.63 14.19 12.68C31.85 -4.26 60.51 -4.26 78.19 12.68C79.89 14.32 81.38 16.08 82.76 17.89C84.14 16.08 85.62 14.32 87.33 12.68C105.01 -4.26 133.65 -4.26 151.33 12.68C169 29.63 169 57.1 151.33 74.05ZM142.19 21.45C129.57 9.35 109.1 9.35 96.47 21.45C93.45 24.34 82.76 34.6 82.76 34.6C82.76 34.6 72.06 24.34 69.04 21.45C56.42 9.35 35.96 9.35 23.32 21.45C10.7 33.56 10.7 53.18 23.32 65.29C26.59 68.41 82.76 122.27 82.76 122.27C82.76 122.27 138.93 68.41 142.19 65.29C154.81 53.18 154.81 33.56 142.19 21.45ZM126.53 55.08C129 52.71 130.53 49.44 130.53 45.82C130.53 38.58 124.41 32.72 116.87 32.72L116.87 26.17C128.18 26.17 137.36 34.97 137.36 45.82C137.36 51.24 135.06 56.15 131.35 59.71L126.53 55.08Z" fill="#130E27" fill-opacity="1.000000" fill-rule="evenodd"/>
	</g>
</svg>
