<svg width="138.358215" height="137.000000" viewBox="0 0 138.358 137" fill="none" xmlns="http://www.w3.org/2000/svg" xmlns:xlink="http://www.w3.org/1999/xlink">
	<desc>
			Created with Pixso.
	</desc>
	<defs>
		<clipPath id="clip104_27">
			<rect id="1 3" width="138.358215" height="137.000000" fill="white" fill-opacity="0"/>
		</clipPath>
	</defs>
	<rect id="1 3" width="138.358215" height="137.000000" fill="#FFFFFF" fill-opacity="0"/>
	<g clip-path="url(#clip104_27)">
		<path id="Vector" d="M85.46 68.48L96.62 57.44C106.96 61.45 119.15 59.35 127.5 51.08L131.58 47.04C140.58 38.12 140.58 23.67 131.58 14.75L127.5 18.79L111.2 34.93C108.95 37.17 105.3 37.17 103.05 34.93C100.79 32.7 100.79 29.09 103.05 26.86L119.35 10.72L123.43 6.68C114.42 -2.23 99.82 -2.23 90.82 6.68L86.74 10.72C78.39 18.99 76.27 31.06 80.31 41.3L65.09 56.38L10.99 2.82L0 0L2.84 10.89L56.94 64.45L5.23 115.65C0.73 120.11 0.73 127.33 5.23 131.79C9.73 136.25 17.03 136.25 21.53 131.79L69.16 84.63L118.65 133.63C123.16 138.09 130.45 138.09 134.95 133.63C139.46 129.17 139.46 121.95 134.95 117.49L85.46 68.48ZM90.82 14.75L94.9 10.72C100.21 5.45 108.1 4.4 114.53 7.42L98.97 22.82C94.47 27.28 94.47 34.51 98.97 38.97C103.47 43.43 110.77 43.43 115.28 38.97L130.83 23.57C133.88 29.93 132.82 37.74 127.5 43.01L123.43 47.04C114.42 55.96 99.82 55.96 90.82 47.04C81.82 38.12 81.82 23.67 90.82 14.75ZM83.08 46.64C84.13 48.2 85.35 49.69 86.74 51.08C88.14 52.46 89.65 53.66 91.23 54.71L77.31 68.48L69.16 60.41L83.08 46.64ZM17.46 127.75C15.2 129.98 11.56 129.98 9.31 127.75C7.05 125.52 7.05 121.91 9.31 119.68L17.46 111.61L25.61 119.68L17.46 127.75ZM21.53 107.58L61.01 68.48L69.16 76.56L29.68 115.65L21.53 107.58ZM73.82 81.16L81.97 73.09L118.65 109.42L110.5 117.49L73.82 81.16ZM130.88 129.59C128.63 131.82 124.98 131.82 122.73 129.59L114.58 121.52L122.73 113.45L130.88 121.52C133.13 123.75 133.13 127.36 130.88 129.59Z" fill="#130E27" fill-opacity="1.000000" fill-rule="evenodd"/>
	</g>
</svg>
