<svg width="117.150024" height="155.000000" viewBox="0 0 117.15 155" fill="none" xmlns="http://www.w3.org/2000/svg" xmlns:xlink="http://www.w3.org/1999/xlink">
	<desc>
			Created with Pixso.
	</desc>
	<defs>
		<clipPath id="clip104_25">
			<rect id="1 2" width="117.150024" height="155.000000" fill="white" fill-opacity="0"/>
		</clipPath>
	</defs>
	<rect id="1 2" width="117.150024" height="155.000000" fill="#FFFFFF" fill-opacity="0"/>
	<g clip-path="url(#clip104_25)">
		<path id="Vector" d="M113.74 77.5L97.62 109.79C96.26 112.49 93.88 115.08 91.04 115.89C91.05 116.01 91.11 116.12 91.11 116.25L91.11 122.7C91.11 126.27 88.2 129.16 84.6 129.16L84.6 135.62C84.6 139.19 81.69 142.08 78.09 142.08L78.09 148.54C78.09 152.11 75.18 154.1 71.59 154.1L45.55 154.1C41.96 154.1 39.05 152.11 39.05 148.54L39.05 142.08C35.45 142.08 32.54 139.19 32.54 135.62L32.54 129.16C28.94 129.16 26.03 126.27 26.03 122.7L26.03 116.25C26.03 116.13 26.09 116.04 26.09 115.93C23.31 115.2 21.26 112.63 19.52 109.79L3.4 77.5C1.23 71.43 0 64.93 0 58.12C0 26.02 26.22 0 58.57 0C90.92 0 117.15 26.02 117.15 58.12C117.15 64.93 115.91 71.43 113.74 77.5ZM45.55 148.54L71.59 148.54L71.59 142.08L45.55 142.08L45.55 148.54ZM39.05 135.62L45.55 135.62L71.59 135.62L78.09 135.62L78.09 129.16L39.05 129.16L39.05 135.62ZM32.54 122.7L39.05 122.7L78.09 122.7L84.6 122.7L84.6 116.25L32.54 116.25L32.54 122.7ZM58.57 12.91C33.41 12.91 13.01 33.14 13.01 58.12C13.01 65.06 14.64 71.62 17.45 77.5L30.64 103.33L86.64 103.33L99.69 77.5C102.5 71.62 104.13 65.06 104.13 58.12C104.13 33.14 83.73 12.91 58.57 12.91ZM58.57 25.83L58.57 19.37C80.14 19.37 97.62 36.72 97.62 58.12L91.11 58.12C91.11 40.29 76.54 25.83 58.57 25.83Z" fill="#130E27" fill-opacity="1.000000" fill-rule="evenodd"/>
	</g>
</svg>
