<svg width="151.487122" height="150.000000" viewBox="0 0 151.487 150" fill="none" xmlns="http://www.w3.org/2000/svg" xmlns:xlink="http://www.w3.org/1999/xlink">
	<desc>
			Created with Pixso.
	</desc>
	<defs>
		<clipPath id="clip103_23">
			<rect id="1 1" width="151.487106" height="150.000000" fill="white" fill-opacity="0"/>
		</clipPath>
	</defs>
	<rect id="1 1" width="151.487106" height="150.000000" fill="#FFFFFF" fill-opacity="0"/>
	<g clip-path="url(#clip103_23)">
		<path id="Vector" d="M75.74 150C33.91 150 0 116.42 0 75C0 33.57 33.91 0 75.74 0C117.57 0 151.48 33.57 151.48 75C151.48 116.42 117.57 150 75.74 150ZM82.05 12.81L82.05 18.75C82.05 22.2 79.23 25 75.74 25C72.25 25 69.43 22.2 69.43 18.75L69.43 12.81C39.61 15.74 15.9 39.22 12.94 68.75L18.93 68.75C22.42 68.75 25.24 71.54 25.24 75C25.24 78.45 22.42 81.25 18.93 81.25L12.94 81.25C15.9 110.77 39.61 134.25 69.43 137.18L69.43 131.25C69.43 127.79 72.25 125 75.74 125C79.23 125 82.05 127.79 82.05 131.25L82.05 137.18C111.87 134.25 135.58 110.77 138.54 81.25L132.55 81.25C129.06 81.25 126.23 78.45 126.23 75C126.23 71.54 129.06 68.75 132.55 68.75L138.54 68.75C135.58 39.22 111.87 15.74 82.05 12.81ZM62.35 88.25L35.57 79.41L106.98 44.05L71.28 114.77L62.35 88.25ZM92.87 58.03L52.02 78.26L64.35 82.32L67.34 83.31L68.33 86.28L72.45 98.48L92.87 58.03Z" fill="#130E27" fill-opacity="1.000000" fill-rule="evenodd"/>
	</g>
</svg>
