<svg width="217.843994" height="68.405029" viewBox="0 0 217.844 68.405" fill="none" xmlns="http://www.w3.org/2000/svg" xmlns:xlink="http://www.w3.org/1999/xlink">
	<desc>
			Created with Pixso.
	</desc>
	<defs/>
	<path id="Vector" d="M24.09 14.92L24.09 15.11C23.98 15.11 23.82 15.2 23.61 15.36C23.49 15.36 23.34 15.46 23.17 15.65L23.08 15.65L23.08 15.46C22.89 15.65 22.74 15.74 22.64 15.74L22.73 15.93C21.41 16.88 20.66 17.35 20.5 17.35L20.59 17.54C20.57 17.66 20.42 17.78 20.15 17.88L20.15 17.79L20.21 17.63L20.06 17.63L19.87 17.7C19.95 17.95 20.04 18.07 20.15 18.07L20.21 18.07C20.76 17.72 21.1 17.54 21.22 17.54L21.22 17.63C20.82 18.22 20.37 18.51 19.87 18.51C19.89 18.64 19.95 18.7 20.06 18.7C20.16 18.7 20.45 18.58 20.94 18.33L21.03 18.51L19.61 19.58L19.68 19.77C19.68 19.84 19.45 20.08 18.99 20.5L19.05 20.5L19.43 20.4C19.53 20.47 19.65 20.5 19.77 20.5C19.84 20.38 19.87 20.25 19.87 20.12L20.15 20.12L20.15 20.21L19.96 20.5L19.96 20.56L20.31 20.56L20.31 20.75C19.89 20.83 18.01 22.15 14.67 24.69C12.11 26.93 9.97 29.09 8.25 31.14C5.85 34.08 4.66 36.92 4.66 39.65L4.75 39.99C4.75 40.06 4.72 40.09 4.66 40.09C4.93 41.87 5.22 42.76 5.54 42.76C6.42 42.76 8.07 41.51 10.48 39.02C11.72 37.13 12.34 35.9 12.34 35.33L12.34 32.03L12.88 31.4C12.82 31.07 12.79 30.75 12.78 30.42L12.97 30.32C13.03 30.32 13.07 30.36 13.07 30.42L13.25 30.32L13.6 30.42L14.04 30.17L14.23 30.17C14.94 30.61 15.3 30.87 15.3 30.95C16.04 31.44 16.45 31.76 16.56 31.93L17 31.87C17.23 31.87 17.41 32.31 17.54 33.19L17.44 33.57C17.44 33.93 17.41 34.9 17.35 36.5C17.6 38.34 17.99 40.05 18.51 41.6C18.44 41.65 18.35 41.68 18.26 41.69C18.35 41.95 18.49 42.07 18.7 42.07L18.7 42.32C18.58 42.32 18.51 42.36 18.51 42.42C18.66 42.84 18.84 43.26 19.05 43.68L18.89 43.77C18.66 43.29 18.51 43.05 18.45 43.05L18.36 43.05C18.36 43.17 18.65 43.8 19.24 44.94L19.24 45C19.24 45.42 18.77 45.63 17.82 45.63C17.82 45.76 17.61 45.82 17.19 45.82C16.41 45.65 15.82 45.26 15.4 44.65C15.06 44.28 14.61 43.42 14.04 42.07C11.44 44.57 9.56 45.82 8.4 45.82L7.33 45.82C6.72 45.82 6.01 45.55 5.19 45C2.9 44.16 1.46 43.12 0.88 41.88C0.48 40.79 0.28 39.8 0.28 38.92C0.32 38.92 0.34 38.89 0.34 38.83C0.26 38.83 0.14 38.62 0 38.2C0.12 35.85 0.42 34.53 0.88 34.26L1.16 34.26C1.33 33.93 1.41 33.69 1.41 33.57L1.25 33.63C1.17 33.63 1.08 33.55 0.97 33.38C1.16 33.38 1.43 32.9 1.79 31.93C1.87 31.93 2.05 31.7 2.32 31.24L2.51 31.3C2.62 31.3 3.37 30.32 4.75 28.37L4.75 28.28C4.31 28.8 4.01 29.06 3.84 29.06L3.74 28.91C6.07 25.95 8.68 23.41 11.55 21.29C12.43 20.58 13.36 19.92 14.32 19.33C14.38 19.41 14.41 19.49 14.42 19.58L14.23 19.93L15.05 19.4L15.21 19.4L15.21 19.58L15.3 19.58L15.3 19.4C15.24 19.4 15.21 19.37 15.21 19.33L16.91 18.17C17.45 17.75 18.15 17.39 18.99 17.1L18.99 17L18.89 17C18.49 17.17 18.25 17.25 18.17 17.25L18.17 16.91C18.52 16.91 19.01 16.63 19.62 16.09L19.77 16.09L19.77 16.37L19.68 16.53L19.77 16.53C20.05 16.36 20.26 16.28 20.4 16.28L20.59 16.37C21.58 15.89 22.18 15.65 22.39 15.65C23.14 15.17 23.71 14.92 24.09 14.92ZM20.84 15.74L20.84 15.84C20.84 15.92 20.61 16.07 20.15 16.28L19.87 16.28L19.87 15.99C20.01 15.99 20.34 15.91 20.84 15.74L20.84 15.74ZM20.15 16.62L20.21 16.62C20.34 16.62 20.4 16.57 20.4 16.47L20.31 16.47C20.2 16.47 20.15 16.52 20.15 16.62ZM19.43 16.53L19.33 16.72L19.33 16.81L19.43 16.81C19.43 16.69 19.49 16.62 19.62 16.62L19.62 16.53L19.43 16.53ZM17.28 17.44L17.54 17.44L17.54 17.63L17.28 17.63L17.28 17.44ZM16.81 17.7C16.94 17.71 17 17.78 17 17.88C16.43 18.26 15.98 18.62 15.65 18.95C15.56 18.95 15.24 19.13 14.67 19.49L14.58 19.49L14.58 19.33C15.04 18.98 15.34 18.8 15.49 18.8C15.49 18.59 15.93 18.22 16.81 17.7ZM19.33 18.42L19.24 18.42L18.98 18.23L18.98 18.61C18.9 18.66 18.8 18.69 18.7 18.7L18.7 18.8L18.89 18.8C19.52 18.42 19.88 18.23 19.96 18.23L19.96 18.07C19.88 18.07 19.67 18.19 19.33 18.42ZM16.37 20.31L16.46 20.31C16.59 20.31 16.65 20.25 16.65 20.12L16.65 20.03C16.57 20.03 16.48 20.12 16.37 20.31ZM15.49 20.75L15.49 20.84C15.58 20.85 15.67 20.89 15.74 20.94L15.74 20.75L15.49 20.75ZM14.76 21.03L14.76 21.1L14.95 21.1L14.95 21.29L14.76 21.29L14.76 21.38L14.86 21.38C14.96 21.32 15.08 21.28 15.21 21.29C15.21 21.2 15.09 21.12 14.86 21.03L14.76 21.03ZM11.9 21.57C11.9 21.74 11.78 21.82 11.55 21.82L11.55 21.92L11.71 21.92L11.99 21.57L11.9 21.57ZM14.32 21.63L14.23 21.82L14.23 21.92L14.32 21.92C14.32 21.79 14.39 21.73 14.51 21.73L14.51 21.63L14.32 21.63L14.32 21.63ZM14.76 23.33C14.79 23.46 14.85 23.52 14.95 23.52C15.04 23.29 15.12 23.18 15.21 23.18L15.3 23.18C15.45 23.28 15.56 23.33 15.65 23.33C15.92 23.23 16.08 23.11 16.12 22.99C15.99 22.99 15.93 22.92 15.93 22.8L15.93 22.73C16.08 22.73 16.29 22.61 16.56 22.36L16.65 22.36L16.65 22.45L16.56 22.64L16.91 22.64C16.92 22.54 16.95 22.44 17 22.36L16.75 22.36L16.75 22.2C16.79 22.01 17.02 21.88 17.44 21.82C17.44 21.7 17.39 21.63 17.28 21.63C16.86 21.65 16.02 22.22 14.76 23.33ZM13.25 22.45L13.25 22.55C13.27 22.67 13.33 22.73 13.41 22.73L13.51 22.54L13.51 22.45L13.25 22.45ZM16.21 22.89L16.21 22.99L16.28 22.99C16.4 22.99 16.46 22.92 16.46 22.8L16.46 22.73L16.37 22.73C16.27 22.73 16.21 22.79 16.21 22.89ZM11.71 23.43C11.71 23.49 11.69 23.58 11.65 23.71C11.73 23.71 11.85 23.77 11.99 23.9L12.18 23.62L12.18 23.52L11.99 23.62L11.71 23.43L11.71 23.43ZM11.27 24.25L11.36 24.25C11.59 24.16 11.71 24.07 11.71 23.96L11.55 23.96C11.47 23.96 11.37 24.06 11.27 24.25L11.27 24.25ZM10.39 24.78L10.39 24.97L10.64 24.97L10.64 24.78L10.39 24.78ZM10.01 25.13L10.01 25.41C10.14 25.41 10.2 25.35 10.2 25.22L10.2 25.13L10.01 25.13ZM9.66 25.41C9.65 25.5 9.62 25.59 9.57 25.66L9.66 25.66L9.85 25.41L9.66 25.41ZM2.86 30.42L2.95 30.61L2.77 30.7L2.67 30.7L2.67 30.61C2.69 30.48 2.76 30.42 2.86 30.42L2.86 30.42ZM1.6 32.75L1.6 32.84C1.69 32.84 1.78 32.75 1.88 32.56L1.79 32.56C1.66 32.58 1.6 32.64 1.6 32.75L1.6 32.75ZM45.63 17.1L45.72 17.29L45.44 17.98L45.44 18.07L45.54 18.07L45.54 17.88L45.72 17.88L45.72 18.07L44.65 20.09L44.65 20.18L44.75 20.18C45.36 19.03 45.81 18.33 46.1 18.07L46.1 18.26C45.22 19.78 44.38 21.33 43.58 22.89L43.58 22.99L43.68 22.99C43.72 22.73 43.82 22.61 43.99 22.61L44.09 22.61L44.09 22.8L43.87 23.08L43.87 23.27L44.28 22.8L44.46 22.89C44.46 22.81 44.56 22.71 44.75 22.61L44.75 22.7C44.75 22.89 44.65 23.14 44.46 23.46C44.53 23.59 44.56 23.73 44.56 23.87L44.46 23.87L44.28 23.77L44.18 23.96C44.37 23.96 44.46 24.03 44.46 24.15C44.11 24.3 43.91 24.49 43.87 24.72C44.01 24.74 44.09 24.8 44.09 24.91L44.09 25C44.09 25.15 43.7 25.57 42.92 26.26L42.92 26.36L43.11 26.26C43.24 26.28 43.3 26.35 43.3 26.45C43.19 26.45 42.97 26.87 42.64 27.71C42.37 28.03 42.13 28.64 41.95 29.57L41.57 30.23L41.66 30.23L41.85 30.14C41.85 30.2 41.88 30.23 41.95 30.23L40.78 32.66C40.51 33.03 40.32 33.22 40.21 33.22L40.31 33.41C40.31 33.75 40.05 34.14 39.52 34.58L39.61 34.77L38.57 36.81L38.29 36.81L38.39 37.28C37.59 37.81 37.17 38.35 37.13 38.92C37.13 39.13 36.44 40.13 35.08 41.91C35.14 41.91 35.34 41.79 35.68 41.54L35.68 41.63C34.85 42.58 33.95 43.45 32.97 44.24C32.97 44.56 32.52 44.88 31.62 45.22C30.94 45.66 30.3 45.88 29.69 45.88C28.39 45.88 26.56 45.14 24.18 43.65C22.5 41.84 21.66 39.69 21.66 37.19C21.66 34.5 22.3 31.45 23.58 28.03C24.32 26.72 24.83 26.07 25.13 26.07C25.4 26.07 25.54 25.98 25.54 25.79L27.17 26.26C27.68 26.72 27.93 27.21 27.93 27.71C27.49 28.4 27.27 28.89 27.27 29.16L27.36 29.16C27.24 31.24 27.11 32.62 26.99 33.32C27.13 33.32 27.26 33.35 27.36 33.41C27.09 34.75 26.9 35.5 26.8 35.65L26.89 35.84L26.89 36.4L26.67 36.4L26.67 35.55L26.58 35.55C26.58 35.78 26.51 36.23 26.39 36.91L26.58 36.91L26.58 36.72L26.8 36.72L26.8 36.81C26.52 37 26.39 37.16 26.39 37.28L26.39 37.57L26.48 37.57L26.48 37.19L26.67 37.19L26.67 38.64C26.67 38.79 26.71 38.91 26.8 39.02L26.67 39.21C26.75 39.33 26.8 39.44 26.8 39.52C26.71 39.52 26.67 39.55 26.67 39.62C26.78 39.62 26.98 40.29 27.27 41.63C27.52 41.99 27.65 42.28 27.65 42.51L28.02 42.51C29.28 41.78 30.81 40.22 32.59 37.85L35.08 33.73L40.59 23.36C42.67 19.58 43.9 17.65 44.28 17.57C44.28 17.63 44.31 17.66 44.37 17.66L44.28 17.88L44.28 17.98L44.84 17.47C44.96 17.54 45.09 17.57 45.22 17.57C45.22 17.38 45.36 17.22 45.63 17.1ZM43.77 18.45L43.77 18.73L43.87 18.73C43.97 18.73 44.08 18.64 44.18 18.45L44.18 18.17L44.09 18.17C43.98 18.17 43.88 18.26 43.77 18.45ZM43.49 19.02L43.49 19.33C43.59 19.33 43.69 19.23 43.77 19.02L43.77 18.92C43.68 18.97 43.59 19.01 43.49 19.02ZM42.54 25.41C42.55 25.55 42.5 25.68 42.42 25.79L42.54 25.79L42.64 25.6L42.64 25.41L42.54 25.41ZM27.55 31.68L27.74 31.68L27.74 31.77L27.46 33.13L27.27 33.13C27.27 32.92 27.36 32.43 27.55 31.68ZM26.8 34.39L26.67 34.58L26.67 35.05L26.8 35.05C26.8 34.88 26.86 34.69 26.98 34.48L26.8 34.39ZM39.52 35.46L39.61 35.46C39.42 35.84 39.33 36.06 39.33 36.12L39.14 36.12L39.14 35.93C39.31 35.62 39.43 35.46 39.52 35.46ZM38.86 36.4L39.05 36.4L39.05 36.62C39.05 36.75 38.98 36.81 38.86 36.81L38.76 36.81C38.83 36.68 38.86 36.54 38.86 36.4ZM34.61 42.42L34.7 42.42C34.83 42.42 34.89 42.34 34.89 42.2L34.89 42.1C34.81 42.1 34.71 42.21 34.61 42.42L34.61 42.42ZM34.32 42.61C34.32 42.73 34.26 42.8 34.13 42.8L34.13 42.89L34.32 42.89L34.51 42.61L34.32 42.61ZM56.18 0C56.24 0.1 56.28 0.22 56.27 0.34L56.43 0.25L56.43 0.34C56.33 0.54 56.28 0.75 56.27 0.97L56.34 0.97L56.78 0.69L56.87 0.88C56.05 2.98 55.64 4.12 55.64 4.31L55.55 4.31L55.64 4.47L54.76 6.51L55.01 6.51C55.08 6.09 55.2 5.88 55.39 5.88C55.39 5.97 55.48 6.06 55.64 6.17C55.69 6.08 55.73 5.98 55.74 5.88L55.83 5.88C55.94 5.91 55.99 5.97 55.99 6.07C55.74 6.54 55.56 6.77 55.46 6.77L55.46 6.86C55.58 7.01 55.64 7.12 55.64 7.21L55.74 7.21C55.82 7.21 55.94 7.03 56.09 6.67L56.09 6.23C56.17 6.23 56.29 6.08 56.43 5.79L56.34 5.63L57.06 3.87C57.06 3.76 56.95 3.65 56.72 3.52C56.61 3.52 56.48 3.64 56.34 3.87C56.42 3.87 56.57 4.02 56.78 4.31C56.38 4.86 56.12 5.23 55.99 5.44L55.83 5.44L55.83 5.29L55.64 5.29C55.64 5.62 55.58 5.79 55.46 5.79C55.35 5.79 55.3 5.74 55.3 5.63C55.51 5.3 55.69 4.86 55.83 4.31C56.36 2.97 56.62 2.26 56.62 2.2L56.87 2.01L56.97 2.01C56.91 2.22 56.88 2.43 56.87 2.64C57.06 2.64 57.16 2.76 57.16 2.99L56.97 3.08L57.06 3.58L57.22 3.58C57.24 3.29 57.45 2.94 57.85 2.55C57.85 2.61 57.88 2.64 57.94 2.64C57.91 2.75 57.85 2.85 57.77 2.94C57.7 3.02 57.61 3.09 57.5 3.14C57.5 3.21 57.53 3.24 57.6 3.24C57.44 4.05 57.23 4.85 56.97 5.63L57.16 5.73C57.37 4.89 57.6 4.38 57.85 4.21C57.85 4.28 57.88 4.31 57.94 4.31C57.88 4.96 57.79 5.37 57.66 5.54L57.94 5.54C57.94 5.6 57.91 5.63 57.85 5.63L57.94 6.07C56.98 8.85 56.07 11.64 55.2 14.45C55.67 14.45 55.9 14.47 55.9 14.51L56.09 14.45C57.28 14.45 58.4 14.39 59.42 14.26C59.51 14.31 59.61 14.34 59.71 14.36C59.79 14.25 60.49 14.16 61.82 14.07C61.89 14.13 61.98 14.16 62.07 14.17C62.18 14.1 62.31 14.07 62.45 14.07C62.45 14.2 62.5 14.26 62.6 14.26C62.62 14.14 62.69 14.07 62.79 14.07L63.58 14.07L64.02 14.01C64.02 14.05 64.05 14.07 64.12 14.07C64.12 13.99 64.64 13.87 65.69 13.73L65.69 13.82L67.9 13.48C68 13.54 68.12 13.57 68.24 13.57C68.26 13.44 68.33 13.38 68.43 13.38L68.53 13.38C68.65 13.38 68.77 13.41 68.87 13.48C68.98 13.41 69.1 13.38 69.22 13.38L69.41 13.48C69.41 13.39 69.49 13.3 69.66 13.19C69.73 13.24 69.82 13.28 69.91 13.29C69.93 13.18 70 13.13 70.1 13.13L70.35 13.13L70.29 13.29L70.54 13.29C70.54 13.12 71.16 12.94 72.4 12.75C72.5 12.81 72.62 12.85 72.75 12.85C72.93 12.85 73.2 12.73 73.53 12.5C73.53 12.62 73.62 12.69 73.78 12.69C73.95 12.69 74.16 12.59 74.41 12.4C74.54 12.4 74.66 12.43 74.76 12.5C74.85 12.45 74.94 12.42 75.04 12.4L75.2 12.5C75.71 12.23 76.29 12.03 76.97 11.9C76.97 11.84 77.03 11.81 77.16 11.81C77.18 11.91 77.23 11.96 77.31 11.96C77.5 11.96 77.89 11.85 78.48 11.62C78.58 11.68 78.7 11.71 78.82 11.71L79.01 11.71L79.01 11.62C78.96 11.54 78.93 11.45 78.92 11.36L79.01 11.36C79.13 11.36 79.25 11.4 79.36 11.46L82.45 10.64L82.54 10.64L82.45 10.48L82.45 10.39C82.55 10.41 82.6 10.47 82.6 10.58L82.79 10.48L82.98 10.58C84.27 10.15 85.59 9.8 86.92 9.51L87.2 9.51L87.2 9.25L87.55 9.25C88.14 9.15 88.43 9.02 88.43 8.88L88.68 9.07C89 8.9 89.47 8.72 90.1 8.53L90.1 8.43L90.54 8.53C91.53 8.17 92.29 7.97 92.84 7.93C92.84 7.87 92.9 7.84 93.03 7.84L93.19 7.93L94.07 7.55L94.26 7.55L94.51 7.74L94.6 7.74L94.51 7.55C94.82 7.45 95.12 7.3 95.39 7.11L95.64 7.11C95.64 7.03 95.74 6.94 95.93 6.86C95.93 6.94 96.01 7.03 96.18 7.11C96.18 7.01 96.27 6.95 96.46 6.95L96.9 7.05C96.9 6.92 96.95 6.86 97.06 6.86C97.18 6.92 97.28 6.95 97.34 6.95L97.78 6.61L97.85 6.61L97.78 6.77L97.78 6.86L97.85 6.86C98.83 6.55 99.48 6.28 99.8 6.07L100.24 6.17C100.26 6.04 100.32 5.98 100.43 5.98L100.59 6.07L100.68 6.07L100.68 5.98L100.49 5.98L100.49 5.79L101.12 5.88L101.22 5.88L101.12 5.73L101.12 5.63L101.91 5.35L101.91 5.44L101.81 5.63L102.26 5.63C102.44 5.46 103.18 5.26 104.46 5C104.48 4.92 105.25 4.69 106.76 4.31C106.78 4.18 106.84 4.12 106.95 4.12L107.11 4.21C107.4 4.09 108.52 3.8 110.48 3.33C110.48 3.27 110.5 3.24 110.54 3.24L111.26 3.24L111.7 3.33L111.7 2.99C111.79 2.99 112.13 2.89 112.74 2.7L113.09 2.7L113.09 2.8L113.03 2.99L113.09 2.99C113.82 2.76 114.3 2.64 114.51 2.64L114.51 2.7C114.44 2.87 113.36 3.2 111.26 3.68L104.9 5.44L104.9 5.63L105 5.63C105.54 5.44 105.87 5.35 105.97 5.35L105.97 5.44L106.32 5.29C106.4 5.32 106.48 5.34 106.57 5.35C106.86 5.2 107.01 5.09 107.01 5L107.45 5.1C107.75 4.87 107.96 4.75 108.08 4.75L108.52 4.84C108.54 4.72 108.61 4.66 108.71 4.66L108.87 4.75C108.87 4.56 109.26 4.42 110.03 4.31L110.19 4.31L110.19 4.56L110.48 4.56L110.38 4.12L110.92 4.12L111.42 3.77L111.51 3.77L111.7 3.87C111.72 3.74 111.78 3.68 111.86 3.68L111.96 3.68C111.96 3.83 112.02 3.97 112.14 4.12L111.86 4.47C111.92 4.47 111.96 4.5 111.96 4.56L111.86 4.56C111.76 4.56 111.7 4.48 111.7 4.31C111.58 4.33 111.51 4.38 111.51 4.47C111.6 4.52 111.7 4.55 111.8 4.56C111.8 4.77 111.38 4.89 110.54 4.91C110.59 4.83 110.62 4.75 110.63 4.66L110.54 4.66C110.45 4.72 110.29 4.75 110.03 4.75C110.03 4.86 110.12 4.91 110.29 4.91L110.29 5.1L109.85 5.19L109.75 5C109.75 4.94 109.78 4.91 109.85 4.91L109.75 4.75L109.75 4.66L110.03 4.66L110.03 4.56C109.93 4.55 109.84 4.52 109.75 4.47C109.58 4.6 109.37 4.66 109.15 4.66L109.15 4.84C109.28 4.84 109.45 4.93 109.66 5.1L109.75 5.1L109.59 5.35C109.63 5.44 109.65 5.54 109.66 5.63C108.98 5.8 108.54 5.95 108.33 6.07C108.23 6.07 108.18 6.01 108.18 5.88C109.06 5.61 109.5 5.43 109.5 5.35L109.15 5.35L109.15 5.19L109.31 5.19L109.31 5L109.22 5C108.84 5.42 108.43 5.63 107.99 5.63C107.94 5.55 107.9 5.45 107.89 5.35L107.83 5.35L107.55 5.54L107.39 5.44L107.29 5.63L107.55 5.63L107.55 5.79C106.5 6.1 105.97 6.31 105.97 6.42L106.07 6.42L106.66 6.32L106.66 6.42C106.66 6.53 106.19 6.7 105.25 6.95C105.25 7.02 105.19 7.05 105.09 7.05C104.9 7.05 104.81 6.92 104.81 6.67L104.65 6.67C104.4 7.09 104.16 7.3 103.92 7.3L103.92 7.21C103.69 7.33 103.49 7.4 103.33 7.4L103.33 7.21C103.77 7.1 104.03 7.05 104.11 7.05L104.02 6.86C100.79 7.74 99.15 8.25 99.11 8.37C100.42 8.09 101.71 7.74 102.98 7.3C102.98 7.37 103.24 7.54 103.77 7.84C103.56 7.94 103.2 8.06 102.7 8.18L102.7 8.09L102.54 8.18L102.19 8.18C102.28 7.97 102.65 7.86 103.33 7.84C103.33 7.71 103.26 7.65 103.14 7.65L102.7 7.65C102.15 7.84 101.8 7.93 101.66 7.93L101.47 7.93C101.47 8.12 101 8.29 100.05 8.44C100.05 8.56 99.88 8.62 99.55 8.62L99.61 8.81C99.88 8.69 100.27 8.62 100.78 8.62L100.93 8.62C100.93 8.39 101.11 8.28 101.47 8.28L101.91 8.28L101.91 8.44L101.75 8.44C101.56 8.44 101.21 8.56 100.68 8.81C100.22 8.81 99.48 9.04 98.48 9.51C97.89 9.51 97.59 9.59 97.59 9.76C97.51 9.72 97.43 9.7 97.34 9.69L96.96 9.85C96.96 9.75 96.91 9.69 96.81 9.69C96.81 9.91 96.48 10.05 95.83 10.14L95.64 10.04L95.58 10.04L95.58 10.14L95.74 10.14C95.74 10.24 95.68 10.29 95.58 10.29L95.14 10.2C95.12 10.28 94.82 10.46 94.26 10.74C94.26 10.67 94.22 10.64 94.16 10.64C94.11 10.73 94.08 10.82 94.07 10.92L93.97 10.92C93.97 10.8 93.94 10.73 93.88 10.73L93.72 10.83L93.53 10.74C93.47 10.74 93.32 10.88 93.09 11.18C93.09 11.07 93.04 11.02 92.93 11.02L92.65 11.02C92.42 11.19 91.89 11.35 91.08 11.52C91.01 11.29 90.9 11.18 90.73 11.18C90.64 11.23 90.54 11.26 90.45 11.27L90.45 11.37C90.7 11.37 90.82 11.42 90.82 11.52C90.47 11.67 90.29 11.8 90.29 11.9L90.38 11.9L90.29 12.06L90.29 12.15C92.39 11.63 94.06 11.12 95.3 10.64C95.36 10.64 95.39 10.67 95.39 10.74C95.85 10.5 96.18 10.39 96.37 10.39L96.52 10.48C96.52 10.36 97.53 10.03 99.55 9.51C106.43 7.51 110.42 6.4 111.51 6.17L111.51 6.32L101.31 9.26C100.47 9.48 100 9.65 99.89 9.76C99.62 9.76 98.18 10.15 95.58 10.92C95.39 11.03 94.27 11.35 92.21 11.9C92.12 11.9 91.83 12.04 91.33 12.31C91.25 12.27 91.16 12.25 91.08 12.25C91.02 12.32 90.99 12.41 90.98 12.5L90.54 12.4L90.45 12.4L90.45 12.5L90.63 12.5L90.63 12.69C89.16 12.96 88.35 13.22 88.18 13.48C88.09 13.42 87.99 13.39 87.89 13.38C87.66 13.59 86.67 13.92 84.9 14.36C84.9 14.42 84.87 14.45 84.81 14.45C84.73 14.4 84.65 14.37 84.56 14.36L84.46 14.51L84.02 14.45C83.83 14.45 83.63 14.57 83.42 14.8C83.33 14.75 83.24 14.71 83.14 14.7L83.04 14.89L82.89 14.8L82.7 14.8C82.7 14.97 82.65 15.05 82.54 15.05L82.35 15.05L81.91 14.96C81.91 15.08 81.76 15.21 81.47 15.33L80.93 15.24C80.16 15.76 76.76 16.58 70.73 17.7C69.26 17.99 67.35 18.28 65 18.58L65 18.48C61.58 19.03 57.99 19.3 54.23 19.3L54.07 19.3C53.86 19.51 53.27 21.59 52.31 25.54C49.47 34.46 47.2 40.69 45.5 44.21C45.36 44.74 44.98 45.24 44.37 45.73L44.18 45.73C43.59 45.73 43.3 45.66 43.3 45.54L43.14 45.63L43.05 45.63L41.47 45.03C41.37 45.04 41.28 45.06 41.19 45.1C40.77 45.1 40.36 44.8 39.96 44.21C41.37 41.25 42.4 38.85 43.05 37L44.62 32.84C44.62 32.7 44.95 31.79 45.6 30.14C46.42 27.68 47.27 24.71 48.15 21.22C48.25 21.22 48.49 20.55 48.87 19.21C46.04 18.72 44.16 18.14 43.24 17.44C42.94 17.44 42.14 16.86 40.84 15.68L40.84 15.4L41.03 15.4L41.03 15.24C40.74 14.8 40.56 14.24 40.5 13.57C40.43 13.57 40.4 13.54 40.4 13.48L40.5 13.29C40.43 13.18 40.4 13.06 40.4 12.94L40.5 12.94L40.4 12.75L40.4 12.69C40.46 11.81 40.64 11.36 40.94 11.36L45.06 13.29L47.71 14.01L47.9 13.92C48.23 14.02 48.97 14.17 50.1 14.36C50.4 13.6 50.69 12.66 50.98 11.52C51.37 9.94 51.87 8.38 52.46 6.86C52.55 6.4 52.69 6.17 52.9 6.17C52.9 6.1 52.88 6.07 52.84 6.07C52.84 5.51 53.07 5 53.53 4.56L53.44 4.4C53.84 4.11 54.1 3.96 54.23 3.96C54.23 3.77 54.21 3.68 54.16 3.68C54.16 3.55 54.25 3.21 54.42 2.64L54.86 2.64C55.23 1.44 55.68 0.56 56.18 0ZM56.97 1.47L57.16 1.47L57.16 1.76L56.78 1.76L56.78 1.66C56.8 1.54 56.86 1.47 56.97 1.47L56.97 1.47ZM115.67 1.92L115.67 2.11C115.25 2.21 115.01 2.26 114.95 2.26L114.85 2.1C115.11 1.98 115.39 1.92 115.67 1.92ZM116.11 2.2L116.36 2.2L116.36 2.36L115.92 2.36C115.94 2.25 116.01 2.2 116.11 2.2ZM115.83 2.36C115.83 2.5 115.48 2.62 114.79 2.7L114.7 2.55C115.28 2.42 115.66 2.36 115.83 2.36ZM117.06 2.45L117.25 2.45C117.25 2.6 116.98 2.68 116.46 2.7L116.46 2.55L117.06 2.45ZM111.96 3.14L111.96 3.24L112.05 3.24C112.51 3.18 112.74 3.09 112.74 2.99L112.65 2.99C112.61 2.99 112.38 3.04 111.96 3.14ZM115.39 2.89L115.39 3.08L115.23 2.99C115.23 3.09 115.17 3.14 115.04 3.14L114.95 3.14C114.84 3.14 114.79 3.09 114.79 2.99L115.39 2.89ZM114.79 3.08L114.6 3.33C114.65 3.41 114.69 3.49 114.7 3.58L114.6 3.58L114.35 3.43L114.07 3.43L114.16 3.58L114.16 3.68L113.97 3.68C113.89 3.68 113.8 3.6 113.72 3.43C113.85 3.3 114.2 3.19 114.79 3.08ZM113.47 3.33L113.62 3.77L113.37 3.96L113.28 3.96C113.15 3.96 113.09 3.9 113.09 3.77L113.47 3.77L113.47 3.68L113.09 3.68C113.09 3.81 113.04 3.87 112.93 3.87C112.81 3.87 112.74 3.81 112.74 3.68C112.74 3.57 112.98 3.46 113.47 3.33ZM112.14 3.68L112.59 3.68C112.59 3.91 112.64 4.03 112.74 4.03L113.47 4.03L113.47 4.12C113.47 4.25 113.19 4.34 112.65 4.4L112.65 4.31L112.74 4.12C112.43 4.12 112.23 4.01 112.14 3.77L112.14 3.68ZM111.7 3.96L111.61 4.12L111.61 4.21C111.71 4.15 111.83 4.12 111.96 4.12L111.96 4.03C111.87 4.02 111.78 4 111.7 3.96ZM56.27 4.03L56.18 4.47C56.26 4.47 56.38 4.35 56.53 4.12L56.34 4.03L56.27 4.03ZM110.73 4.31L110.73 4.47C110.85 4.47 110.92 4.53 110.92 4.66L111.17 4.66C111.29 4.66 111.36 4.59 111.36 4.47C111.23 4.47 111.17 4.42 111.17 4.31L111.42 4.31L111.42 4.12C111.25 4.25 111.02 4.31 110.73 4.31ZM112.59 4.56L112.74 4.56L112.74 4.75L112.4 4.75C112.42 4.63 112.48 4.56 112.59 4.56ZM55.99 4.75C55.99 4.83 55.94 4.95 55.83 5.1L55.83 5.19C55.92 5.19 56.03 5.08 56.18 4.84L55.99 4.75ZM106.76 5.44C106.82 5.44 106.91 5.47 107.01 5.54L107.11 5.54L107.11 5.44C107 5.44 106.95 5.39 106.95 5.29C106.82 5.31 106.76 5.36 106.76 5.44ZM102.26 5.29L102.35 5.29L102.35 5.35C102.35 5.47 102.3 5.54 102.19 5.54L102.1 5.35L102.26 5.29ZM104.37 5.63C104.43 5.74 104.46 5.86 104.46 5.98L104.55 5.98C104.55 5.87 104.64 5.73 104.81 5.54L104.65 5.54C104.56 5.59 104.47 5.62 104.37 5.63ZM106.41 5.54L106.51 5.73C106.58 5.67 106.67 5.64 106.76 5.63L106.76 5.54L106.41 5.54ZM106.95 5.79L107.01 5.79C107.14 5.79 107.2 5.74 107.2 5.63L107.11 5.63C107 5.65 106.95 5.71 106.95 5.79ZM110.82 5.54L111.07 5.54L111.07 5.73L110.82 5.73L110.82 5.54ZM56.62 6.67C56.79 6.67 56.94 6.38 57.06 5.79L56.97 5.79C56.8 5.79 56.68 6.08 56.62 6.67ZM103.04 6.17L104.11 5.88L104.11 5.79L104.02 5.79C103.37 5.87 103.04 6 103.04 6.17ZM105.97 6.07L106.13 6.07C106.22 6.02 106.31 5.99 106.41 5.98L106.41 5.88L106.13 5.88C106.02 5.91 105.97 5.97 105.97 6.07ZM110.19 5.79L110.29 5.98L110.03 6.17L109.4 6.17C109.4 6.06 109.67 5.94 110.19 5.79ZM107.64 5.98L107.99 5.98C107.99 6.1 107.93 6.17 107.83 6.17L107.64 6.17L107.64 5.98ZM102.26 6.23L102.26 6.42L102.35 6.42L102.54 6.32C102.64 6.39 102.76 6.42 102.89 6.42L102.98 6.42C102.98 6.34 102.86 6.25 102.63 6.17C102.63 6.21 102.6 6.23 102.54 6.23L102.54 6.17C102.45 6.2 102.35 6.22 102.26 6.23ZM108.62 6.17L108.71 6.17C108.82 6.17 108.87 6.22 108.87 6.32L108.87 6.42L108.62 6.42L108.62 6.17ZM96.81 7.84L96.81 7.93L97.06 7.93C97.27 7.81 97.66 7.68 98.22 7.55C98.22 7.64 98.31 7.73 98.48 7.84L98.57 7.84C98.44 7.69 98.38 7.6 98.38 7.55C98.57 7.45 98.75 7.4 98.92 7.4L99.36 7.49L99.26 7.3L102 6.51L102 6.32L96.81 7.84L96.81 7.84ZM107.74 6.42L108.08 6.42C108.08 6.55 108.02 6.61 107.89 6.61L107.74 6.61L107.74 6.42ZM102.98 6.61L102.98 6.77C103.17 6.77 103.32 6.8 103.42 6.86L103.42 6.67L102.98 6.61ZM52.56 7.05L52.56 7.49L52.65 7.49L52.75 7.05L52.56 7.05ZM101.91 7.05C101.93 7.16 101.99 7.21 102.1 7.21L102.19 7.21C102.19 7.1 102.13 7.05 102 7.05L101.91 7.05ZM96.27 7.11L96.27 7.21L96.62 7.21L96.62 7.11L96.27 7.11ZM105.34 7.11L105.63 7.11C105.63 7.24 105.56 7.3 105.44 7.3L105.34 7.3L105.34 7.11ZM55.55 7.49L55.55 7.65C55.64 7.6 55.73 7.57 55.83 7.55L55.83 7.3L55.74 7.3C55.61 7.32 55.55 7.39 55.55 7.49ZM54.51 7.4L54.51 7.65C54.62 7.65 54.67 7.6 54.67 7.49L54.67 7.4L54.51 7.4ZM104.9 7.3L104.9 7.49L104.46 7.55C104.46 7.43 104.61 7.34 104.9 7.3ZM103.86 7.55L104.3 7.55L104.3 7.74C104.09 7.81 103.97 7.84 103.92 7.84L103.86 7.65L103.86 7.55ZM95.3 8.28L95.3 8.37L95.48 8.37C95.59 8.37 95.77 8.31 96.02 8.18C96.09 8.24 96.18 8.27 96.27 8.28L96.37 8.09L96.18 8.09C96.03 8.09 95.74 8.15 95.3 8.28ZM92.49 8.18L92.49 8.28L92.84 8.28L92.84 8.18L92.49 8.18ZM94.26 8.72L94.51 8.72L94.76 8.53C94.85 8.58 94.94 8.61 95.04 8.62L95.14 8.44C95.01 8.44 94.95 8.42 94.95 8.37C94.49 8.5 94.26 8.61 94.26 8.72ZM97.85 8.81L97.94 8.81C98.07 8.81 98.13 8.75 98.13 8.62L98.04 8.62C97.91 8.65 97.85 8.71 97.85 8.81L97.85 8.81ZM99.01 8.81C99.01 8.75 98.98 8.72 98.92 8.72C98.92 8.82 98.3 9.02 97.06 9.32L97.06 9.51L97.34 9.51C97.49 9.4 98.19 9.17 99.45 8.81L99.45 8.62L99.26 8.62L99.01 8.81ZM94.85 9.6L95.14 9.6L95.14 9.41L95.04 9.41C94.92 9.43 94.85 9.5 94.85 9.6ZM95.83 9.6L95.83 9.76L96.71 9.69L96.71 9.6C96.62 9.59 96.53 9.56 96.46 9.51C96.23 9.57 96.02 9.6 95.83 9.6L95.83 9.6ZM54.67 9.69L54.67 9.95L54.95 9.95L54.95 9.69L54.67 9.69ZM93.53 10.29L93.53 10.39L93.72 10.39C93.93 10.39 94.57 10.21 95.64 9.85L95.64 9.76L95.39 9.76C95.05 9.95 94.43 10.13 93.53 10.29ZM93.37 10.04L93.53 10.04C93.62 9.99 93.71 9.96 93.82 9.95L93.82 9.85L93.53 9.85C93.43 9.87 93.37 9.94 93.37 10.04ZM91.33 10.58L91.33 10.74L91.96 10.64L91.86 10.48L91.33 10.58ZM90.89 10.64L90.89 10.74L91.26 10.74L91.17 10.58C91.08 10.61 90.98 10.63 90.89 10.64ZM92.74 10.74L92.93 10.74C93.04 10.74 93.09 10.68 93.09 10.58L92.93 10.58C92.81 10.58 92.74 10.63 92.74 10.74ZM91.7 10.83L91.7 11.02C91.89 11.02 92.04 11.04 92.15 11.08C92.15 10.91 92.31 10.83 92.65 10.83L92.65 10.64L92.59 10.64C92.17 10.77 91.87 10.83 91.7 10.83ZM89.66 11.02L89.66 11.08L90 11.08C90.13 11.08 90.19 11.03 90.19 10.92C90.13 10.92 90.1 10.89 90.1 10.83C89.91 10.96 89.76 11.02 89.66 11.02L89.66 11.02ZM91.08 11.08L91.08 11.18C91.2 11.18 91.32 11.14 91.42 11.08L91.61 11.18L91.7 11.18L91.7 11.08C91.52 11.08 91.42 11 91.42 10.83C91.19 10.91 91.08 11 91.08 11.08ZM88.43 11.81L88.43 11.9L88.52 11.9L89.66 11.62C89.78 11.68 89.88 11.71 89.94 11.71L89.94 11.81C89.94 11.91 89.88 11.96 89.75 11.96C89.63 11.96 89.52 11.94 89.41 11.9L88.87 12.15L88.68 12.06C88.68 12.14 88.53 12.26 88.24 12.4L88.08 12.4L87.89 12.31C87.89 12.43 87.75 12.5 87.45 12.5L87.55 12.69L87.36 12.75C87.36 12.65 87.31 12.59 87.2 12.59C87.11 12.64 87.02 12.68 86.92 12.69C87.04 12.83 87.11 12.95 87.11 13.03L87.3 13.03L87.2 12.84L87.2 12.75L87.64 12.85C87.75 12.85 87.8 12.79 87.8 12.69L87.99 12.75L88.18 12.75L88.08 12.59L88.24 12.5C88.26 12.62 88.32 12.69 88.43 12.69L88.62 12.69L88.52 12.5L88.68 12.4L88.68 12.59C89.44 12.45 89.94 12.24 90.19 11.96L90.1 11.81L90.38 11.37L89.94 11.37L89.94 11.62L89.85 11.62L89.85 11.36L88.43 11.81ZM86.92 12.31L87.3 12.31C87.4 12.31 87.45 12.26 87.45 12.15L87.11 12.15C86.98 12.17 86.92 12.23 86.92 12.31ZM84.65 12.85L84.65 12.94L85 12.94L85 12.75L84.9 12.75C84.83 12.8 84.74 12.84 84.65 12.85ZM86.67 12.85L86.67 12.94C86.69 13.06 86.75 13.13 86.86 13.13L86.92 13.13L86.92 12.85L86.67 12.85ZM85.97 12.94C85.97 13.06 85.94 13.18 85.88 13.29L86.13 13.29L86.13 13.13L86.32 13.19L86.57 13.19L86.57 13.13C86.57 13 86.52 12.94 86.41 12.94L85.97 12.94ZM85.53 13.13C85.53 13.23 85.47 13.29 85.34 13.29C85.36 13.41 85.43 13.48 85.53 13.48L85.69 13.48L85.69 13.38L85.6 13.19C85.66 13.19 85.69 13.17 85.69 13.13L85.53 13.13L85.53 13.13ZM82.54 13.92L82.6 14.07C82.53 14.13 82.44 14.16 82.35 14.17C82.37 14.29 82.44 14.36 82.54 14.36C83.17 14.1 83.58 13.89 83.77 13.73C83.92 13.73 84.08 13.79 84.27 13.92L84.37 13.73C84.3 13.73 84.27 13.7 84.27 13.63L84.71 13.73L85.25 13.57C85.25 13.44 85.2 13.38 85.09 13.38L85 13.38L84.71 13.57C84.71 13.44 84.69 13.38 84.65 13.38C84.56 13.43 84.47 13.46 84.37 13.48L84.37 13.38C83.44 13.74 82.83 13.92 82.54 13.92L82.54 13.92ZM81.37 14.36C81.4 14.46 81.46 14.51 81.56 14.51C81.98 14.51 82.21 14.43 82.26 14.26L81.82 14.17L81.82 14.36L81.72 14.36L81.72 14.17L81.56 14.17C81.44 14.19 81.37 14.25 81.37 14.36L81.37 14.36ZM80.68 14.45L80.68 14.51L81.22 14.61C81.22 14.52 81.12 14.44 80.93 14.36C80.86 14.41 80.77 14.44 80.68 14.45ZM63.39 22.14L64.78 22.14C68.12 22.14 70.74 23.64 72.65 26.64C73.24 27.96 73.67 29.24 73.94 30.48L73.82 31.05L73.82 31.52C73.82 31.69 73.86 31.85 73.94 31.99C73.63 33.88 73.04 35.72 72.21 37.44C72.21 38.18 71.66 39.3 70.57 40.81C69.9 40.94 69.09 41.52 68.15 42.54C67.43 42.86 66.5 43.39 65.34 44.15L65.47 44.15C66.44 43.86 67.01 43.71 67.2 43.71L67.2 43.93L61.75 45.79C60.31 45.79 58.8 45.24 57.25 44.15C56.64 43.56 55.91 42.52 55.05 41.03C55.05 40.93 54.62 39.85 53.75 37.79C53.67 36.86 53.55 36.4 53.41 36.4C53.41 33.61 54.88 31.32 57.82 29.54C58.89 29.05 59.9 28.71 60.84 28.5C60.84 28.41 60.87 28.37 60.94 28.37C61.92 28.58 62.58 28.97 62.92 29.54C62.92 29.68 63.11 30.07 63.49 30.7L63.49 31.05C63.49 31.49 63.07 32.04 62.23 32.69C62.37 32.71 62.45 32.78 62.45 32.91C61.86 33.2 61.36 33.75 60.94 34.54L60.94 34.76L61.06 34.76L61.66 34.42L62.1 34.42L59.68 36.15C58.82 37.05 58.27 37.95 58.04 38.83C58.04 39 58.35 39.23 58.98 39.52L59.55 39.52C60.96 39.52 62.93 38.9 65.47 37.66C67.28 36.32 68.56 34.85 69.31 33.25C69.84 32.29 70.22 30.98 70.45 29.32L70.45 28.5C69.9 27.64 68.7 26.99 66.86 26.55C66.16 26.55 65.59 26.46 65.12 26.29L63.14 26.55L63.14 26.29C63.24 26.29 63.68 26.22 64.43 26.07L66.42 26.07L66.98 26.17L67.11 25.95L66.86 25.82C66.21 25.9 65.67 25.95 65.25 25.95L63.49 25.38L63.27 25.38C63.1 25.38 62.94 25.41 62.79 25.47C62.66 25.41 62.5 25.38 62.35 25.38L61.75 25.47C61.33 24.95 61.03 24.69 60.84 24.69C60.53 24.56 60.37 24.45 60.37 24.34C60.37 24.26 60.53 24.02 60.84 23.62C60.84 23.3 60.64 23 60.24 22.7C61.17 22.32 62.22 22.14 63.39 22.14ZM88.15 24.34L88.15 24.43C88.06 24.65 87.84 24.75 87.48 24.75L87.48 24.97L87.7 24.97C87.89 24.82 88.49 24.65 89.5 24.43L90.04 24.56C90.08 24.56 90.23 24.52 90.48 24.43C91.15 24.43 92.31 24.86 93.97 25.73C94.54 26.21 94.82 26.49 94.82 26.58C94.77 26.67 94.74 26.78 94.73 26.89C95.27 27.25 96.05 27.95 97.06 29C98.02 27.99 99.55 27.04 101.63 26.14L102.16 26.04L102.16 26.14C102.48 25.86 103.25 25.58 104.49 25.29L104.49 25.41L105.12 25.19C105.22 25.25 105.33 25.28 105.44 25.29C105.94 25.22 106.22 25.19 106.29 25.19C106.37 25.19 106.8 25.33 107.58 25.6C107.58 25.5 107.71 25.39 107.99 25.29C109.15 25.76 110.28 26.3 111.39 26.89C112.12 27.14 112.8 27.53 113.4 28.06C114.29 28.27 115.27 29.33 116.36 31.24C116.79 31.74 117.22 32.23 117.66 32.72C118.01 33.75 118.19 34.39 118.19 34.64C118.11 34.64 118.07 34.67 118.07 34.73C118.21 34.73 118.29 34.84 118.29 35.05C118.14 35.2 118.03 35.94 117.97 37.28C117.17 39.19 114.66 41.6 110.44 44.5C106.66 47.08 103.29 49.14 100.33 50.67C97.67 52.5 95.34 54.23 93.34 55.87C88.35 60.67 85.62 63.65 85.15 64.78C84.12 66.21 83.56 66.92 83.45 66.92L83.14 66.92L83.14 67.01L83.36 67.33L83.23 67.33L83.04 67.24L82.73 67.24C82.73 67.07 82.58 66.96 82.29 66.92L82.29 66.61L82.07 66.61C82.07 66.81 82 66.92 81.88 66.92L81.75 66.92L81.75 66.79C81.75 66.67 81.9 66.32 82.19 65.75L81.97 65.85C81.83 65.85 81.75 65.78 81.75 65.63C82.53 64.43 82.99 63.83 83.14 63.83L83.14 63.74C82.72 63.74 82.51 63.63 82.51 63.42L83.45 62.13L83.67 62.23C83.67 61.79 84.06 61.16 84.84 60.34L84.93 60.34L84.93 60.43L84.62 60.87L84.62 61.19L84.74 61.19C84.85 61.19 85.03 60.98 85.28 60.56L85.28 60.21C85.05 60.21 84.93 60.15 84.93 60.02C86.28 58.24 87.13 57.35 87.48 57.35L87.48 57.57L87.7 57.57L87.48 57.25C87.72 56.87 88.25 56.23 89.09 55.33L89.09 55.24L89 55.24C88.89 55.29 88.77 55.32 88.65 55.33C88.65 55.23 88.9 54.98 89.41 54.61L89.63 54.7L89.72 54.7L89.72 54.61L89.5 54.61C89.52 54.46 89.59 54.39 89.72 54.39L89.94 54.48L90.04 54.48L90.04 54.39L89.82 54.39L89.82 54.17C89.82 54.04 89.93 53.98 90.16 53.98L90.16 53.76C89.3 54.34 88.87 54.69 88.87 54.8C87.99 55.59 87.53 55.99 87.48 55.99L87.39 55.99L87.39 55.87L87.48 55.65L87.39 55.65C87.31 55.65 86.99 55.97 86.45 56.62L86.45 56.72L86.63 56.72L86.63 56.94C86.42 57.29 85.86 57.93 84.93 58.86L84.43 58.42C84.49 58.33 84.52 58.15 84.52 57.88L84.43 57.88L84.43 57.79C84.43 57.64 84.57 57.57 84.84 57.57L84.74 57.35C84.74 57.24 85.16 56.96 86 56.5C86.57 56.01 87.32 55.2 88.24 54.07L88.15 54.07L87.93 54.17L87.8 53.98C88.03 53.89 88.25 53.64 88.46 53.22L88.65 53.22L88.65 53.13L88.56 52.91C88.77 52.76 89.02 52.65 89.31 52.59L89.19 52.37L89.82 51.93C89.75 51.93 89.72 51.9 89.72 51.83C90.67 51.2 91.2 50.89 91.33 50.89C92.03 50.36 92.66 49.74 93.22 49.06C93.74 48.68 94.59 48.16 95.77 47.49C95.77 47.19 96.2 46.81 97.06 46.32L96.74 46.32L96.74 46.2C97.79 45.42 98.47 45.03 98.76 45.03L98.76 45.16L98.95 45.03L99.39 45.16L100.78 44.4C101.51 43.77 101.97 43.46 102.16 43.46L102.16 43.33L101.72 43.33L101.72 43.14C101.89 43.14 102.77 42.58 104.37 41.44L107.23 39.62C107.32 39.62 107.43 39.58 107.58 39.52C107.7 39.59 107.85 39.62 107.99 39.62C108.39 39.26 108.67 38.94 108.84 38.67C109.34 38.67 109.59 38.39 109.59 37.82L109.78 37.82L109.78 38.13L109.91 38.13C110.01 38.13 110.12 38.03 110.22 37.82L110 37.5C110 37.44 110.42 37.09 111.26 36.43L111.39 36.43L111.61 36.56C111.61 36.37 111.75 36.22 112.02 36.12C112.02 35.7 112.17 35.49 112.46 35.49C112.88 35.07 113.09 34.75 113.09 34.54C113.22 34.54 113.39 34.15 113.62 33.35C113.79 33.35 113.97 33 114.16 32.31C114.16 31.45 112.52 30.81 109.25 30.39C108.86 30.38 108.47 30.35 108.08 30.29C106.21 30.42 104.41 31.02 102.66 32.09C100.71 33.39 99.05 35.09 97.69 37.19C97.23 37.76 96.69 38.61 96.08 39.74L96.21 39.93L94.82 43.33C94.63 43.33 94.25 43.58 93.66 44.09L93.34 44.09C92.06 43 91.42 42.25 91.42 41.85C91.42 41.43 91.32 41.22 91.11 41.22C91.11 41.37 91.03 41.44 90.89 41.44L90.67 41.44C90.67 41.15 90.38 40.51 89.82 39.52C89.96 39.02 90.21 38.48 90.57 37.91C90.5 37.79 90.47 37.65 90.48 37.5C90.71 37.42 91.02 36.99 91.42 36.21L91.33 36.02C91.62 35.94 91.94 35.55 92.27 34.86C92.21 34.86 92.18 34.82 92.18 34.73L92.59 34.42L92.49 34.2L92.49 34.1L93.53 30.83L93.66 30.29C93.53 29.22 93.38 28.68 93.22 28.68C89.9 28.68 85.97 31.88 81.44 38.26C81.44 38.36 81.2 38.82 80.71 39.61L79.42 43.02L79.74 43.55L79.64 43.99C79.71 44.12 79.74 44.26 79.74 44.4L79.2 44.72L78.89 44.72C78.82 44.72 78.79 44.68 78.79 44.62C78.65 44.68 78.54 44.72 78.48 44.72C78.39 44.72 77.93 44.25 77.09 43.33C76.99 43.33 76.67 42.88 76.15 41.98C76.06 41.98 75.81 41.76 75.39 41.31C75.39 40.2 75.57 39.29 75.93 38.57C75.78 38.57 75.71 38.47 75.71 38.26C75.92 37.65 76.06 37.33 76.15 37.28L76.02 37.06L76.02 36.87C76.19 36.71 76.37 36.24 76.56 35.49C76.81 35.49 77.3 34.95 78.04 33.88C78.37 33.88 78.66 33.6 78.89 33.03L79.33 32.62L79.2 32.4C79.85 31.35 80.49 30.54 81.12 29.98C81.27 29.98 81.58 29.62 82.07 28.91L84.74 26.45L84.62 26.45C84.49 26.53 84.39 26.58 84.3 26.58L84.3 26.45C84.3 26.32 84.56 26.19 85.06 26.04C85.08 26.19 85.15 26.26 85.28 26.26C85.49 26.11 85.66 26.04 85.78 26.04L85.78 25.73L85.69 25.73C85.54 25.79 85.44 25.82 85.37 25.82L85.37 25.73C86.28 25.03 87.16 24.57 88.02 24.34L88.15 24.34L88.15 24.34ZM86.76 25.19L86.76 25.29L87.08 25.29C87.18 25.29 87.29 25.18 87.39 24.97L87.3 24.97C87.07 25.12 86.89 25.19 86.76 25.19ZM98.22 45.57L98.32 45.57C98.61 45.46 98.76 45.36 98.76 45.25L98.54 45.25C98.43 45.25 98.33 45.36 98.22 45.57ZM90.67 53.22C90.71 53.37 90.78 53.44 90.89 53.44L91.01 53.44C90.93 53.31 90.88 53.16 90.89 53C90.74 53.02 90.67 53.09 90.67 53.22ZM87.8 55.14L87.61 55.46L87.8 55.55C87.8 55.34 87.87 55.24 88.02 55.24L88.02 55.14L87.8 55.14ZM86.22 57.88L86.32 58.1L86.13 58.2L86 58.2L86 58.1C86.03 57.96 86.1 57.88 86.22 57.88ZM83.45 60.02L83.45 60.34L83.23 60.34L83.23 60.21C83.28 60.09 83.35 60.02 83.45 60.02L83.45 60.02ZM83.04 60.56L83.23 60.65L83.58 60.65C83.03 61.6 82.65 62.12 82.41 62.23L82.29 62.23L82.29 62.13C82.37 62.01 82.41 61.9 82.41 61.82L81.88 62.35L81.75 62.13C82.26 61.34 82.69 60.81 83.04 60.56ZM83.89 62.04L84.08 62.13L84.21 61.91L84.21 61.82L84.08 61.82C83.96 61.84 83.89 61.91 83.89 62.04ZM82.51 67.77C82.6 67.82 82.71 67.86 82.82 67.87L82.82 68.08C82.63 68.08 82.42 68.19 82.19 68.4L82.19 68.08C82.19 67.98 82.3 67.87 82.51 67.77ZM130.22 22.14L131.61 22.14C134.95 22.14 137.57 23.64 139.48 26.64C140.07 27.96 140.5 29.24 140.77 30.48L140.65 31.05L140.65 31.52C140.65 31.69 140.69 31.85 140.77 31.99C140.46 33.88 139.87 35.72 139.04 37.44C139.04 38.18 138.49 39.3 137.4 40.81C136.73 40.94 135.92 41.52 134.98 42.54C134.26 42.86 133.33 43.39 132.17 44.15L132.3 44.15C133.27 43.86 133.84 43.71 134.03 43.71L134.03 43.93L128.58 45.79C127.14 45.79 125.63 45.24 124.08 44.15C123.47 43.56 122.74 42.52 121.88 41.03C121.88 40.93 121.45 39.85 120.59 37.79C120.5 36.86 120.39 36.4 120.24 36.4C120.24 33.61 121.71 31.32 124.65 29.54C125.72 29.05 126.73 28.71 127.67 28.5C127.67 28.41 127.7 28.37 127.77 28.37C128.75 28.58 129.41 28.97 129.75 29.54C129.75 29.68 129.94 30.07 130.32 30.7L130.32 31.05C130.32 31.49 129.9 32.04 129.06 32.69C129.2 32.71 129.28 32.78 129.28 32.91C128.69 33.2 128.19 33.75 127.77 34.54L127.77 34.76L127.89 34.76L128.49 34.42L128.93 34.42L126.51 36.15C125.65 37.05 125.1 37.95 124.87 38.83C124.87 39 125.18 39.23 125.81 39.52L126.38 39.52C127.79 39.52 129.76 38.9 132.3 37.66C134.11 36.32 135.39 34.85 136.14 33.25C136.67 32.29 137.05 30.98 137.28 29.32L137.28 28.5C136.73 27.64 135.53 26.99 133.69 26.55C132.99 26.55 132.42 26.46 131.95 26.29L129.97 26.55L129.97 26.29C130.08 26.29 130.5 26.22 131.26 26.07L133.25 26.07L133.81 26.17L133.94 25.95L133.69 25.82C133.15 25.9 132.62 25.94 132.08 25.95L130.32 25.38L130.1 25.38C129.93 25.38 129.77 25.41 129.62 25.47C129.49 25.41 129.33 25.38 129.18 25.38L128.58 25.47C128.16 24.95 127.86 24.69 127.67 24.69C127.36 24.56 127.2 24.45 127.2 24.34C127.2 24.26 127.36 24.02 127.67 23.62C127.67 23.3 127.47 23 127.07 22.7C128 22.32 129.05 22.14 130.22 22.14ZM156.77 0C156.83 0.1 156.87 0.22 156.87 0.34L157.02 0.25L157.02 0.34C156.93 0.54 156.87 0.75 156.87 0.97L156.93 0.97L157.37 0.69L157.46 0.88C156.64 2.98 156.24 4.12 156.24 4.31L156.14 4.31L156.24 4.47L155.35 6.51L155.61 6.51C155.67 6.09 155.8 5.88 155.98 5.88C155.98 5.97 156.07 6.06 156.24 6.17C156.29 6.08 156.32 5.98 156.33 5.88L156.42 5.88C156.53 5.91 156.58 5.97 156.58 6.07C156.33 6.54 156.15 6.77 156.05 6.77L156.05 6.86C156.17 7.01 156.24 7.12 156.24 7.21L156.33 7.21C156.41 7.21 156.53 7.03 156.68 6.67L156.68 6.23C156.76 6.23 156.88 6.08 157.02 5.79L156.93 5.63L157.65 3.87C157.65 3.76 157.54 3.65 157.31 3.52C157.2 3.52 157.08 3.64 156.93 3.87C157.01 3.87 157.16 4.02 157.37 4.31C156.97 4.86 156.71 5.23 156.58 5.44L156.42 5.44L156.42 5.29L156.24 5.29C156.24 5.62 156.17 5.79 156.05 5.79C155.94 5.79 155.89 5.74 155.89 5.63C156.1 5.3 156.28 4.86 156.42 4.31C156.95 2.97 157.21 2.26 157.21 2.2L157.46 2.01L157.56 2.01C157.5 2.22 157.47 2.43 157.46 2.64C157.65 2.64 157.75 2.76 157.75 2.99L157.56 3.08L157.65 3.58L157.81 3.58C157.83 3.29 158.04 2.94 158.44 2.55C158.44 2.61 158.47 2.64 158.53 2.64C158.5 2.75 158.44 2.85 158.37 2.94C158.29 3.02 158.2 3.09 158.09 3.14C158.09 3.21 158.13 3.24 158.19 3.24C158.03 4.05 157.82 4.85 157.56 5.63L157.75 5.73C157.96 4.89 158.19 4.38 158.44 4.21C158.44 4.28 158.47 4.31 158.53 4.31C158.47 4.96 158.38 5.37 158.25 5.54L158.53 5.54C158.53 5.6 158.5 5.63 158.44 5.63L158.53 6.07C157.58 8.85 156.66 11.64 155.8 14.45C156.26 14.45 156.49 14.47 156.49 14.51L156.68 14.45C157.79 14.46 158.91 14.39 160.02 14.26C160.1 14.31 160.2 14.34 160.3 14.36C160.38 14.25 161.09 14.16 162.41 14.07C162.48 14.13 162.57 14.16 162.66 14.17C162.78 14.1 162.91 14.07 163.04 14.07C163.04 14.2 163.09 14.26 163.2 14.26C163.22 14.14 163.28 14.07 163.39 14.07L164.17 14.07L164.61 14.01C164.61 14.05 164.65 14.07 164.71 14.07C164.71 13.99 165.23 13.87 166.28 13.73L166.28 13.82L168.49 13.48C168.59 13.54 168.71 13.57 168.83 13.57C168.86 13.44 168.92 13.38 169.02 13.38L169.12 13.38C169.24 13.38 169.36 13.41 169.46 13.48C169.57 13.41 169.69 13.38 169.81 13.38L170 13.48C170 13.39 170.08 13.3 170.25 13.19C170.33 13.24 170.41 13.28 170.5 13.29C170.52 13.18 170.59 13.13 170.69 13.13L170.94 13.13L170.88 13.29L171.13 13.29C171.13 13.12 171.75 12.94 172.99 12.75C173.1 12.81 173.22 12.85 173.34 12.85C173.53 12.85 173.79 12.73 174.13 12.5C174.13 12.62 174.21 12.69 174.38 12.69C174.55 12.69 174.76 12.59 175.01 12.4C175.13 12.4 175.25 12.43 175.35 12.5C175.44 12.45 175.54 12.42 175.64 12.4L175.79 12.5C176.3 12.23 176.89 12.03 177.56 11.9C177.56 11.84 177.62 11.81 177.75 11.81C177.77 11.91 177.82 11.96 177.9 11.96C178.09 11.96 178.48 11.85 179.07 11.62C179.17 11.68 179.29 11.71 179.42 11.71L179.61 11.71L179.61 11.62C179.55 11.54 179.52 11.45 179.51 11.36L179.61 11.36C179.73 11.36 179.85 11.4 179.95 11.46L183.04 10.64L183.13 10.64L183.04 10.48L183.04 10.39C183.14 10.41 183.2 10.47 183.2 10.58L183.38 10.48L183.57 10.58C184.87 10.15 186.18 9.8 187.51 9.51L187.79 9.51L187.79 9.25L188.14 9.25C188.73 9.15 189.02 9.02 189.02 8.88L189.27 9.07C189.59 8.9 190.06 8.72 190.69 8.53L190.69 8.43L191.13 8.53C192.12 8.17 192.89 7.97 193.43 7.93C193.43 7.87 193.49 7.84 193.62 7.84L193.78 7.93L194.66 7.55L194.85 7.55L195.1 7.74L195.19 7.74L195.1 7.55C195.41 7.45 195.71 7.3 195.98 7.11L196.23 7.11C196.23 7.03 196.33 6.94 196.52 6.86C196.52 6.94 196.6 7.03 196.77 7.11C196.77 7.01 196.86 6.95 197.05 6.95L197.49 7.05C197.49 6.92 197.55 6.86 197.65 6.86C197.74 6.91 197.83 6.94 197.93 6.95L198.38 6.61L198.44 6.61L198.38 6.77L198.38 6.86L198.44 6.86C199.43 6.55 200.08 6.28 200.39 6.07L200.83 6.17C200.85 6.04 200.92 5.98 201.02 5.98L201.18 6.07L201.27 6.07L201.27 5.98L201.08 5.98L201.08 5.79L201.71 5.88L201.81 5.88L201.71 5.73L201.71 5.63L202.5 5.35L202.5 5.44L202.41 5.63L202.85 5.63C203.04 5.46 203.77 5.26 205.05 5C205.07 4.92 205.84 4.69 207.35 4.31C207.37 4.18 207.44 4.12 207.54 4.12L207.7 4.21C207.99 4.09 209.12 3.8 211.07 3.33C211.07 3.27 211.09 3.24 211.13 3.24L211.86 3.24L212.3 3.33L212.3 2.99C212.38 2.99 212.73 2.89 213.34 2.7L213.68 2.7L213.68 2.8L213.62 2.99L213.68 2.99C214.42 2.76 214.89 2.64 215.1 2.64L215.1 2.7C215.04 2.87 213.95 3.2 211.86 3.68L205.49 5.44L205.49 5.63L205.59 5.63C206.13 5.44 206.46 5.35 206.56 5.35L206.56 5.44L206.91 5.29C206.99 5.32 207.08 5.34 207.16 5.35C207.46 5.2 207.6 5.09 207.6 5L208.04 5.1C208.34 4.87 208.55 4.75 208.67 4.75L209.12 4.84C209.14 4.72 209.2 4.66 209.3 4.66L209.46 4.75C209.46 4.56 209.85 4.42 210.63 4.31L210.78 4.31L210.78 4.56L211.07 4.56L210.97 4.12L211.51 4.12L212.01 3.77L212.11 3.77L212.3 3.87C212.32 3.74 212.37 3.68 212.45 3.68L212.55 3.68C212.55 3.83 212.61 3.97 212.74 4.12L212.45 4.47C212.52 4.47 212.55 4.5 212.55 4.56L212.45 4.56C212.35 4.56 212.3 4.48 212.3 4.31C212.17 4.33 212.11 4.38 212.11 4.47C212.23 4.53 212.33 4.56 212.39 4.56C212.39 4.77 211.97 4.89 211.13 4.91C211.18 4.83 211.22 4.75 211.23 4.66L211.13 4.66C211.05 4.72 210.88 4.75 210.63 4.75C210.63 4.86 210.71 4.91 210.88 4.91L210.88 5.1L210.44 5.19L210.34 5C210.34 4.94 210.37 4.91 210.44 4.91L210.34 4.75L210.34 4.66L210.63 4.66L210.63 4.56C210.53 4.55 210.43 4.52 210.34 4.47C210.17 4.59 209.96 4.66 209.75 4.66L209.75 4.84C209.87 4.84 210.04 4.93 210.25 5.1L210.34 5.1L210.19 5.35C210.22 5.44 210.24 5.54 210.25 5.63C209.58 5.8 209.14 5.95 208.93 6.07C208.82 6.07 208.77 6.01 208.77 5.88C209.65 5.61 210.09 5.43 210.09 5.35L209.75 5.35L209.75 5.19L209.9 5.19L209.9 5L209.81 5C209.43 5.42 209.02 5.63 208.58 5.63C208.53 5.55 208.5 5.45 208.49 5.35L208.42 5.35L208.14 5.54L207.98 5.44L207.89 5.63L208.14 5.63L208.14 5.79C207.09 6.1 206.56 6.31 206.56 6.42L206.66 6.42L207.26 6.32L207.26 6.42C207.26 6.53 206.78 6.7 205.84 6.95C205.84 7.02 205.79 7.05 205.68 7.05C205.49 7.05 205.4 6.92 205.4 6.67L205.24 6.67C204.99 7.09 204.75 7.3 204.52 7.3L204.52 7.21C204.29 7.33 204.09 7.4 203.92 7.4L203.92 7.21C204.36 7.1 204.62 7.05 204.71 7.05L204.61 6.86C201.38 7.74 199.74 8.25 199.7 8.37C201.01 8.09 202.3 7.74 203.57 7.3C203.57 7.37 203.83 7.54 204.36 7.84C204.15 7.94 203.79 8.06 203.29 8.18L203.29 8.09L203.13 8.18L202.78 8.18C202.87 7.97 203.25 7.86 203.92 7.84C203.92 7.71 203.86 7.65 203.73 7.65L203.29 7.65C202.74 7.84 202.4 7.93 202.25 7.93L202.06 7.93C202.06 8.12 201.59 8.29 200.64 8.44C200.64 8.56 200.48 8.62 200.14 8.62L200.2 8.81C200.48 8.69 200.86 8.62 201.37 8.62L201.53 8.62C201.53 8.39 201.7 8.28 202.06 8.28L202.5 8.28L202.5 8.44L202.34 8.44C202.15 8.44 201.8 8.56 201.27 8.81C200.81 8.81 200.08 9.04 199.07 9.51C198.48 9.51 198.19 9.59 198.19 9.76C198.11 9.72 198.02 9.7 197.93 9.69L197.56 9.85C197.56 9.75 197.5 9.69 197.4 9.69C197.4 9.91 197.07 10.05 196.42 10.14L196.23 10.04L196.17 10.04L196.17 10.14L196.33 10.14C196.33 10.24 196.28 10.29 196.17 10.29L195.73 10.2C195.71 10.28 195.42 10.46 194.85 10.74C194.85 10.67 194.82 10.64 194.75 10.64C194.7 10.73 194.67 10.82 194.66 10.92L194.56 10.92C194.56 10.8 194.53 10.73 194.47 10.73L194.31 10.83L194.12 10.74C194.06 10.74 193.91 10.88 193.68 11.18C193.68 11.07 193.63 11.02 193.53 11.02L193.24 11.02C193.01 11.19 192.49 11.35 191.67 11.52C191.6 11.29 191.49 11.18 191.32 11.18C191.23 11.23 191.14 11.26 191.04 11.27L191.04 11.37C191.29 11.37 191.42 11.42 191.42 11.52C191.06 11.67 190.88 11.8 190.88 11.9L190.97 11.9L190.88 12.06L190.88 12.15C192.98 11.63 194.65 11.12 195.89 10.64C195.95 10.64 195.98 10.67 195.98 10.74C196.44 10.5 196.77 10.39 196.96 10.39L197.12 10.48C197.12 10.36 198.12 10.03 200.14 9.51C207.03 7.51 211.02 6.4 212.11 6.17L212.11 6.32L201.9 9.26C201.06 9.48 200.59 9.65 200.49 9.76C200.21 9.76 198.77 10.15 196.17 10.92C195.98 11.03 194.86 11.35 192.8 11.9C192.72 11.9 192.42 12.04 191.92 12.31C191.84 12.27 191.75 12.25 191.67 12.25C191.62 12.32 191.58 12.41 191.57 12.5L191.13 12.4L191.04 12.4L191.04 12.5L191.23 12.5L191.23 12.69C189.76 12.96 188.94 13.22 188.77 13.48C188.68 13.42 188.59 13.39 188.49 13.38C188.26 13.59 187.26 13.92 185.49 14.36C185.49 14.42 185.46 14.45 185.4 14.45C185.33 14.4 185.24 14.37 185.15 14.36L185.05 14.51L184.61 14.45C184.42 14.45 184.22 14.57 184.01 14.8C183.93 14.75 183.83 14.71 183.73 14.7L183.64 14.89L183.48 14.8L183.29 14.8C183.29 14.97 183.24 15.05 183.13 15.05L182.94 15.05L182.5 14.96C182.5 15.08 182.36 15.21 182.06 15.33L181.53 15.24C180.75 15.76 177.35 16.58 171.32 17.7C169.85 17.99 167.94 18.28 165.59 18.58L165.59 18.48C162.17 19.03 158.58 19.3 154.82 19.3L154.66 19.3C154.45 19.51 153.86 21.59 152.9 25.54C150.06 34.46 147.8 40.69 146.1 44.21C145.95 44.74 145.57 45.24 144.96 45.73L144.77 45.73C144.18 45.73 143.89 45.66 143.89 45.54L143.73 45.63L143.64 45.63L142.06 45.03C141.97 45.04 141.87 45.06 141.78 45.1C141.36 45.1 140.95 44.8 140.55 44.21C141.96 41.25 142.99 38.85 143.64 37L145.21 32.84C145.21 32.7 145.54 31.79 146.19 30.14C147.01 27.68 147.86 24.71 148.74 21.22C148.85 21.22 149.09 20.55 149.47 19.21C146.63 18.72 144.75 18.14 143.83 17.44C143.53 17.44 142.74 16.86 141.43 15.68L141.43 15.4L141.62 15.4L141.62 15.24C141.33 14.8 141.15 14.24 141.09 13.57C141.02 13.57 140.99 13.54 140.99 13.48L141.09 13.29C141.02 13.18 140.99 13.06 140.99 12.94L141.09 12.94L140.99 12.75L140.99 12.69C141.06 11.81 141.23 11.36 141.53 11.36L145.65 13.29L148.3 14.01L148.49 13.92C148.82 14.02 149.56 14.17 150.69 14.36C150.99 13.6 151.28 12.66 151.58 11.52C151.96 9.94 152.46 8.38 153.06 6.86C153.14 6.4 153.29 6.17 153.5 6.17C153.5 6.1 153.48 6.07 153.43 6.07C153.43 5.51 153.66 5 154.13 4.56L154.03 4.4C154.43 4.11 154.69 3.96 154.82 3.96C154.82 3.77 154.8 3.68 154.76 3.68C154.76 3.55 154.84 3.21 155.01 2.64L155.45 2.64C155.83 1.44 156.27 0.56 156.77 0ZM157.56 1.47L157.75 1.47L157.75 1.76L157.37 1.76L157.37 1.66C157.39 1.54 157.45 1.47 157.56 1.47ZM216.26 1.92L216.26 2.11C215.84 2.21 215.6 2.26 215.54 2.26L215.45 2.1C215.7 1.98 215.98 1.92 216.26 1.92ZM216.71 2.2L216.96 2.2L216.96 2.36L216.52 2.36C216.54 2.25 216.6 2.2 216.71 2.2ZM216.42 2.36C216.42 2.5 216.08 2.62 215.38 2.7L215.29 2.55C215.88 2.42 216.25 2.36 216.42 2.36ZM217.65 2.45L217.84 2.45C217.84 2.6 217.58 2.68 217.05 2.7L217.05 2.55L217.65 2.45ZM212.55 3.14L212.55 3.24L212.64 3.24C213.1 3.18 213.34 3.09 213.34 2.99L213.24 2.99C213.2 2.99 212.97 3.04 212.55 3.14ZM215.98 2.89L215.98 3.08L215.82 2.99C215.82 3.09 215.76 3.14 215.63 3.14L215.54 3.14C215.43 3.14 215.38 3.09 215.38 2.99L215.98 2.89ZM215.38 3.08L215.19 3.33C215.25 3.41 215.28 3.49 215.29 3.58L215.19 3.58L214.94 3.43L214.66 3.43L214.75 3.58L214.75 3.68L214.56 3.68C214.48 3.68 214.4 3.6 214.31 3.43C214.44 3.3 214.79 3.19 215.38 3.08ZM214.06 3.33L214.22 3.77L213.97 3.96L213.87 3.96C213.74 3.96 213.68 3.9 213.68 3.77L214.06 3.77L214.06 3.68L213.68 3.68C213.68 3.81 213.63 3.87 213.52 3.87C213.4 3.87 213.34 3.81 213.34 3.68C213.34 3.57 213.58 3.46 214.06 3.33ZM212.74 3.68L213.18 3.68C213.18 3.91 213.23 4.03 213.34 4.03L214.06 4.03L214.06 4.12C214.06 4.25 213.79 4.34 213.24 4.4L213.24 4.31L213.34 4.12C213.02 4.12 212.82 4.01 212.74 3.77L212.74 3.68ZM212.3 3.96L212.2 4.12L212.2 4.21C212.31 4.15 212.43 4.12 212.55 4.12L212.55 4.03C212.46 4.02 212.38 4 212.3 3.96ZM156.87 4.03L156.77 4.47C156.86 4.47 156.97 4.35 157.12 4.12L156.93 4.03L156.87 4.03ZM211.32 4.31L211.32 4.47C211.45 4.47 211.51 4.53 211.51 4.66L211.76 4.66C211.89 4.66 211.95 4.59 211.95 4.47C211.82 4.47 211.76 4.42 211.76 4.31L212.01 4.31L212.01 4.12C211.84 4.25 211.61 4.31 211.32 4.31ZM213.18 4.56L213.34 4.56L213.34 4.75L212.99 4.75C213.01 4.63 213.07 4.56 213.18 4.56ZM156.58 4.75C156.58 4.83 156.53 4.95 156.42 5.1L156.42 5.19C156.51 5.19 156.62 5.08 156.77 4.84L156.58 4.75ZM207.35 5.44C207.41 5.44 207.5 5.47 207.6 5.54L207.7 5.54L207.7 5.44C207.59 5.44 207.54 5.39 207.54 5.29C207.41 5.31 207.35 5.36 207.35 5.44ZM202.85 5.29L202.94 5.29L202.94 5.35C202.94 5.47 202.89 5.54 202.78 5.54L202.69 5.35L202.85 5.29ZM204.96 5.63C205.02 5.74 205.05 5.86 205.05 5.98L205.15 5.98C205.15 5.87 205.23 5.73 205.4 5.54L205.24 5.54C205.15 5.59 205.06 5.62 204.96 5.63ZM207.01 5.54L207.1 5.73C207.17 5.67 207.26 5.64 207.35 5.63L207.35 5.54L207.01 5.54ZM207.54 5.79L207.6 5.79C207.73 5.79 207.79 5.74 207.79 5.63L207.7 5.63C207.59 5.65 207.54 5.71 207.54 5.79ZM211.41 5.54L211.67 5.54L211.67 5.73L211.41 5.73L211.41 5.54ZM157.21 6.67C157.38 6.67 157.53 6.38 157.65 5.79L157.56 5.79C157.39 5.79 157.28 6.08 157.21 6.67ZM203.64 6.17L204.71 5.88L204.71 5.79L204.61 5.79C203.96 5.87 203.64 6 203.64 6.17ZM206.56 6.07L206.72 6.07C206.81 6.02 206.91 5.99 207.01 5.98L207.01 5.88L206.72 5.88C206.62 5.91 206.56 5.97 206.56 6.07ZM210.78 5.79L210.88 5.98L210.63 6.17L210 6.17C210 6.06 210.26 5.94 210.78 5.79ZM208.23 5.98L208.58 5.98C208.58 6.1 208.53 6.17 208.42 6.17L208.23 6.17L208.23 5.98ZM202.85 6.23L202.85 6.42L202.94 6.42L203.13 6.32C203.24 6.39 203.36 6.42 203.48 6.42L203.57 6.42C203.57 6.34 203.46 6.25 203.23 6.17C203.23 6.21 203.19 6.23 203.13 6.23L203.13 6.17C203.04 6.2 202.94 6.22 202.85 6.23ZM209.21 6.17L209.3 6.17C209.41 6.17 209.46 6.22 209.46 6.32L209.46 6.42L209.21 6.42L209.21 6.17ZM197.4 7.84L197.4 7.93L197.65 7.93C197.86 7.81 198.25 7.68 198.82 7.55C198.82 7.64 198.9 7.73 199.07 7.84L199.16 7.84C199.04 7.69 198.97 7.6 198.97 7.55C199.16 7.45 199.34 7.4 199.51 7.4L199.95 7.49L199.86 7.3L202.6 6.51L202.6 6.32L197.4 7.84L197.4 7.84ZM208.33 6.42L208.67 6.42C208.67 6.55 208.61 6.61 208.49 6.61L208.33 6.61L208.33 6.42ZM203.57 6.61L203.57 6.77C203.76 6.77 203.91 6.8 204.01 6.86L204.01 6.67L203.57 6.61ZM153.15 7.05L153.15 7.49L153.24 7.49L153.34 7.05L153.15 7.05ZM202.5 7.05C202.52 7.16 202.59 7.21 202.69 7.21L202.78 7.21C202.78 7.1 202.72 7.05 202.6 7.05L202.5 7.05ZM196.86 7.11L196.86 7.21L197.21 7.21L197.21 7.11L196.86 7.11ZM205.93 7.11L206.22 7.11C206.22 7.24 206.15 7.3 206.03 7.3L205.93 7.3L205.93 7.11ZM156.14 7.49L156.14 7.65C156.23 7.6 156.33 7.57 156.42 7.55L156.42 7.3L156.33 7.3C156.2 7.32 156.14 7.39 156.14 7.49ZM155.1 7.4L155.1 7.65C155.21 7.65 155.26 7.6 155.26 7.49L155.26 7.4L155.1 7.4ZM205.49 7.3L205.49 7.49L205.05 7.55C205.05 7.43 205.2 7.34 205.49 7.3ZM204.45 7.55L204.89 7.55L204.89 7.74C204.68 7.81 204.56 7.84 204.52 7.84L204.45 7.65L204.45 7.55ZM195.89 8.28L195.89 8.37L196.08 8.37C196.18 8.37 196.36 8.31 196.61 8.18C196.69 8.24 196.77 8.27 196.86 8.28L196.96 8.09L196.77 8.09C196.62 8.09 196.33 8.15 195.89 8.28ZM193.08 8.18L193.08 8.28L193.43 8.28L193.43 8.18L193.08 8.18ZM194.85 8.72L195.1 8.72L195.35 8.53C195.44 8.58 195.54 8.61 195.64 8.62L195.73 8.44C195.6 8.44 195.54 8.42 195.54 8.37C195.08 8.5 194.85 8.61 194.85 8.72ZM198.44 8.81L198.53 8.81C198.66 8.81 198.72 8.75 198.72 8.62L198.63 8.62C198.5 8.65 198.44 8.71 198.44 8.81ZM199.6 8.81C199.6 8.75 199.57 8.72 199.51 8.72C199.51 8.82 198.89 9.02 197.65 9.32L197.65 9.51L197.93 9.51C198.08 9.4 198.79 9.17 200.04 8.81L200.04 8.62L199.86 8.62L199.6 8.81ZM195.45 9.6L195.73 9.6L195.73 9.41L195.64 9.41C195.51 9.43 195.45 9.5 195.45 9.6ZM196.42 9.6L196.42 9.76L197.3 9.69L197.3 9.6C197.21 9.59 197.13 9.56 197.05 9.51C196.85 9.57 196.64 9.6 196.42 9.6L196.42 9.6ZM155.26 9.69L155.26 9.95L155.54 9.95L155.54 9.69L155.26 9.69ZM194.12 10.29L194.12 10.39L194.31 10.39C194.52 10.39 195.16 10.21 196.23 9.85L196.23 9.76L195.98 9.76C195.65 9.95 195.03 10.13 194.12 10.29ZM193.97 10.04L194.12 10.04C194.21 9.99 194.31 9.96 194.41 9.95L194.41 9.85L194.12 9.85C194.02 9.87 193.97 9.94 193.97 10.04ZM191.92 10.58L191.92 10.74L192.55 10.64L192.45 10.48L191.92 10.58ZM191.48 10.64L191.48 10.74L191.86 10.74L191.76 10.58C191.67 10.61 191.58 10.63 191.48 10.64ZM193.34 10.74L193.53 10.74C193.63 10.74 193.68 10.68 193.68 10.58L193.53 10.58C193.4 10.58 193.34 10.63 193.34 10.74ZM192.3 10.83L192.3 11.02C192.49 11.02 192.63 11.04 192.74 11.08C192.74 10.91 192.91 10.83 193.24 10.83L193.24 10.64L193.18 10.64C192.76 10.77 192.47 10.83 192.3 10.83ZM190.25 11.02L190.25 11.08L190.6 11.08C190.72 11.08 190.79 11.03 190.79 10.92C190.72 10.92 190.69 10.89 190.69 10.83C190.5 10.96 190.36 11.02 190.25 11.02ZM191.67 11.08L191.67 11.18C191.79 11.18 191.91 11.14 192.01 11.08L192.2 11.18L192.3 11.18L192.3 11.08C192.11 11.08 192.01 11 192.01 10.83C191.78 10.91 191.67 11 191.67 11.08ZM189.02 11.81L189.02 11.9L189.12 11.9L190.25 11.62C190.38 11.68 190.47 11.71 190.53 11.71L190.53 11.81C190.53 11.91 190.47 11.96 190.34 11.96C190.23 11.96 190.11 11.94 190 11.9L189.46 12.15L189.27 12.06C189.27 12.14 189.13 12.26 188.83 12.4L188.68 12.4L188.49 12.31C188.49 12.43 188.34 12.5 188.05 12.5L188.14 12.69L187.95 12.75C187.95 12.65 187.9 12.59 187.79 12.59C187.71 12.64 187.61 12.68 187.51 12.69C187.64 12.83 187.7 12.95 187.7 13.03L187.89 13.03L187.79 12.84L187.79 12.75L188.23 12.85C188.34 12.85 188.39 12.79 188.39 12.69L188.58 12.75L188.77 12.75L188.68 12.59L188.83 12.5C188.85 12.62 188.92 12.69 189.02 12.69L189.21 12.69L189.12 12.5L189.27 12.4L189.27 12.59C190.03 12.45 190.53 12.24 190.79 11.96L190.69 11.81L190.97 11.37L190.53 11.37L190.53 11.62L190.44 11.62L190.44 11.36L189.02 11.81ZM187.51 12.31L187.89 12.31C187.99 12.31 188.05 12.26 188.05 12.15L187.7 12.15C187.57 12.17 187.51 12.23 187.51 12.31ZM185.24 12.85L185.24 12.94L185.59 12.94L185.59 12.75L185.49 12.75C185.42 12.8 185.33 12.84 185.24 12.85ZM187.26 12.85L187.26 12.94C187.28 13.06 187.34 13.13 187.45 13.13L187.51 13.13L187.51 12.85L187.26 12.85ZM186.57 12.94C186.57 13.06 186.53 13.18 186.47 13.29L186.72 13.29L186.72 13.13L186.91 13.19L187.16 13.19L187.16 13.13C187.16 13 187.11 12.94 187.01 12.94L186.57 12.94ZM186.12 13.13C186.12 13.23 186.06 13.29 185.94 13.29C185.96 13.41 186.02 13.48 186.12 13.48L186.28 13.48L186.28 13.38L186.19 13.19C186.25 13.19 186.28 13.17 186.28 13.13L186.12 13.13L186.12 13.13ZM183.13 13.92L183.2 14.07C183.12 14.13 183.03 14.16 182.94 14.17C182.96 14.29 183.03 14.36 183.13 14.36C183.76 14.1 184.17 13.89 184.36 13.73C184.51 13.73 184.68 13.79 184.86 13.92L184.96 13.73C184.9 13.73 184.86 13.7 184.86 13.63L185.31 13.73L185.84 13.57C185.84 13.44 185.79 13.38 185.68 13.38L185.59 13.38L185.31 13.57C185.31 13.44 185.28 13.38 185.24 13.38C185.16 13.43 185.06 13.46 184.96 13.48L184.96 13.38C184.04 13.74 183.43 13.92 183.13 13.92L183.13 13.92ZM181.97 14.36C181.99 14.46 182.05 14.51 182.16 14.51C182.58 14.51 182.81 14.43 182.85 14.26L182.41 14.17L182.41 14.36L182.31 14.36L182.31 14.17L182.16 14.17C182.03 14.19 181.97 14.25 181.97 14.36L181.97 14.36ZM181.27 14.45L181.27 14.51L181.81 14.61C181.81 14.52 181.72 14.44 181.53 14.36C181.45 14.41 181.37 14.44 181.27 14.45ZM159.8 21.76L160.02 21.76C160.02 22.05 160.06 22.2 160.14 22.2L160.02 22.73L160.02 23.8C160.02 23.89 159.98 23.93 159.92 23.93L160.02 24.15L159.92 24.69L160.24 24.69C160.31 24.05 160.45 23.43 160.68 22.83L161.21 22.83C161.23 22.7 161.31 22.64 161.43 22.64L161.87 22.95L161.97 22.51L162.19 22.51L162.19 23.27C162.31 23.27 162.46 22.91 162.63 22.2L162.94 22.2C162.94 22.49 163.02 22.64 163.17 22.64L163.17 23.49C163.17 23.55 163.12 23.58 163.04 23.58C163.12 23.71 163.17 23.93 163.17 24.25L163.26 24.25L163.26 23.71L163.48 23.71L163.48 24.15C163.33 24.53 163.19 25.93 163.04 28.34C162.89 28.82 162.53 31.27 161.97 35.68C161.91 35.68 161.87 35.79 161.87 36.02L161.97 36.21C161.82 36.61 161.35 39.5 160.55 44.87C160.47 44.87 160.18 45.16 159.7 45.72C157.54 45.58 156.46 45.36 156.46 45.06L155.7 45.19C154.48 45.02 153.87 44.77 153.87 44.43L153.87 43.9C154.23 43.9 155.06 40.15 156.36 32.66C156.47 31.61 156.61 30.89 156.8 30.51L156.68 30.29C156.82 29.45 157.22 27.84 157.87 25.44C157.87 25.09 157.91 24.91 157.97 24.91L157.87 24.69C158.06 24.18 158.21 23.93 158.32 23.93C158.32 23.99 158.35 24.03 158.41 24.03C158.58 23.17 158.79 22.51 159.04 22.07L159.26 22.2L159.39 22.2C159.39 22.05 159.42 21.98 159.48 21.98L159.8 21.98L159.8 21.76ZM188.55 15.52L188.64 15.52L188.64 15.81L188.55 16.03C188.68 16.05 188.74 16.12 188.74 16.25L188.17 17.25L188.17 17.38L188.27 17.38C188.27 17.17 188.45 16.93 188.83 16.66L188.83 16.75C188.81 16.88 188.5 17.39 187.89 18.29L187.89 18.42C188.45 18.06 188.74 17.78 188.74 17.57L188.83 17.57L188.83 17.7C188.83 18.05 188.58 18.43 188.08 18.83L187.89 18.7L187.76 18.92L187.76 19.02L188.08 19.02L187.98 19.24C188.07 19.24 188.16 19.34 188.27 19.55L188.27 19.65L187.76 20.47L187.76 20.59L187.98 20.59L187.98 20.69C187.98 20.79 187.88 20.9 187.67 21C187.67 20.86 187.6 20.78 187.48 20.78L187.29 21.41L187.38 21.41L187.76 21.1L187.89 21.1C187.89 21.2 187.75 21.34 187.48 21.51L187.57 21.73C187.57 21.83 187.32 22.07 186.82 22.45C187.13 22.47 187.29 22.58 187.29 22.77C186.83 23.63 186.41 24.14 186.03 24.31C185.78 24.65 185.59 24.81 185.46 24.81L185.46 25.03L185.65 25.03L185.65 24.81C185.78 24.81 185.84 24.92 185.84 25.13L185.94 25.13L187.1 23.58L187.2 23.58C186.67 24.66 185.64 26.21 184.11 28.25L184.01 28.25L184.01 28.15L184.42 27.43L184.33 27.43L183.16 28.43C183.12 28.64 182.96 28.93 182.69 29.28L182.88 29.38L182.97 29.38L183.83 28.43L183.92 28.65C182.83 30.4 182.19 31.64 182 32.37C181.94 32.37 181.53 33.03 180.77 34.36C179.59 35.51 178.53 36.89 177.59 38.48C177.09 39.36 176.57 40.43 176.05 41.69C174.95 43.94 174.35 45.15 174.22 45.31L173.56 45.95C173.47 45.95 173.43 45.91 173.43 45.85L173.24 45.95C172.91 45.69 172.2 45.45 171.13 45.22C171.13 45.14 170.88 45 170.38 44.81L170.19 44.91C169.1 44.63 168.55 44.05 168.55 43.14C168.15 41.31 167.64 38.18 167.01 33.73C166.63 32.32 166.12 29.9 165.46 26.48L165.37 26.48C165.37 25.66 165.73 25.25 166.44 25.25C167.53 25.25 168.78 25.83 170.19 26.99C170.42 26.99 170.67 27.2 170.94 27.62C170.94 27.68 170.91 27.71 170.85 27.71C171.04 28.26 171.65 30.95 172.68 35.8L172.58 35.8C172.71 36.22 172.77 36.5 172.77 36.62L172.87 36.62L179.32 26.89C179.32 26.85 180.34 25.34 182.38 22.36C182.38 22.23 183.22 21.05 184.9 18.83C184.9 18.56 185.54 17.7 186.82 16.25C187.01 16.25 187.32 16.17 187.76 16.03L187.98 16.12C187.98 16.06 188.17 15.86 188.55 15.52ZM187.29 19.02L187.29 19.24L187.48 19.24C187.48 19.07 187.54 18.89 187.67 18.7L187.67 18.61C187.58 18.61 187.46 18.74 187.29 19.02ZM186.63 23.27L186.53 23.49L186.53 23.58L186.63 23.58C186.63 23.5 186.66 23.4 186.72 23.27L186.63 23.27ZM197.71 22.01C200.21 22.01 202.4 23.01 204.27 25C204.64 25.9 204.94 26.99 205.15 28.25C205.15 28.31 205.12 28.34 205.05 28.34L205.15 28.97L205.15 29.73C205.15 30.84 204.23 32.22 202.41 33.88C198.92 36 196.59 37.06 195.42 37.06C195.27 37 195.16 36.97 195.1 36.97C195.1 37.09 195.03 37.16 194.88 37.16C194.8 37.16 194.75 37.13 194.75 37.06L194.22 37.16L193.87 37.16C193.77 37.16 193.66 37.06 193.56 36.88L193.65 36.68C193.36 36.33 193.11 36.15 192.9 36.15C191.45 34.85 190.72 33.82 190.72 33.06L190.94 32.97L192.58 32.97C194.51 32.59 196.87 31.45 199.67 29.54C200.91 28.3 201.53 27.51 201.53 27.18L200.01 26.89L198.69 26.89C196.74 27.06 194.19 28.25 191.04 30.45C189.42 31.88 188.4 33.57 187.98 35.52C188.68 37.28 191.55 39.04 196.61 40.78C198.14 41.26 200.12 41.78 202.53 42.32L202.63 42.51C202.48 42.53 202.41 42.59 202.41 42.67L202.63 42.76C202.77 42.76 202.85 42.68 202.85 42.51L203.38 42.51L203.38 42.67L203.07 42.67L203.07 42.86L203.29 42.86C204.09 42.86 204.49 43.02 204.49 43.33C204.49 43.5 204.63 43.58 204.93 43.58L204.93 43.87C204.93 43.99 204.85 44.06 204.71 44.06L204.17 44.06C203.6 44.06 202.69 43.93 201.43 43.68L201.43 43.87L201.75 43.87L201.75 44.06L201.43 44.06C201.24 43.93 201.09 43.87 200.99 43.87L200.99 43.68L201.21 43.68L201.21 43.58L200.9 43.58L200.55 43.77L200.45 43.77C199.91 43.77 199.61 43.68 199.57 43.49L200.11 43.49C200.11 43.38 200.03 43.33 199.89 43.33L199.57 43.33C199.57 43.44 199.43 43.49 199.13 43.49L199.13 43.58C199.34 43.58 199.74 43.74 200.33 44.06L200.67 43.87L200.77 43.87L200.77 43.96L200.67 44.15L200.77 44.15C200.88 44.1 201 44.06 201.12 44.06L203.38 44.78C203.68 44.78 203.82 44.83 203.82 44.94L203.6 44.94L202.31 44.87L202.19 44.87L202.19 44.94C202.25 44.94 202.47 44.97 202.85 45.03L202.85 45.13C202.85 45.21 202.67 45.34 202.31 45.5C202.12 45.38 201.98 45.31 201.87 45.31L201.65 45.41C201.08 45.16 200.72 45.03 200.55 45.03L200.45 45.03L201.43 45.6C201.14 45.6 200.99 45.75 200.99 46.04L200.33 46.04C199.74 46.04 199.27 45.91 198.91 45.66C196.43 45.05 193.81 44.09 191.04 42.76C189.17 41.46 187.89 40.32 187.2 39.33C186.33 38.49 185.64 36.47 185.12 33.25L185.02 32.15C185.17 30.74 185.42 29.72 185.78 29.06C186.26 28.16 187.07 27.29 188.2 26.45C188.2 26.14 188.85 25.65 190.16 25C191.21 24.39 191.97 23.85 192.45 23.36C194.32 22.46 196.08 22.01 197.71 22.01ZM204.27 30.61C204.27 30.71 204.01 31.11 203.51 31.8L203.6 31.8C203.96 31.8 204.25 31.41 204.49 30.61L204.27 30.61ZM203.38 31.9C203.22 32.42 202.09 33.33 200.01 34.61C197.83 35.7 196.66 36.25 196.52 36.25L196.52 36.34L196.83 36.34C200.07 35.35 202.36 33.9 203.73 31.99L203.51 31.9L203.38 31.9ZM198.69 43.49L199.04 43.49L199.04 43.33L198.91 43.33C198.76 43.33 198.69 43.39 198.69 43.49ZM202.75 44.15L203.07 44.15L203.07 44.31L202.75 44.31L202.75 44.15ZM198.82 44.68L198.82 44.88C198.88 44.88 198.98 44.9 199.13 44.94L199.23 44.78C199.08 44.78 198.94 44.75 198.82 44.68ZM199.79 45.51C199.96 45.51 200.11 45.54 200.23 45.6L200.33 45.41L200.11 45.31L200.01 45.31C199.87 45.34 199.79 45.4 199.79 45.51Z" fill="#C62314" fill-opacity="1.000000" fill-rule="nonzero"/>
</svg>
