<svg width="292.983795" height="90.561859" viewBox="0 0 292.984 90.5619" fill="none" xmlns="http://www.w3.org/2000/svg" xmlns:xlink="http://www.w3.org/1999/xlink">
	<desc>
			Created with Pixso.
	</desc>
	<defs/>
	<path id="Vector" d="M32.4 19.76L32.4 20.01C32.26 20.01 32.05 20.12 31.76 20.34C31.59 20.34 31.4 20.47 31.17 20.72L31.04 20.72L31.04 20.47C30.79 20.72 30.59 20.84 30.45 20.84L30.58 21.09C28.8 22.34 27.8 22.97 27.57 22.97L27.7 23.22C27.67 23.39 27.47 23.54 27.1 23.68L27.1 23.55L27.19 23.34L26.98 23.34L26.72 23.43C26.84 23.76 26.96 23.93 27.1 23.93L27.19 23.93C27.92 23.45 28.37 23.22 28.54 23.22L28.54 23.34C28.01 24.12 27.4 24.51 26.72 24.51C26.75 24.68 26.84 24.76 26.98 24.76C27.12 24.76 27.51 24.6 28.16 24.26L28.29 24.51L26.38 25.93L26.47 26.18C26.47 26.26 26.16 26.58 25.54 27.14L25.62 27.14L26.13 27.01C26.27 27.1 26.43 27.14 26.6 27.14C26.68 26.99 26.73 26.81 26.72 26.64L27.1 26.64L27.1 26.76L26.85 27.14L26.85 27.22L27.31 27.22L27.31 27.47C26.75 27.58 24.22 29.32 19.73 32.68C16.29 35.66 13.41 38.51 11.09 41.23C7.87 45.12 6.26 48.88 6.26 52.49L6.39 52.95C6.39 53.03 6.35 53.07 6.26 53.07C6.63 55.44 7.03 56.62 7.45 56.62C8.64 56.62 10.85 54.96 14.1 51.66C15.77 49.15 16.6 47.53 16.6 46.78L16.6 42.4L17.32 41.57C17.24 41.14 17.2 40.71 17.19 40.27L17.45 40.15C17.53 40.15 17.57 40.19 17.57 40.27L17.83 40.15L18.29 40.27L18.89 39.94L19.14 39.94C20.1 40.52 20.58 40.87 20.58 40.98C21.57 41.62 22.13 42.05 22.27 42.27L22.87 42.19C23.18 42.19 23.42 42.77 23.59 43.94L23.46 44.44C23.46 44.91 23.42 46.21 23.33 48.32C23.67 50.77 24.2 53.02 24.9 55.07C24.76 55.16 24.65 55.2 24.56 55.2C24.68 55.53 24.87 55.7 25.15 55.7L25.15 56.03C24.99 56.03 24.9 56.08 24.9 56.16C25.1 56.71 25.34 57.27 25.62 57.83L25.41 57.95C25.1 57.31 24.9 56.99 24.82 56.99L24.69 56.99C24.69 57.16 25.08 57.99 25.88 59.49L25.88 59.58C25.88 60.13 25.24 60.41 23.97 60.41C23.97 60.58 23.69 60.66 23.12 60.66C22.08 60.44 21.27 59.93 20.71 59.12C20.26 58.62 19.65 57.48 18.89 55.7C15.39 59.01 12.86 60.66 11.3 60.66L9.86 60.66C9.05 60.66 8.09 60.3 6.98 59.58C3.91 58.47 1.97 57.09 1.18 55.45C0.64 54 0.38 52.7 0.38 51.53C0.43 51.53 0.46 51.49 0.46 51.4C0.35 51.4 0.19 51.13 0 50.57C0.16 47.46 0.56 45.72 1.18 45.36L1.56 45.36C1.79 44.91 1.9 44.61 1.9 44.44L1.69 44.53C1.58 44.53 1.45 44.41 1.31 44.19C1.56 44.19 1.93 43.55 2.41 42.27C2.52 42.27 2.76 41.97 3.13 41.36L3.38 41.44C3.52 41.44 4.53 40.15 6.39 37.56L6.39 37.44C5.8 38.13 5.39 38.48 5.16 38.48L5.04 38.27C8.17 34.35 11.67 30.99 15.54 28.18C16.73 27.24 17.97 26.38 19.27 25.6C19.35 25.73 19.4 25.85 19.4 25.93L19.14 26.39L20.24 25.68L20.45 25.68L20.45 25.93L20.58 25.93L20.58 25.68C20.5 25.68 20.45 25.65 20.45 25.6L22.74 24.05C23.48 23.5 24.41 23.02 25.54 22.63L25.54 22.51L25.41 22.51C24.87 22.73 24.55 22.84 24.44 22.84L24.44 22.39C24.92 22.39 25.56 22.02 26.38 21.3L26.6 21.3L26.6 21.68L26.47 21.89L26.6 21.89C26.96 21.66 27.24 21.55 27.44 21.55L27.7 21.68C29.02 21.04 29.83 20.72 30.11 20.72C31.13 20.08 31.89 19.76 32.4 19.76ZM28.04 20.84L28.04 20.97C28.04 21.08 27.72 21.27 27.1 21.55L26.72 21.55L26.72 21.18C26.92 21.18 27.36 21.06 28.04 20.84ZM27.1 22.01L27.19 22.01C27.36 22.01 27.44 21.94 27.44 21.8L27.31 21.8C27.17 21.8 27.1 21.87 27.1 22.01ZM26.13 21.89L26 22.14L26 22.26L26.13 22.26C26.13 22.09 26.21 22.01 26.38 22.01L26.38 21.89L26.13 21.89ZM23.25 23.09L23.59 23.09L23.59 23.34L23.25 23.34L23.25 23.09ZM22.61 23.43C22.78 23.46 22.87 23.54 22.87 23.68C22.11 24.18 21.5 24.65 21.05 25.1C20.93 25.1 20.5 25.33 19.73 25.8L19.61 25.8L19.61 25.6C20.23 25.12 20.64 24.89 20.83 24.89C20.83 24.61 21.43 24.12 22.61 23.43ZM26 24.39L25.88 24.39L25.54 24.14L25.54 24.64C25.37 24.72 25.24 24.76 25.15 24.76L25.15 24.89L25.41 24.89C26.26 24.39 26.74 24.14 26.85 24.14L26.85 23.93C26.74 23.93 26.45 24.08 26 24.39ZM22.02 26.89L22.15 26.89C22.32 26.89 22.4 26.8 22.4 26.64L22.4 26.51C22.29 26.51 22.16 26.64 22.02 26.89ZM20.83 27.47L20.83 27.6C20.92 27.6 21.03 27.64 21.17 27.72L21.17 27.47L20.83 27.47L20.83 27.47ZM19.86 27.85L19.86 27.93L20.12 27.93L20.12 28.18L19.86 28.18L19.86 28.31L19.99 28.31C20.13 28.22 20.29 28.18 20.45 28.18C20.45 28.07 20.3 27.96 19.99 27.85L19.86 27.85L19.86 27.85ZM16.01 28.56C16.01 28.78 15.85 28.89 15.54 28.89L15.54 29.02L15.75 29.02L16.13 28.56L16.01 28.56ZM19.27 28.64L19.14 28.89L19.14 29.02L19.27 29.02C19.27 28.85 19.35 28.76 19.52 28.76L19.52 28.64L19.27 28.64ZM19.86 30.89C19.89 31.06 19.97 31.14 20.12 31.14C20.23 30.84 20.34 30.68 20.45 30.68L20.58 30.68C20.78 30.82 20.93 30.89 21.05 30.89C21.41 30.75 21.62 30.6 21.68 30.43C21.51 30.43 21.43 30.35 21.43 30.18L21.43 30.1C21.62 30.1 21.91 29.93 22.27 29.6L22.4 29.6L22.4 29.72L22.27 29.97L22.74 29.97C22.74 29.89 22.78 29.77 22.87 29.6L22.53 29.6L22.53 29.39C22.59 29.14 22.9 28.97 23.46 28.89C23.46 28.72 23.39 28.64 23.25 28.64C22.68 28.67 21.55 29.42 19.86 30.89ZM17.83 29.72L17.83 29.85C17.86 30.02 17.93 30.1 18.04 30.1L18.17 29.85L18.17 29.72L17.83 29.72ZM21.81 30.31L21.81 30.43L21.89 30.43C22.06 30.43 22.15 30.35 22.15 30.18L22.15 30.1L22.02 30.1C21.88 30.1 21.81 30.17 21.81 30.31ZM15.75 31.02C15.75 31.1 15.72 31.23 15.67 31.39C15.78 31.39 15.93 31.47 16.13 31.64L16.39 31.27L16.39 31.14L16.13 31.27L15.75 31.02ZM15.16 32.1L15.29 32.1C15.6 31.99 15.75 31.86 15.75 31.72L15.54 31.72C15.43 31.72 15.3 31.85 15.16 32.1ZM13.97 32.81L13.97 33.06L14.31 33.06L14.31 32.81L13.97 32.81ZM13.46 33.27L13.46 33.64C13.63 33.64 13.72 33.56 13.72 33.39L13.72 33.27L13.46 33.27L13.46 33.27ZM13 33.64C13 33.73 12.96 33.84 12.87 33.98L13 33.98L13.25 33.64L13 33.64ZM3.85 40.27L3.98 40.52L3.72 40.65L3.6 40.65L3.6 40.52C3.62 40.36 3.71 40.27 3.85 40.27L3.85 40.27ZM2.16 43.36L2.16 43.48C2.27 43.48 2.4 43.36 2.54 43.11L2.41 43.11C2.24 43.14 2.16 43.22 2.16 43.36ZM61.37 22.64L61.5 22.89L61.12 23.8L61.12 23.93L61.24 23.93L61.24 23.68L61.5 23.68L61.5 23.93L60.06 26.6L60.06 26.72L60.18 26.72C61 25.19 61.61 24.26 62.01 23.93L62.01 24.18C60.82 26.19 59.69 28.24 58.62 30.31L58.62 30.43L58.74 30.43C58.8 30.1 58.94 29.93 59.17 29.93L59.29 29.93L59.29 30.18L59 30.56L59 30.81L59.55 30.18L59.8 30.31C59.8 30.2 59.93 30.07 60.18 29.93L60.18 30.06C60.18 30.31 60.06 30.64 59.8 31.06C59.89 31.23 59.93 31.41 59.93 31.6L59.8 31.6L59.55 31.47L59.42 31.73C59.68 31.73 59.8 31.81 59.8 31.97C59.32 32.17 59.05 32.42 59 32.73C59.2 32.75 59.29 32.84 59.29 32.98L59.29 33.1C59.29 33.29 58.77 33.85 57.73 34.77L57.73 34.89L57.98 34.77C58.15 34.8 58.24 34.88 58.24 35.02C58.1 35.02 57.8 35.57 57.35 36.69C56.98 37.1 56.67 37.92 56.42 39.15L55.91 40.02L56.03 40.02L56.29 39.9C56.29 39.98 56.33 40.02 56.42 40.02L54.85 43.23C54.48 43.73 54.23 43.98 54.09 43.98L54.21 44.23C54.21 44.68 53.86 45.19 53.15 45.78L53.28 46.03L51.88 48.74L51.5 48.74L51.63 49.36C50.56 50.06 49.99 50.78 49.93 51.53C49.93 51.81 49.02 53.13 47.18 55.49C47.27 55.49 47.53 55.32 47.99 54.99L47.99 55.12C46.88 56.37 45.66 57.53 44.34 58.58C44.34 58.99 43.74 59.42 42.52 59.87C41.62 60.45 40.76 60.74 39.94 60.74C38.19 60.74 35.72 59.76 32.52 57.78C30.27 55.39 29.14 52.54 29.14 49.24C29.14 45.68 30 41.63 31.72 37.1C32.71 35.38 33.4 34.52 33.8 34.52C34.16 34.52 34.35 34.39 34.35 34.14L36.55 34.77C37.23 35.38 37.57 36.02 37.57 36.69C36.97 37.6 36.68 38.24 36.68 38.6L36.8 38.6C36.63 41.36 36.46 43.19 36.29 44.11C36.47 44.1 36.65 44.15 36.8 44.23C36.44 46.01 36.18 47 36.04 47.19L36.17 47.44L36.17 48.19L35.87 48.19L35.87 47.07L35.74 47.07C35.74 47.37 35.66 47.97 35.49 48.86L35.74 48.86L35.74 48.61L36.04 48.61L36.04 48.74C35.67 48.99 35.49 49.19 35.49 49.36L35.49 49.74L35.62 49.74L35.62 49.24L35.87 49.24L35.87 51.16C35.87 51.35 35.93 51.52 36.04 51.66L35.87 51.91C35.98 52.07 36.04 52.21 36.04 52.32C35.93 52.32 35.87 52.36 35.87 52.45C36.01 52.45 36.28 53.34 36.68 55.12C37.02 55.59 37.18 55.98 37.18 56.28L37.69 56.28C39.39 55.31 41.43 53.25 43.83 50.11L47.18 44.65L54.59 30.93C57.39 25.93 59.04 23.37 59.55 23.26C59.55 23.34 59.59 23.39 59.68 23.39L59.55 23.68L59.55 23.8L60.31 23.14C60.47 23.22 60.64 23.27 60.82 23.26C60.82 23.01 61 22.8 61.37 22.64ZM58.87 24.43L58.87 24.8L59 24.8C59.14 24.8 59.28 24.68 59.42 24.43L59.42 24.05L59.29 24.05C59.15 24.05 59.01 24.18 58.87 24.43ZM58.49 25.18L58.49 25.6C58.63 25.6 58.76 25.46 58.87 25.18L58.87 25.05C58.7 25.14 58.58 25.18 58.49 25.18ZM57.22 33.64C57.22 33.82 57.16 34 57.05 34.14L57.22 34.14L57.35 33.89L57.35 33.64L57.22 33.64ZM37.06 41.94L37.31 41.94L37.31 42.07L36.93 43.86L36.68 43.86C36.68 43.58 36.8 42.94 37.06 41.94L37.06 41.94ZM36.04 45.53L35.87 45.78L35.87 46.4L36.04 46.4C36.04 46.18 36.13 45.93 36.3 45.65L36.04 45.53ZM53.15 46.94L53.28 46.94C53.03 47.44 52.9 47.74 52.9 47.82L52.65 47.82L52.65 47.57C52.87 47.15 53.04 46.94 53.15 46.94ZM52.26 48.19L52.52 48.19L52.52 48.49C52.52 48.65 52.43 48.74 52.26 48.74L52.14 48.74C52.22 48.57 52.26 48.39 52.26 48.19ZM46.55 56.16L46.67 56.16C46.84 56.16 46.93 56.06 46.93 55.87L46.93 55.74C46.81 55.74 46.69 55.88 46.54 56.16L46.55 56.16ZM46.16 56.41C46.16 56.58 46.08 56.66 45.91 56.66L45.91 56.78L46.16 56.78L46.42 56.41L46.16 56.41ZM75.56 0C75.64 0.13 75.69 0.29 75.69 0.45L75.9 0.33L75.9 0.45C75.76 0.76 75.69 1.04 75.69 1.29L75.77 1.29L76.36 0.91L76.49 1.16C75.39 3.94 74.84 5.46 74.84 5.71L74.71 5.71L74.84 5.92L73.65 8.63L73.99 8.63C74.08 8.07 74.25 7.79 74.5 7.79C74.5 7.9 74.61 8.03 74.84 8.17C74.92 8 74.97 7.88 74.97 7.79L75.09 7.79C75.23 7.82 75.31 7.9 75.31 8.04C74.97 8.65 74.73 8.96 74.59 8.96L74.59 9.09C74.76 9.28 74.84 9.43 74.84 9.54L74.97 9.54C75.08 9.54 75.23 9.31 75.43 8.83L75.43 8.25C75.55 8.25 75.7 8.06 75.9 7.67L75.77 7.46L76.75 5.12C76.75 4.98 76.59 4.83 76.28 4.66C76.14 4.66 75.97 4.82 75.77 5.12C75.88 5.12 76.08 5.32 76.36 5.71C75.83 6.43 75.47 6.93 75.31 7.21L75.09 7.21L75.09 7L74.84 7C74.84 7.44 74.76 7.67 74.58 7.67C74.44 7.67 74.37 7.6 74.37 7.46C74.66 7.01 74.9 6.43 75.09 5.71C75.8 3.93 76.15 3 76.15 2.91L76.49 2.66L76.62 2.66C76.53 3 76.49 3.28 76.49 3.5C76.75 3.5 76.87 3.65 76.87 3.96L76.62 4.08L76.75 4.75L76.96 4.75C76.99 4.36 77.27 3.9 77.8 3.37C77.8 3.46 77.85 3.5 77.93 3.5C77.83 3.79 77.62 4.03 77.34 4.16C77.34 4.25 77.38 4.29 77.47 4.29C77.21 5.51 76.93 6.57 76.62 7.46L76.87 7.58C77.15 6.47 77.47 5.8 77.8 5.58C77.8 5.67 77.85 5.71 77.93 5.71C77.85 6.57 77.72 7.11 77.55 7.33L77.93 7.33C77.93 7.42 77.89 7.46 77.8 7.46L77.93 8.04C76.64 11.72 75.41 15.42 74.25 19.13C74.87 19.13 75.18 19.16 75.18 19.22L75.43 19.13C76.93 19.14 78.43 19.06 79.92 18.88C80.09 18.97 80.22 19.01 80.3 19.01C80.42 18.87 81.36 18.74 83.14 18.63C83.28 18.72 83.4 18.76 83.48 18.76C83.64 18.67 83.81 18.63 83.99 18.63C83.99 18.8 84.06 18.88 84.2 18.88C84.23 18.72 84.31 18.63 84.46 18.63L85.51 18.63L86.11 18.55C86.11 18.61 86.15 18.63 86.23 18.63C86.23 18.52 86.94 18.37 88.35 18.17L88.35 18.3L91.32 17.84C91.46 17.92 91.62 17.97 91.78 17.97C91.81 17.8 91.9 17.71 92.04 17.71L92.16 17.71C92.33 17.71 92.49 17.76 92.63 17.84C92.77 17.76 92.93 17.71 93.1 17.71L93.35 17.84C93.35 17.73 93.46 17.6 93.69 17.46C93.83 17.55 93.94 17.59 94.03 17.59C94.06 17.45 94.14 17.38 94.28 17.38L94.62 17.38L94.54 17.59L94.87 17.59C94.87 17.37 95.71 17.13 97.37 16.88C97.51 16.97 97.67 17.01 97.84 17.01C98.09 17.01 98.45 16.85 98.9 16.55C98.9 16.72 99.01 16.8 99.24 16.8C99.46 16.8 99.75 16.67 100.09 16.42C100.25 16.42 100.41 16.46 100.55 16.55C100.72 16.46 100.85 16.42 100.93 16.42L101.14 16.55C101.82 16.19 102.61 15.92 103.52 15.76C103.52 15.67 103.6 15.63 103.77 15.63C103.8 15.77 103.87 15.84 103.98 15.84C104.24 15.84 104.76 15.69 105.55 15.38C105.69 15.46 105.85 15.51 106.02 15.51L106.27 15.51L106.27 15.38C106.18 15.24 106.14 15.13 106.14 15.05L106.27 15.05C106.43 15.05 106.59 15.09 106.73 15.17L110.89 14.09L111.01 14.09L110.89 13.88L110.89 13.75C111.03 13.78 111.1 13.87 111.1 14L111.35 13.88L111.61 14C113.35 13.44 115.11 12.97 116.9 12.59L117.28 12.59L117.28 12.25L117.75 12.25C118.54 12.11 118.93 11.95 118.93 11.75L119.27 12C119.7 11.78 120.33 11.54 121.18 11.29L121.18 11.17L121.77 11.29C123.1 10.82 124.13 10.56 124.86 10.5C124.86 10.42 124.95 10.38 125.12 10.38L125.33 10.5L126.52 10L126.77 10L127.11 10.25L127.24 10.25L127.11 10C127.53 9.86 127.93 9.67 128.29 9.42L128.63 9.42C128.63 9.31 128.76 9.2 129.01 9.09C129.01 9.2 129.13 9.31 129.35 9.42C129.35 9.28 129.48 9.21 129.73 9.21L130.33 9.33C130.33 9.17 130.4 9.08 130.54 9.08C130.71 9.17 130.84 9.21 130.92 9.21L131.51 8.75L131.6 8.75L131.51 8.96L131.51 9.09L131.6 9.09C132.92 8.67 133.8 8.32 134.23 8.04L134.82 8.17C134.85 8 134.93 7.92 135.07 7.92L135.28 8.04L135.41 8.04L135.41 7.92L135.16 7.92L135.16 7.67L136 7.79L136.13 7.79L136 7.58L136 7.46L137.06 7.08L137.06 7.21L136.94 7.46L137.53 7.46C137.78 7.24 138.77 6.96 140.49 6.62C140.52 6.51 141.55 6.21 143.59 5.71C143.61 5.54 143.7 5.46 143.84 5.46L144.05 5.58C144.45 5.42 145.96 5.03 148.58 4.42C148.58 4.33 148.61 4.29 148.67 4.29L149.64 4.29L150.24 4.42L150.24 3.96C150.35 3.96 150.81 3.83 151.63 3.58L152.1 3.58L152.1 3.71L152.01 3.96L152.1 3.96C153.09 3.65 153.72 3.5 154 3.5L154 3.58C153.92 3.8 152.47 4.23 149.64 4.87L141.09 7.21L141.09 7.46L141.21 7.46C141.95 7.21 142.39 7.08 142.53 7.08L142.53 7.21L142.99 7C143.1 7.05 143.21 7.08 143.33 7.08C143.73 6.89 143.92 6.74 143.92 6.62L144.52 6.75C144.91 6.44 145.2 6.29 145.37 6.29L145.96 6.42C145.99 6.25 146.07 6.17 146.21 6.17L146.42 6.29C146.42 6.04 146.95 5.85 147.99 5.71L148.2 5.71L148.2 6.04L148.58 6.04L148.46 5.46L149.18 5.46L149.85 5L149.98 5L150.24 5.12C150.26 4.96 150.33 4.87 150.45 4.87L150.57 4.87C150.57 5.07 150.66 5.26 150.83 5.46L150.45 5.92C150.53 5.92 150.57 5.96 150.57 6.04L150.45 6.04C150.31 6.04 150.24 5.93 150.24 5.71C150.07 5.74 149.98 5.8 149.98 5.92C150.15 6 150.28 6.04 150.36 6.04C150.36 6.32 149.8 6.47 148.67 6.5C148.75 6.36 148.8 6.25 148.8 6.17L148.67 6.17C148.56 6.25 148.33 6.29 147.99 6.29C147.99 6.43 148.1 6.5 148.33 6.5L148.33 6.75L147.74 6.88L147.61 6.62C147.61 6.54 147.65 6.5 147.74 6.5L147.61 6.29L147.61 6.17L147.99 6.17L147.99 6.04C147.91 6.04 147.78 6 147.61 5.92C147.38 6.08 147.09 6.17 146.8 6.17L146.8 6.42C146.97 6.42 147.2 6.53 147.48 6.75L147.61 6.75L147.4 7.08C147.45 7.25 147.48 7.38 147.48 7.46C146.58 7.68 145.99 7.88 145.7 8.04C145.56 8.04 145.49 7.96 145.49 7.79C146.68 7.43 147.27 7.19 147.27 7.08L146.8 7.08L146.8 6.87L147.02 6.87L147.02 6.62L146.89 6.62C146.38 7.18 145.83 7.46 145.24 7.46C145.15 7.29 145.11 7.17 145.11 7.08L145.03 7.08L144.64 7.33L144.43 7.21L144.31 7.46L144.64 7.46L144.64 7.67C143.23 8.08 142.53 8.36 142.53 8.5L142.65 8.5L143.46 8.38L143.46 8.5C143.46 8.64 142.82 8.88 141.55 9.21C141.55 9.29 141.48 9.33 141.34 9.33C141.09 9.33 140.96 9.17 140.96 8.83L140.75 8.83C140.41 9.39 140.08 9.67 139.77 9.67L139.77 9.54C139.46 9.71 139.19 9.79 138.97 9.79L138.97 9.54C139.56 9.4 139.92 9.33 140.03 9.33L139.9 9.08C135.55 10.25 133.35 10.92 133.29 11.09C135.06 10.72 136.8 10.24 138.5 9.67C138.5 9.75 138.86 9.99 139.56 10.38C139.28 10.52 138.8 10.67 138.12 10.84L138.12 10.71L137.91 10.84L137.44 10.84C137.56 10.56 138.07 10.41 138.97 10.38C138.97 10.21 138.88 10.13 138.71 10.13L138.12 10.13C137.39 10.38 136.92 10.5 136.72 10.5L136.47 10.5C136.47 10.75 135.83 10.98 134.56 11.17C134.56 11.34 134.34 11.42 133.89 11.42L133.97 11.67C134.34 11.5 134.86 11.42 135.54 11.42L135.75 11.42C135.75 11.11 135.99 10.96 136.47 10.96L137.06 10.96L137.06 11.17L136.85 11.17C136.6 11.17 136.12 11.34 135.41 11.67C134.79 11.67 133.8 11.98 132.45 12.59C131.66 12.59 131.26 12.7 131.26 12.92C131.15 12.87 131.04 12.84 130.92 12.84L130.41 13.05C130.41 12.91 130.34 12.84 130.2 12.84C130.2 13.12 129.76 13.31 128.89 13.42L128.63 13.3L128.55 13.3L128.55 13.42L128.76 13.42C128.76 13.56 128.69 13.63 128.55 13.63L127.96 13.5C127.93 13.62 127.53 13.85 126.77 14.21C126.77 14.13 126.73 14.09 126.64 14.09C126.56 14.25 126.52 14.38 126.52 14.46L126.39 14.46C126.39 14.3 126.35 14.21 126.26 14.21L126.05 14.34L125.8 14.21C125.71 14.21 125.51 14.41 125.2 14.8C125.2 14.66 125.13 14.59 124.99 14.59L124.61 14.59C124.3 14.81 123.59 15.03 122.49 15.26C122.41 14.95 122.25 14.8 122.03 14.8C121.86 14.88 121.73 14.92 121.64 14.92L121.64 15.05C121.98 15.05 122.15 15.12 122.15 15.26C121.67 15.45 121.43 15.62 121.43 15.76L121.56 15.76L121.43 15.96L121.43 16.09C124.26 15.4 126.5 14.73 128.17 14.09C128.25 14.09 128.29 14.13 128.29 14.21C128.92 13.91 129.35 13.75 129.61 13.75L129.82 13.88C129.82 13.71 131.17 13.28 133.89 12.59C143.15 9.95 148.51 8.47 149.98 8.17L149.98 8.38L136.26 12.25C135.13 12.56 134.49 12.78 134.35 12.92C133.99 12.92 132.05 13.43 128.55 14.46C128.29 14.6 126.78 15.03 124.02 15.76C123.9 15.76 123.51 15.94 122.83 16.3C122.72 16.25 122.61 16.22 122.49 16.21C122.41 16.35 122.36 16.47 122.36 16.55L121.77 16.42L121.64 16.42L121.64 16.55L121.9 16.55L121.9 16.8C119.92 17.16 118.82 17.51 118.6 17.84C118.43 17.76 118.3 17.71 118.21 17.71C117.9 17.99 116.56 18.42 114.19 19.01C114.19 19.09 114.15 19.13 114.06 19.13C113.92 19.05 113.81 19.01 113.72 19.01L113.6 19.22L113 19.13C112.75 19.13 112.48 19.29 112.2 19.59C112.03 19.51 111.9 19.47 111.82 19.47L111.69 19.72L111.48 19.59L111.22 19.59C111.22 19.81 111.15 19.93 111.01 19.93L110.76 19.93L110.17 19.8C110.17 19.97 109.97 20.13 109.57 20.3L108.85 20.18C107.81 20.87 103.23 21.95 95.13 23.43C93.15 23.82 90.58 24.21 87.42 24.59L87.42 24.47C82.82 25.19 77.99 25.55 72.93 25.55L72.72 25.55C72.44 25.83 71.65 28.58 70.35 33.81C66.54 45.62 63.49 53.86 61.2 58.53C61 59.23 60.5 59.9 59.68 60.54L59.42 60.54C58.63 60.54 58.24 60.45 58.24 60.29L58.02 60.41L57.9 60.41L55.78 59.62C55.69 59.62 55.57 59.65 55.4 59.7C54.83 59.7 54.28 59.31 53.75 58.53C55.64 54.62 57.02 51.43 57.9 48.99L60.01 43.48C60.01 43.29 60.45 42.09 61.33 39.9C62.43 36.65 63.57 32.71 64.76 28.1C64.9 28.1 65.22 27.21 65.73 25.43C61.92 24.79 59.39 24.01 58.15 23.09C57.76 23.09 56.68 22.32 54.93 20.76L54.93 20.38L55.19 20.38L55.19 20.18C54.79 19.59 54.55 18.86 54.47 17.97C54.38 17.97 54.34 17.92 54.34 17.84L54.47 17.59C54.38 17.45 54.34 17.29 54.34 17.13L54.47 17.13L54.34 16.88L54.34 16.8C54.42 15.63 54.66 15.05 55.06 15.05L60.61 17.59L64.17 18.55L64.42 18.42C64.87 18.56 65.86 18.76 67.39 19.01C67.78 18.01 68.18 16.76 68.57 15.26C69.09 13.16 69.76 11.1 70.56 9.09C70.67 8.47 70.87 8.17 71.16 8.17C71.16 8.08 71.13 8.04 71.07 8.04C71.07 7.29 71.38 6.62 72 6.04L71.87 5.83C72.41 5.44 72.76 5.25 72.93 5.25C72.93 5 72.91 4.87 72.85 4.87C72.85 4.71 72.96 4.25 73.19 3.5L73.78 3.5C74.29 1.91 74.88 0.75 75.56 0ZM76.62 1.95L76.87 1.95L76.87 2.33L76.36 2.33L76.36 2.21C76.39 2.04 76.48 1.95 76.62 1.95ZM155.57 2.54L155.57 2.79C155.01 2.93 154.68 3 154.6 3L154.47 2.79C154.84 2.62 155.21 2.54 155.57 2.54ZM156.17 2.91L156.5 2.91L156.5 3.12L155.91 3.12C155.94 2.98 156.02 2.91 156.17 2.91L156.17 2.91ZM155.78 3.12C155.78 3.32 155.32 3.47 154.39 3.58L154.26 3.37C155.05 3.21 155.56 3.12 155.78 3.12ZM157.44 3.25L157.69 3.25C157.69 3.44 157.34 3.55 156.63 3.58L156.63 3.37L157.44 3.25ZM150.57 4.16L150.57 4.29L150.7 4.29C151.32 4.21 151.63 4.1 151.63 3.96L151.5 3.96C151.45 3.96 151.14 4.02 150.57 4.16ZM155.19 3.83L155.19 4.08L154.98 3.96C154.98 4.1 154.89 4.17 154.73 4.17L154.6 4.17C154.46 4.17 154.39 4.1 154.39 3.96L155.19 3.83ZM154.39 4.08L154.13 4.42C154.22 4.55 154.26 4.67 154.26 4.75L154.13 4.75L153.79 4.54L153.41 4.54L153.54 4.75L153.54 4.87L153.28 4.87C153.17 4.87 153.06 4.76 152.95 4.54C153.12 4.37 153.6 4.22 154.39 4.08L154.39 4.08ZM152.61 4.42L152.82 5L152.48 5.25L152.35 5.25C152.18 5.25 152.1 5.17 152.1 5L152.61 5L152.61 4.87L152.1 4.87C152.1 5.04 152.03 5.12 151.89 5.12C151.72 5.12 151.63 5.04 151.63 4.87C151.63 4.73 151.96 4.58 152.61 4.42ZM150.83 4.87L151.42 4.87C151.42 5.18 151.49 5.33 151.63 5.33L152.61 5.33L152.61 5.46C152.61 5.62 152.24 5.75 151.5 5.83L151.5 5.71L151.63 5.46C151.21 5.46 150.94 5.3 150.83 5L150.83 4.87ZM150.24 5.25L150.11 5.46L150.11 5.58C150.25 5.5 150.41 5.46 150.57 5.46L150.57 5.33C150.46 5.32 150.34 5.3 150.24 5.25L150.24 5.25ZM75.69 5.33L75.56 5.92C75.67 5.92 75.83 5.76 76.03 5.46L75.77 5.33L75.69 5.33ZM148.92 5.71L148.92 5.92C149.09 5.92 149.18 6 149.18 6.17L149.52 6.17C149.68 6.17 149.77 6.08 149.77 5.92C149.6 5.92 149.52 5.85 149.52 5.71L149.85 5.71L149.85 5.46C149.63 5.62 149.32 5.71 148.92 5.71ZM151.42 6.04L151.63 6.04L151.63 6.29L151.17 6.29C151.2 6.12 151.28 6.04 151.42 6.04ZM75.31 6.29C75.31 6.4 75.23 6.56 75.09 6.75L75.09 6.88C75.21 6.88 75.36 6.72 75.56 6.42L75.31 6.29L75.31 6.29ZM143.59 7.21C143.67 7.21 143.78 7.25 143.92 7.33L144.05 7.33L144.05 7.21C143.91 7.21 143.84 7.14 143.84 7C143.67 7.03 143.59 7.1 143.59 7.21ZM137.53 7L137.66 7L137.66 7.08C137.66 7.25 137.59 7.33 137.44 7.33L137.32 7.08L137.53 7ZM140.37 7.46C140.45 7.6 140.49 7.75 140.49 7.92L140.62 7.92C140.62 7.78 140.73 7.58 140.96 7.33L140.75 7.33C140.58 7.42 140.45 7.46 140.37 7.46L140.37 7.46ZM143.12 7.33L143.25 7.58C143.39 7.5 143.5 7.46 143.59 7.46L143.59 7.33L143.12 7.33ZM143.84 7.67L143.92 7.67C144.09 7.67 144.18 7.6 144.18 7.46L144.05 7.46C143.91 7.49 143.84 7.56 143.84 7.67ZM149.05 7.33L149.39 7.33L149.39 7.58L149.05 7.58L149.05 7.33L149.05 7.33ZM76.15 8.83C76.38 8.83 76.58 8.44 76.75 7.67L76.62 7.67C76.39 7.67 76.24 8.06 76.15 8.83ZM138.59 8.17L140.03 7.79L140.03 7.67L139.9 7.67C139.03 7.78 138.59 7.94 138.59 8.17ZM142.53 8.04L142.74 8.04C142.91 7.96 143.03 7.92 143.12 7.92L143.12 7.79L142.74 7.79C142.6 7.82 142.53 7.9 142.53 8.04L142.53 8.04ZM148.2 7.67L148.33 7.92L147.99 8.17L147.14 8.17C147.14 8.03 147.5 7.86 148.2 7.67ZM144.77 7.92L145.24 7.92C145.24 8.08 145.17 8.17 145.03 8.17L144.77 8.17L144.77 7.92L144.77 7.92ZM137.53 8.25L137.53 8.5L137.66 8.5L137.91 8.37C138.05 8.46 138.21 8.5 138.38 8.5L138.5 8.5C138.5 8.39 138.35 8.28 138.04 8.17C138.04 8.22 138 8.25 137.91 8.25L137.91 8.17C137.79 8.21 137.66 8.24 137.53 8.25L137.53 8.25ZM146.08 8.17L146.21 8.17C146.35 8.17 146.42 8.24 146.42 8.37L146.42 8.5L146.08 8.5L146.08 8.17ZM130.2 10.38L130.2 10.5L130.54 10.5C130.82 10.33 131.34 10.17 132.11 10C132.11 10.11 132.22 10.24 132.45 10.38L132.57 10.38C132.4 10.18 132.32 10.06 132.32 10C132.57 9.86 132.81 9.79 133.04 9.79L133.63 9.92L133.5 9.67L137.19 8.62L137.19 8.37L130.2 10.38ZM144.9 8.5L145.37 8.5C145.37 8.67 145.28 8.75 145.11 8.75L144.9 8.75L144.9 8.5ZM138.5 8.75L138.5 8.96C138.76 8.96 138.95 9 139.1 9.08L139.1 8.83L138.5 8.75ZM70.69 9.33L70.69 9.92L70.82 9.92L70.94 9.33L70.69 9.33ZM137.06 9.33C137.09 9.47 137.17 9.54 137.32 9.54L137.44 9.54C137.44 9.4 137.36 9.33 137.19 9.33L137.06 9.33ZM129.48 9.42L129.48 9.54L129.95 9.54L129.95 9.42L129.48 9.42ZM141.68 9.42L142.06 9.42C142.06 9.58 141.98 9.67 141.81 9.67L141.68 9.67L141.68 9.42ZM74.71 9.92L74.71 10.13C74.88 10.04 75.01 10 75.09 10L75.09 9.67L74.97 9.67C74.8 9.7 74.71 9.78 74.71 9.92ZM73.31 9.79L73.31 10.13C73.46 10.13 73.53 10.06 73.53 9.92L73.53 9.79L73.31 9.79ZM141.09 9.67L141.09 9.92L140.49 10C140.49 9.83 140.69 9.72 141.09 9.67ZM139.69 10L140.28 10L140.28 10.25C140 10.33 139.83 10.38 139.77 10.38L139.69 10.13L139.69 10ZM128.17 10.96L128.17 11.09L128.42 11.09C128.56 11.09 128.8 11 129.14 10.83C129.28 10.92 129.39 10.96 129.48 10.96L129.61 10.71L129.35 10.71C129.16 10.71 128.76 10.79 128.17 10.96L128.17 10.96ZM124.4 10.83L124.4 10.96L124.86 10.96L124.86 10.83L124.4 10.83ZM126.77 11.54L127.11 11.54L127.45 11.29C127.62 11.38 127.74 11.42 127.83 11.42L127.96 11.17C127.79 11.17 127.7 11.14 127.7 11.09C127.08 11.25 126.77 11.4 126.77 11.54ZM131.6 11.67L131.73 11.67C131.89 11.67 131.98 11.59 131.98 11.42L131.85 11.42C131.68 11.45 131.6 11.53 131.6 11.67ZM133.17 11.67C133.17 11.59 133.12 11.54 133.04 11.54C133.04 11.68 132.21 11.95 130.54 12.34L130.54 12.59L130.92 12.59C131.12 12.45 132.06 12.14 133.76 11.67L133.76 11.42L133.5 11.42L133.17 11.67ZM127.57 12.71L127.96 12.71L127.96 12.46L127.83 12.46C127.66 12.49 127.57 12.57 127.57 12.71ZM128.89 12.71L128.89 12.92L130.07 12.84L130.07 12.71C129.99 12.71 129.88 12.67 129.73 12.59C129.46 12.66 129.17 12.71 128.89 12.71ZM73.53 12.84L73.53 13.17L73.91 13.17L73.91 12.84L73.53 12.84ZM125.8 13.63L125.8 13.75L126.05 13.75C126.33 13.75 127.19 13.52 128.63 13.04L128.63 12.92L128.29 12.92C127.84 13.17 127.01 13.41 125.8 13.63L125.8 13.63ZM125.58 13.29L125.8 13.29C125.97 13.21 126.09 13.17 126.18 13.17L126.18 13.04L125.8 13.04C125.65 13.07 125.58 13.16 125.58 13.29ZM122.83 14L122.83 14.21L123.68 14.09L123.55 13.88L122.83 14ZM122.24 14.09L122.24 14.21L122.75 14.21L122.62 14C122.5 14.05 122.37 14.08 122.24 14.09ZM124.74 14.21L124.99 14.21C125.13 14.21 125.2 14.14 125.2 14L124.99 14C124.82 14 124.74 14.07 124.74 14.21ZM123.34 14.34L123.34 14.59C123.59 14.59 123.79 14.62 123.93 14.67C123.93 14.45 124.16 14.34 124.61 14.34L124.61 14.09L124.53 14.09C123.96 14.25 123.56 14.34 123.34 14.34ZM120.59 14.59L120.59 14.67L121.05 14.67C121.22 14.67 121.31 14.6 121.31 14.46C121.22 14.46 121.18 14.42 121.18 14.34C120.92 14.5 120.73 14.59 120.59 14.59ZM122.49 14.67L122.49 14.8C122.66 14.8 122.82 14.75 122.96 14.67L123.21 14.8L123.34 14.8L123.34 14.67C123.09 14.67 122.96 14.56 122.96 14.34C122.65 14.45 122.49 14.56 122.49 14.67ZM118.93 15.63L118.93 15.76L119.06 15.76L120.59 15.38C120.76 15.46 120.88 15.5 120.97 15.5L120.97 15.63C120.97 15.77 120.88 15.84 120.71 15.84C120.54 15.84 120.39 15.81 120.25 15.76L119.53 16.09L119.27 15.96C119.27 16.07 119.08 16.23 118.68 16.42L118.47 16.42L118.21 16.3C118.21 16.46 118.02 16.55 117.62 16.55L117.75 16.8L117.49 16.88C117.49 16.74 117.42 16.67 117.28 16.67C117.11 16.76 116.99 16.8 116.9 16.8C117.07 16.99 117.16 17.14 117.16 17.26L117.41 17.26L117.28 17.01L117.28 16.88L117.87 17.01C118.02 17.01 118.09 16.94 118.09 16.8L118.34 16.88L118.6 16.88L118.47 16.67L118.68 16.55C118.71 16.71 118.79 16.8 118.93 16.8L119.19 16.8L119.06 16.55L119.27 16.42L119.27 16.67C120.29 16.48 120.97 16.2 121.31 15.84L121.18 15.63L121.56 15.05L120.97 15.05L120.97 15.38L120.84 15.38L120.84 15.05L118.93 15.63ZM116.9 16.3L117.41 16.3C117.55 16.3 117.62 16.23 117.62 16.09L117.16 16.09C116.99 16.12 116.9 16.19 116.9 16.3ZM113.85 17.01L113.85 17.13L114.32 17.13L114.32 16.88L114.19 16.88C114.05 16.96 113.94 17.01 113.85 17.01ZM116.56 17.01L116.56 17.13C116.59 17.3 116.67 17.38 116.82 17.38L116.9 17.38L116.9 17.01L116.56 17.01ZM115.63 17.13C115.63 17.29 115.59 17.45 115.5 17.59L115.84 17.59L115.84 17.38L116.1 17.46L116.43 17.46L116.43 17.38C116.43 17.21 116.36 17.13 116.22 17.13L115.63 17.13L115.63 17.13ZM115.04 17.38C115.04 17.52 114.95 17.59 114.78 17.59C114.81 17.76 114.9 17.84 115.04 17.84L115.25 17.84L115.25 17.71L115.12 17.46C115.21 17.46 115.25 17.44 115.25 17.38L115.04 17.38ZM111.01 18.42L111.1 18.63C110.96 18.72 110.84 18.76 110.76 18.76C110.79 18.92 110.87 19.01 111.01 19.01C111.86 18.67 112.41 18.4 112.66 18.17C112.86 18.17 113.09 18.26 113.34 18.42L113.47 18.17C113.39 18.17 113.34 18.13 113.34 18.05L113.94 18.17L114.66 17.96C114.66 17.8 114.59 17.71 114.44 17.71L114.32 17.71L113.94 17.96C113.94 17.8 113.91 17.71 113.85 17.71C113.68 17.8 113.55 17.84 113.47 17.84L113.47 17.71C112.23 18.19 111.41 18.42 111.01 18.42ZM109.45 19.01C109.47 19.15 109.56 19.22 109.7 19.22C110.26 19.22 110.58 19.1 110.63 18.88L110.04 18.76L110.04 19.01L109.91 19.01L109.91 18.76L109.7 18.76C109.53 18.78 109.45 18.87 109.45 19.01ZM108.51 19.13L108.51 19.22L109.23 19.34C109.23 19.23 109.11 19.12 108.85 19.01C108.71 19.09 108.6 19.13 108.51 19.13ZM85.26 29.31L87.12 29.31C91.61 29.31 95.14 31.29 97.71 35.27C98.5 37.02 99.08 38.72 99.45 40.36L99.28 41.11L99.28 41.73C99.28 41.95 99.34 42.16 99.45 42.36C99.03 44.86 98.24 47.29 97.12 49.57C97.12 50.54 96.39 52.03 94.92 54.03C94.01 54.2 92.93 54.96 91.66 56.33C90.7 56.74 89.44 57.45 87.89 58.45L88.06 58.45C89.35 58.06 90.13 57.87 90.38 57.87L90.38 58.16L83.06 60.62C81.11 60.62 79.09 59.9 77 58.45C76.18 57.67 75.19 56.3 74.03 54.32C74.03 54.19 73.46 52.75 72.3 50.03C72.19 48.81 72.03 48.19 71.83 48.19C71.83 44.5 73.81 41.47 77.76 39.11C79.2 38.47 80.56 38.01 81.83 37.73C81.83 37.62 81.87 37.56 81.96 37.56C83.28 37.84 84.17 38.35 84.62 39.11C84.62 39.3 84.88 39.81 85.39 40.65L85.39 41.11C85.39 41.69 84.82 42.41 83.69 43.27C83.89 43.3 83.99 43.4 83.99 43.57C83.2 43.96 82.52 44.68 81.96 45.73L81.96 46.03L82.13 46.03L82.93 45.57L83.52 45.57L80.26 47.86C79.1 49.06 78.37 50.24 78.06 51.41C78.06 51.63 78.48 51.93 79.33 52.32L80.09 52.32C81.98 52.32 84.64 51.5 88.06 49.86C90.48 48.08 92.21 46.14 93.22 44.03C93.93 42.75 94.44 41.01 94.75 38.81L94.75 37.73C94.01 36.59 92.4 35.73 89.92 35.14C88.99 35.14 88.21 35.03 87.59 34.81L84.92 35.14L84.92 34.81C85.06 34.81 85.64 34.71 86.66 34.52L89.33 34.52L90.09 34.64L90.26 34.35L89.92 34.19C89.04 34.3 88.32 34.35 87.76 34.35L85.39 33.6L85.09 33.6C84.87 33.6 84.65 33.64 84.46 33.73C84.27 33.64 84.07 33.6 83.86 33.6L83.06 33.73C82.49 33.03 82.08 32.68 81.83 32.68C81.41 32.52 81.19 32.36 81.19 32.23C81.19 32.11 81.41 31.79 81.83 31.27C81.83 30.85 81.56 30.45 81.03 30.06C82.27 29.56 83.68 29.31 85.26 29.31ZM118.55 32.23L118.55 32.35C118.44 32.63 118.14 32.77 117.66 32.77L117.66 33.06L117.96 33.06C118.21 32.86 119.02 32.63 120.37 32.35L121.09 32.52C121.15 32.52 121.35 32.46 121.69 32.35C122.59 32.35 124.16 32.92 126.39 34.06C127.15 34.7 127.53 35.07 127.53 35.19C127.45 35.35 127.4 35.49 127.4 35.6C128.14 36.08 129.18 37.01 130.54 38.4C131.84 37.06 133.89 35.8 136.68 34.6L137.4 34.48L137.4 34.6C137.83 34.24 138.87 33.86 140.53 33.48L140.53 33.64L141.38 33.35C141.55 33.43 141.69 33.48 141.81 33.48C142.48 33.39 142.87 33.35 142.95 33.35C143.06 33.35 143.64 33.53 144.69 33.89C144.69 33.75 144.87 33.62 145.24 33.48C146.8 34.11 148.32 34.82 149.81 35.6C150.81 35.94 151.73 36.46 152.52 37.15C153.71 37.42 155.04 38.83 156.5 41.36C157.55 42.55 158.13 43.2 158.24 43.32C158.72 44.68 158.96 45.53 158.96 45.86C158.85 45.86 158.79 45.9 158.79 45.98C158.99 45.98 159.09 46.12 159.09 46.4C158.89 46.6 158.75 47.58 158.66 49.36C157.59 51.89 154.22 55.07 148.54 58.91C143.46 62.33 138.93 65.05 134.94 67.08C131.36 69.5 128.22 71.79 125.54 73.96C118.82 80.33 115.15 84.26 114.53 85.76C113.15 87.65 112.38 88.6 112.24 88.6L111.82 88.6L111.82 88.72L112.11 89.14L111.95 89.14L111.69 89.01L111.27 89.01C111.27 88.79 111.07 88.65 110.67 88.6L110.67 88.18L110.38 88.18C110.38 88.46 110.29 88.6 110.12 88.6L109.95 88.6L109.95 88.43C109.95 88.26 110.15 87.81 110.55 87.05L110.25 87.18C110.05 87.18 109.95 87.08 109.95 86.89C111 85.3 111.62 84.51 111.82 84.51L111.82 84.39C111.25 84.39 110.97 84.25 110.97 83.97L112.24 82.26L112.54 82.38C112.54 81.8 113.06 80.97 114.1 79.88L114.23 79.88L114.23 80.01L113.81 80.59L113.81 81.01L113.98 81.01C114.12 81.01 114.36 80.73 114.7 80.17L114.7 79.72C114.39 79.72 114.23 79.63 114.23 79.47C116.04 77.1 117.18 75.92 117.66 75.92L117.66 76.21L117.96 76.21L117.66 75.8C117.97 75.3 118.69 74.45 119.82 73.25L119.82 73.13L119.7 73.13C119.5 73.21 119.34 73.25 119.23 73.25C119.23 73.11 119.57 72.79 120.25 72.29L120.54 72.42L120.67 72.42L120.67 72.29L120.37 72.29C120.4 72.1 120.5 72 120.67 72L120.97 72.13L121.09 72.13L121.09 72L120.8 72L120.8 71.71C120.8 71.54 120.95 71.46 121.26 71.46L121.26 71.17C120.11 71.95 119.53 72.41 119.53 72.54C118.34 73.6 117.72 74.13 117.66 74.13L117.54 74.13L117.54 73.96L117.66 73.67L117.54 73.67C117.42 73.67 117 74.1 116.27 74.96L116.27 75.09L116.52 75.09L116.52 75.38C116.24 75.85 115.48 76.7 114.23 77.92L113.55 77.34C113.64 77.23 113.68 76.99 113.68 76.63L113.55 76.63L113.55 76.51C113.55 76.31 113.74 76.21 114.1 76.21L113.98 75.92C113.98 75.78 114.54 75.41 115.67 74.8C116.43 74.16 117.44 73.09 118.68 71.59L118.55 71.59L118.26 71.71L118.09 71.46C118.4 71.35 118.69 71.02 118.98 70.46L119.23 70.46L119.23 70.33L119.1 70.04C119.41 69.84 119.76 69.7 120.12 69.63L119.95 69.33L120.8 68.75C120.71 68.75 120.67 68.71 120.67 68.62C121.94 67.79 122.66 67.37 122.83 67.37C123.77 66.67 124.62 65.86 125.37 64.96C126.08 64.46 127.22 63.76 128.8 62.87C128.8 62.48 129.38 61.97 130.54 61.33L130.12 61.33L130.12 61.16C131.53 60.13 132.43 59.62 132.83 59.62L132.83 59.79L133.08 59.62L133.67 59.79L135.54 58.78C136.53 57.95 137.15 57.53 137.4 57.53L137.4 57.37L136.81 57.37L136.81 57.12C137.03 57.12 138.22 56.37 140.37 54.87L144.22 52.45C144.33 52.45 144.49 52.41 144.69 52.32C144.83 52.41 145.01 52.45 145.24 52.45C145.77 51.97 146.16 51.56 146.38 51.2C147.06 51.2 147.4 50.82 147.4 50.07L147.65 50.07L147.65 50.49L147.82 50.49C147.96 50.49 148.1 50.35 148.24 50.07L147.95 49.65C147.95 49.57 148.51 49.1 149.64 48.24L149.81 48.24L150.11 48.4C150.11 48.15 150.29 47.96 150.66 47.82C150.66 47.26 150.86 46.99 151.25 46.99C151.82 46.43 152.1 46.01 152.1 45.73C152.27 45.73 152.51 45.21 152.82 44.15C153.05 44.15 153.28 43.69 153.54 42.77C153.54 41.64 151.34 40.79 146.93 40.23C146.54 40.23 146.01 40.19 145.37 40.11C142.85 40.27 140.42 41.06 138.08 42.48C135.45 44.21 133.22 46.46 131.39 49.24C130.77 49.99 130.05 51.11 129.23 52.61L129.39 52.86L127.53 57.37C127.28 57.37 126.76 57.7 125.97 58.37L125.54 58.37C123.82 56.92 122.96 55.94 122.96 55.41C122.96 54.85 122.82 54.57 122.53 54.57C122.53 54.77 122.44 54.87 122.24 54.87L121.94 54.87C121.94 54.48 121.56 53.63 120.8 52.32C121 51.66 121.33 50.95 121.81 50.2C121.73 50.06 121.69 49.88 121.69 49.65C122 49.54 122.42 48.97 122.96 47.94L122.83 47.69C123.23 47.58 123.65 47.07 124.1 46.15C124.02 46.15 123.97 46.1 123.97 45.98L124.53 45.57L124.4 45.28L124.4 45.15L125.8 40.81L125.97 40.11C125.8 38.69 125.6 37.98 125.37 37.98C120.91 37.98 115.63 42.21 109.53 50.65C109.53 50.79 109.21 51.39 108.56 52.45L106.82 56.95L107.24 57.66L107.12 58.24C107.2 58.41 107.24 58.59 107.24 58.78L106.52 59.2L106.1 59.2C106.02 59.2 105.97 59.16 105.97 59.08C105.78 59.16 105.63 59.2 105.55 59.2C105.44 59.2 104.81 58.59 103.69 57.37C103.54 57.37 103.12 56.77 102.41 55.57C102.3 55.57 101.96 55.28 101.4 54.7C101.4 53.23 101.64 52.02 102.12 51.07C101.92 51.07 101.82 50.93 101.82 50.65C102.1 49.85 102.3 49.42 102.41 49.36L102.25 49.07L102.25 48.82C102.47 48.6 102.71 47.99 102.96 46.99C103.3 46.99 103.97 46.28 104.96 44.86C105.41 44.86 105.79 44.48 106.1 43.73L106.69 43.19L106.52 42.9C107.4 41.51 108.26 40.44 109.11 39.69C109.3 39.69 109.73 39.22 110.38 38.27L113.98 35.02L113.81 35.02C113.64 35.13 113.5 35.19 113.39 35.19L113.39 35.02C113.39 34.85 113.72 34.67 114.4 34.48C114.43 34.67 114.53 34.77 114.7 34.77C114.98 34.57 115.21 34.48 115.38 34.48L115.38 34.06L115.25 34.06C115.05 34.14 114.91 34.19 114.83 34.19L114.83 34.06C116.04 33.14 117.23 32.53 118.38 32.23L118.55 32.23ZM116.69 33.35L116.69 33.48L117.11 33.48C117.25 33.48 117.4 33.34 117.54 33.06L117.41 33.06C117.1 33.25 116.86 33.35 116.69 33.35ZM132.11 60.33L132.23 60.33C132.63 60.19 132.83 60.05 132.83 59.91L132.53 59.91C132.39 59.91 132.25 60.05 132.11 60.33ZM121.94 70.46C122 70.65 122.1 70.75 122.24 70.75L122.41 70.75C122.29 70.58 122.23 70.37 122.24 70.17C122.04 70.2 121.94 70.29 121.94 70.46ZM118.09 73L117.83 73.42L118.09 73.55C118.09 73.27 118.19 73.13 118.38 73.13L118.38 73L118.09 73ZM115.97 76.63L116.1 76.92L115.84 77.05L115.67 77.05L115.67 76.92C115.7 76.73 115.8 76.63 115.97 76.63ZM112.24 79.47L112.24 79.88L111.95 79.88L111.95 79.72C112 79.55 112.1 79.47 112.24 79.47ZM111.69 80.17L111.95 80.3L112.41 80.3C111.68 81.55 111.15 82.25 110.84 82.38L110.67 82.38L110.67 82.26C110.79 82.09 110.84 81.95 110.84 81.84L110.12 82.55L109.95 82.26C110.63 81.2 111.21 80.51 111.69 80.17ZM112.83 82.13L113.09 82.26L113.26 81.97L113.26 81.84L113.09 81.84C112.92 81.87 112.83 81.97 112.83 82.13ZM110.97 89.72C111.14 89.81 111.28 89.85 111.39 89.85L111.39 90.14C111.14 90.14 110.86 90.28 110.55 90.56L110.55 90.14C110.55 90 110.69 89.86 110.97 89.72ZM175.14 29.31L177.01 29.31C181.5 29.31 185.02 31.29 187.59 35.27C188.38 37.02 188.96 38.72 189.33 40.36L189.16 41.11L189.16 41.73C189.16 41.95 189.22 42.16 189.33 42.36C188.91 44.86 188.12 47.29 187 49.57C187 50.54 186.27 52.03 184.8 54.03C183.9 54.2 182.81 54.96 181.54 56.33C180.58 56.74 179.32 57.45 177.77 58.45L177.94 58.45C179.24 58.06 180.01 57.87 180.27 57.87L180.27 58.16L172.94 60.62C170.99 60.62 168.97 59.9 166.88 58.45C166.06 57.67 165.07 56.3 163.92 54.32C163.92 54.19 163.34 52.75 162.18 50.03C162.07 48.81 161.91 48.19 161.71 48.19C161.71 44.5 163.69 41.47 167.64 39.11C169.08 38.47 170.44 38.01 171.71 37.73C171.71 37.62 171.75 37.56 171.84 37.56C173.17 37.84 174.05 38.35 174.51 39.11C174.51 39.3 174.76 39.81 175.27 40.65L175.27 41.11C175.27 41.69 174.7 42.41 173.57 43.27C173.77 43.3 173.87 43.4 173.87 43.57C173.08 43.96 172.4 44.68 171.84 45.73L171.84 46.03L172.01 46.03L172.81 45.57L173.41 45.57L170.14 47.86C168.99 49.06 168.25 50.24 167.94 51.41C167.94 51.63 168.36 51.93 169.21 52.32L169.97 52.32C171.87 52.32 174.52 51.5 177.94 49.86C180.37 48.08 182.09 46.14 183.1 44.03C183.81 42.75 184.32 41.01 184.63 38.81L184.63 37.73C183.9 36.59 182.29 35.73 179.8 35.14C178.87 35.14 178.09 35.03 177.47 34.81L174.8 35.14L174.8 34.81C174.94 34.81 175.52 34.71 176.54 34.52L179.21 34.52L179.97 34.64L180.14 34.35L179.8 34.19C178.93 34.3 178.21 34.35 177.64 34.35L175.27 33.6L174.97 33.6C174.75 33.6 174.53 33.64 174.34 33.73C174.15 33.64 173.95 33.6 173.74 33.6L172.94 33.73C172.37 33.03 171.96 32.68 171.71 32.68C171.29 32.52 171.08 32.36 171.08 32.23C171.08 32.11 171.29 31.79 171.71 31.27C171.71 30.85 171.44 30.45 170.91 30.06C172.15 29.56 173.56 29.31 175.14 29.31ZM210.85 0C210.93 0.13 210.98 0.29 210.98 0.45L211.19 0.33L211.19 0.45C211.05 0.76 210.98 1.04 210.98 1.29L211.06 1.29L211.65 0.91L211.78 1.16C210.68 3.94 210.13 5.46 210.13 5.71L210 5.71L210.13 5.92L208.94 8.63L209.28 8.63C209.37 8.07 209.54 7.79 209.79 7.79C209.79 7.9 209.9 8.03 210.13 8.17C210.21 8 210.26 7.88 210.26 7.79L210.38 7.79C210.52 7.82 210.59 7.9 210.59 8.04C210.26 8.65 210.02 8.96 209.87 8.96L209.87 9.09C210.04 9.28 210.13 9.43 210.13 9.54L210.26 9.54C210.37 9.54 210.52 9.31 210.72 8.83L210.72 8.25C210.83 8.25 210.99 8.06 211.19 7.67L211.06 7.46L212.03 5.12C212.03 4.98 211.88 4.83 211.57 4.66C211.43 4.66 211.26 4.82 211.06 5.12C211.17 5.12 211.37 5.32 211.65 5.71C211.12 6.43 210.76 6.93 210.59 7.21L210.38 7.21L210.38 7L210.13 7C210.13 7.44 210.04 7.67 209.87 7.67C209.73 7.67 209.66 7.6 209.66 7.46C209.95 7.01 210.19 6.43 210.38 5.71C211.09 3.93 211.44 3 211.44 2.91L211.78 2.66L211.91 2.66C211.82 3 211.78 3.28 211.78 3.5C212.03 3.5 212.16 3.65 212.16 3.96L211.91 4.08L212.03 4.75L212.25 4.75C212.28 4.36 212.56 3.9 213.09 3.37C213.09 3.46 213.14 3.5 213.22 3.5C213.12 3.79 212.91 4.03 212.63 4.16C212.63 4.25 212.67 4.29 212.75 4.29C212.5 5.51 212.22 6.57 211.91 7.46L212.16 7.58C212.44 6.47 212.75 5.8 213.09 5.58C213.09 5.67 213.14 5.71 213.22 5.71C213.14 6.57 213.01 7.11 212.84 7.33L213.22 7.33C213.22 7.42 213.18 7.46 213.09 7.46L213.22 8.04C211.93 11.72 210.7 15.42 209.54 19.13C210.16 19.13 210.47 19.16 210.47 19.22L210.72 19.13C212.33 19.13 213.83 19.05 215.21 18.88C215.38 18.97 215.51 19.01 215.59 19.01C215.71 18.87 216.65 18.74 218.43 18.63C218.57 18.72 218.68 18.76 218.77 18.76C218.92 18.67 219.1 18.63 219.28 18.63C219.28 18.8 219.35 18.88 219.49 18.88C219.52 18.72 219.6 18.63 219.74 18.63L220.8 18.63L221.4 18.55C221.4 18.61 221.44 18.63 221.52 18.63C221.52 18.52 222.23 18.37 223.64 18.17L223.64 18.3L226.61 17.84C226.75 17.92 226.91 17.97 227.07 17.97C227.1 17.8 227.18 17.71 227.33 17.71L227.45 17.71C227.62 17.71 227.78 17.76 227.92 17.84C228.06 17.76 228.22 17.71 228.38 17.71L228.64 17.84C228.64 17.73 228.75 17.6 228.98 17.46C229.12 17.55 229.23 17.59 229.32 17.59C229.34 17.45 229.43 17.38 229.57 17.38L229.91 17.38L229.82 17.59L230.16 17.59C230.16 17.37 231 17.13 232.66 16.88C232.8 16.97 232.96 17.01 233.13 17.01C233.38 17.01 233.74 16.85 234.19 16.55C234.19 16.72 234.3 16.8 234.53 16.8C234.75 16.8 235.03 16.67 235.37 16.42C235.54 16.42 235.7 16.46 235.84 16.55C236.01 16.46 236.14 16.42 236.22 16.42L236.43 16.55C237.11 16.19 237.9 15.92 238.8 15.76C238.8 15.67 238.89 15.63 239.06 15.63C239.09 15.77 239.16 15.84 239.27 15.84C239.52 15.84 240.05 15.69 240.84 15.38C240.98 15.46 241.13 15.51 241.3 15.51L241.56 15.51L241.56 15.38C241.47 15.24 241.43 15.13 241.43 15.05L241.56 15.05C241.72 15.05 241.88 15.09 242.02 15.17L246.17 14.09L246.3 14.09L246.17 13.88L246.17 13.75C246.32 13.78 246.39 13.87 246.39 14L246.64 13.88L246.89 14C248.63 13.44 250.4 12.97 252.19 12.59L252.57 12.59L252.57 12.25L253.04 12.25C253.83 12.11 254.22 11.95 254.22 11.75L254.56 12C254.99 11.78 255.62 11.54 256.47 11.29L256.47 11.17L257.06 11.29C258.39 10.82 259.42 10.56 260.15 10.5C260.15 10.42 260.24 10.38 260.41 10.38L260.62 10.5L261.8 10L262.06 10L262.4 10.25L262.52 10.25L262.4 10C262.82 9.86 263.22 9.67 263.58 9.42L263.92 9.42C263.92 9.31 264.05 9.2 264.3 9.09C264.3 9.2 264.42 9.31 264.64 9.42C264.64 9.28 264.77 9.21 265.02 9.21L265.62 9.33C265.62 9.17 265.69 9.08 265.83 9.08C266 9.17 266.12 9.21 266.21 9.21L266.8 8.75L266.89 8.75L266.8 8.96L266.8 9.09L266.89 9.09C268.21 8.67 269.09 8.32 269.51 8.04L270.11 8.17C270.13 8 270.22 7.92 270.36 7.92L270.57 8.04L270.7 8.04L270.7 7.92L270.44 7.92L270.44 7.67L271.29 7.79L271.42 7.79L271.29 7.58L271.29 7.46L272.35 7.08L272.35 7.21L272.22 7.46L272.82 7.46C273.07 7.24 274.06 6.96 275.78 6.62C275.81 6.51 276.84 6.21 278.87 5.71C278.9 5.54 278.99 5.46 279.13 5.46L279.34 5.58C279.73 5.42 281.25 5.03 283.87 4.42C283.87 4.33 283.9 4.29 283.96 4.29L284.93 4.29L285.52 4.42L285.52 3.96C285.64 3.96 286.1 3.83 286.92 3.58L287.39 3.58L287.39 3.71L287.3 3.96L287.39 3.96C288.38 3.65 289.01 3.5 289.29 3.5L289.29 3.58C289.21 3.8 287.75 4.23 284.93 4.87L276.37 7.21L276.37 7.46L276.5 7.46C277.24 7.21 277.67 7.08 277.81 7.08L277.81 7.21L278.28 7C278.39 7.05 278.5 7.08 278.62 7.08C279.01 6.89 279.21 6.74 279.21 6.62L279.81 6.75C280.2 6.44 280.48 6.29 280.65 6.29L281.25 6.42C281.27 6.25 281.36 6.17 281.5 6.17L281.71 6.29C281.71 6.04 282.23 5.85 283.28 5.71L283.49 5.71L283.49 6.04L283.87 6.04L283.74 5.46L284.47 5.46L285.14 5L285.27 5L285.52 5.12C285.55 4.96 285.62 4.87 285.74 4.87L285.86 4.87C285.86 5.07 285.95 5.26 286.12 5.46L285.74 5.92C285.82 5.92 285.86 5.96 285.86 6.04L285.74 6.04C285.59 6.04 285.52 5.93 285.52 5.71C285.35 5.74 285.27 5.8 285.27 5.92C285.44 6 285.57 6.04 285.65 6.04C285.65 6.32 285.09 6.47 283.96 6.5C284.04 6.36 284.08 6.25 284.08 6.17L283.96 6.17C283.84 6.25 283.62 6.29 283.28 6.29C283.28 6.43 283.39 6.5 283.62 6.5L283.62 6.75L283.02 6.88L282.9 6.62C282.9 6.54 282.94 6.5 283.02 6.5L282.9 6.29L282.9 6.17L283.28 6.17L283.28 6.04C283.19 6.04 283.07 6 282.9 5.92C282.67 6.08 282.38 6.17 282.09 6.17L282.09 6.42C282.26 6.42 282.49 6.53 282.77 6.75L282.9 6.75L282.69 7.08C282.74 7.25 282.77 7.38 282.77 7.46C281.87 7.68 281.27 7.88 280.99 8.04C280.85 8.04 280.78 7.96 280.78 7.79C281.97 7.43 282.56 7.19 282.56 7.08L282.09 7.08L282.09 6.87L282.31 6.87L282.31 6.62L282.18 6.62C281.67 7.18 281.12 7.46 280.53 7.46C280.44 7.29 280.4 7.17 280.4 7.08L280.31 7.08L279.93 7.33L279.72 7.21L279.59 7.46L279.93 7.46L279.93 7.67C278.52 8.08 277.81 8.36 277.81 8.5L277.94 8.5L278.75 8.38L278.75 8.5C278.75 8.64 278.11 8.88 276.84 9.21C276.84 9.29 276.77 9.33 276.63 9.33C276.37 9.33 276.25 9.17 276.25 8.83L276.04 8.83C275.7 9.39 275.37 9.67 275.06 9.67L275.06 9.54C274.75 9.71 274.48 9.79 274.26 9.79L274.26 9.54C274.85 9.4 275.2 9.33 275.32 9.33L275.19 9.08C270.84 10.25 268.64 10.92 268.58 11.09C270.35 10.72 272.08 10.24 273.79 9.67C273.79 9.75 274.14 9.99 274.85 10.38C274.57 10.52 274.09 10.67 273.41 10.84L273.41 10.71L273.2 10.84L272.73 10.84C272.85 10.56 273.35 10.41 274.26 10.38C274.26 10.21 274.17 10.13 274 10.13L273.41 10.13C272.68 10.38 272.21 10.5 272.01 10.5L271.76 10.5C271.76 10.75 271.12 10.98 269.85 11.17C269.85 11.34 269.63 11.42 269.17 11.42L269.26 11.67C269.63 11.5 270.15 11.42 270.82 11.42L271.04 11.42C271.04 11.11 271.28 10.96 271.76 10.96L272.35 10.96L272.35 11.17L272.14 11.17C271.88 11.17 271.41 11.34 270.7 11.67C270.08 11.67 269.09 11.98 267.73 12.59C266.94 12.59 266.55 12.7 266.55 12.92C266.44 12.87 266.33 12.84 266.21 12.84L265.7 13.05C265.7 12.91 265.63 12.84 265.49 12.84C265.49 13.12 265.05 13.31 264.18 13.42L263.92 13.3L263.84 13.3L263.84 13.42L264.05 13.42C264.05 13.56 263.98 13.63 263.84 13.63L263.24 13.5C263.22 13.62 262.82 13.85 262.06 14.21C262.06 14.13 262.01 14.09 261.93 14.09C261.85 14.25 261.8 14.38 261.8 14.46L261.68 14.46C261.68 14.3 261.63 14.21 261.55 14.21L261.34 14.34L261.08 14.21C261 14.21 260.8 14.41 260.49 14.8C260.49 14.66 260.42 14.59 260.28 14.59L259.9 14.59C259.59 14.81 258.88 15.03 257.78 15.26C257.7 14.95 257.54 14.8 257.31 14.8C257.14 14.88 257.02 14.92 256.93 14.92L256.93 15.05C257.27 15.05 257.44 15.12 257.44 15.26C256.96 15.45 256.72 15.62 256.72 15.76L256.85 15.76L256.72 15.96L256.72 16.09C259.54 15.4 261.79 14.73 263.46 14.09C263.54 14.09 263.58 14.13 263.58 14.21C264.2 13.91 264.64 13.75 264.9 13.75L265.11 13.88C265.11 13.71 266.46 13.28 269.17 12.59C278.44 9.95 283.8 8.47 285.27 8.17L285.27 8.38L271.55 12.25C270.42 12.56 269.78 12.78 269.64 12.92C269.27 12.92 267.34 13.43 263.84 14.46C263.58 14.6 262.07 15.03 259.3 15.76C259.19 15.76 258.8 15.94 258.12 16.3C258.01 16.25 257.9 16.22 257.78 16.21C257.7 16.35 257.65 16.47 257.65 16.55L257.06 16.42L256.93 16.42L256.93 16.55L257.19 16.55L257.19 16.8C255.21 17.16 254.11 17.51 253.88 17.84C253.71 17.76 253.59 17.71 253.5 17.71C253.19 17.99 251.85 18.42 249.48 19.01C249.48 19.09 249.44 19.13 249.35 19.13C249.21 19.05 249.1 19.01 249.01 19.01L248.89 19.22L248.29 19.13C248.04 19.13 247.77 19.29 247.49 19.59C247.32 19.51 247.19 19.47 247.11 19.47L246.98 19.72L246.77 19.59L246.51 19.59C246.51 19.81 246.44 19.93 246.3 19.93L246.05 19.93L245.45 19.8C245.45 19.97 245.26 20.13 244.86 20.3L244.14 20.18C243.1 20.87 238.52 21.95 230.42 23.43C228.44 23.82 225.87 24.21 222.71 24.59L222.71 24.47C218.11 25.19 213.28 25.55 208.22 25.55L208.01 25.55C207.73 25.83 206.94 28.58 205.64 33.81C201.83 45.62 198.78 53.86 196.49 58.53C196.29 59.23 195.78 59.9 194.96 60.54L194.71 60.54C193.92 60.54 193.52 60.45 193.52 60.29L193.31 60.41L193.19 60.41L191.07 59.62C190.98 59.62 190.86 59.65 190.69 59.7C190.12 59.7 189.57 59.31 189.03 58.53C190.93 54.62 192.31 51.43 193.19 48.99L195.3 43.48C195.3 43.29 195.74 42.09 196.62 39.9C197.72 36.65 198.86 32.71 200.05 28.1C200.19 28.1 200.51 27.21 201.02 25.43C197.21 24.79 194.68 24.01 193.44 23.09C193.04 23.09 191.97 22.32 190.22 20.76L190.22 20.38L190.47 20.38L190.47 20.18C190.08 19.59 189.84 18.86 189.76 17.97C189.67 17.97 189.63 17.92 189.63 17.84L189.76 17.59C189.67 17.45 189.63 17.29 189.63 17.13L189.76 17.13L189.63 16.88L189.63 16.8C189.71 15.63 189.95 15.05 190.35 15.05L195.9 17.59L199.45 18.55L199.71 18.42C200.16 18.56 201.15 18.76 202.67 19.01C203.07 18.01 203.46 16.76 203.86 15.26C204.38 13.16 205.05 11.1 205.85 9.09C205.96 8.47 206.16 8.17 206.44 8.17C206.44 8.08 206.42 8.04 206.36 8.04C206.36 7.29 206.67 6.62 207.29 6.04L207.16 5.83C207.7 5.44 208.05 5.25 208.22 5.25C208.22 5 208.19 4.87 208.14 4.87C208.14 4.71 208.25 4.25 208.48 3.5L209.07 3.5C209.58 1.91 210.17 0.75 210.85 0ZM211.91 1.95L212.16 1.95L212.16 2.33L211.65 2.33L211.65 2.21C211.68 2.04 211.77 1.95 211.91 1.95ZM290.86 2.54L290.86 2.79C290.3 2.93 289.97 3 289.89 3L289.76 2.79C290.13 2.62 290.49 2.54 290.86 2.54ZM291.45 2.91L291.79 2.91L291.79 3.12L291.2 3.12C291.23 2.98 291.31 2.91 291.45 2.91L291.45 2.91ZM291.07 3.12C291.07 3.32 290.61 3.47 289.68 3.58L289.55 3.37C290.34 3.21 290.85 3.12 291.07 3.12ZM292.72 3.25L292.98 3.25C292.98 3.44 292.63 3.55 291.92 3.58L291.92 3.37L292.72 3.25ZM285.86 4.16L285.86 4.29L285.99 4.29C286.61 4.21 286.92 4.1 286.92 3.96L286.79 3.96C286.74 3.96 286.43 4.02 285.86 4.16ZM290.48 3.83L290.48 4.08L290.27 3.96C290.27 4.1 290.18 4.17 290.01 4.17L289.89 4.17C289.75 4.17 289.68 4.1 289.68 3.96L290.48 3.83ZM289.68 4.08L289.42 4.42C289.51 4.55 289.55 4.67 289.55 4.75L289.42 4.75L289.08 4.54L288.7 4.54L288.83 4.75L288.83 4.87L288.57 4.87C288.46 4.87 288.35 4.76 288.24 4.54C288.4 4.37 288.88 4.22 289.68 4.08L289.68 4.08ZM287.9 4.42L288.11 5L287.77 5.25L287.64 5.25C287.47 5.25 287.39 5.17 287.39 5L287.9 5L287.9 4.87L287.39 4.87C287.39 5.04 287.32 5.12 287.18 5.12C287.01 5.12 286.92 5.04 286.92 4.87C286.92 4.73 287.25 4.58 287.9 4.42ZM286.12 4.87L286.71 4.87C286.71 5.18 286.78 5.33 286.92 5.33L287.9 5.33L287.9 5.46C287.9 5.62 287.53 5.75 286.79 5.83L286.79 5.71L286.92 5.46C286.5 5.46 286.23 5.3 286.12 5L286.12 4.87ZM285.52 5.25L285.4 5.46L285.4 5.58C285.54 5.5 285.7 5.46 285.86 5.46L285.86 5.33C285.75 5.32 285.63 5.3 285.52 5.25L285.52 5.25ZM210.98 5.33L210.85 5.92C210.96 5.92 211.12 5.76 211.31 5.46L211.06 5.33L210.98 5.33ZM284.21 5.71L284.21 5.92C284.38 5.92 284.47 6 284.47 6.17L284.8 6.17C284.97 6.17 285.06 6.08 285.06 5.92C284.89 5.92 284.8 5.85 284.8 5.71L285.14 5.71L285.14 5.46C284.92 5.62 284.61 5.71 284.21 5.71ZM286.71 6.04L286.92 6.04L286.92 6.29L286.46 6.29C286.48 6.12 286.57 6.04 286.71 6.04ZM210.59 6.29C210.59 6.4 210.52 6.56 210.38 6.75L210.38 6.88C210.5 6.88 210.65 6.72 210.85 6.42L210.59 6.29L210.59 6.29ZM278.87 7.21C278.96 7.21 279.07 7.25 279.21 7.33L279.34 7.33L279.34 7.21C279.2 7.21 279.13 7.14 279.13 7C278.96 7.03 278.87 7.1 278.87 7.21ZM272.82 7L272.94 7L272.94 7.08C272.94 7.25 272.87 7.33 272.73 7.33L272.6 7.08L272.82 7ZM275.65 7.46C275.74 7.6 275.78 7.75 275.78 7.92L275.91 7.92C275.91 7.78 276.02 7.58 276.25 7.33L276.04 7.33C275.87 7.42 275.74 7.46 275.65 7.46L275.65 7.46ZM278.41 7.33L278.54 7.58C278.68 7.5 278.79 7.46 278.87 7.46L278.87 7.33L278.41 7.33ZM279.13 7.67L279.21 7.67C279.38 7.67 279.47 7.6 279.47 7.46L279.34 7.46C279.2 7.49 279.13 7.56 279.13 7.67ZM284.34 7.33L284.68 7.33L284.68 7.58L284.34 7.58L284.34 7.33L284.34 7.33ZM211.44 8.83C211.67 8.83 211.87 8.44 212.03 7.67L211.91 7.67C211.68 7.67 211.53 8.06 211.44 8.83ZM273.88 8.17L275.32 7.79L275.32 7.67L275.19 7.67C274.31 7.78 273.88 7.94 273.88 8.17ZM277.81 8.04L278.03 8.04C278.2 7.96 278.32 7.92 278.41 7.92L278.41 7.79L278.03 7.79C277.89 7.82 277.81 7.9 277.81 8.04L277.81 8.04ZM283.49 7.67L283.62 7.92L283.28 8.17L282.43 8.17C282.43 8.03 282.79 7.86 283.49 7.67ZM280.06 7.92L280.53 7.92C280.53 8.08 280.46 8.17 280.31 8.17L280.06 8.17L280.06 7.92L280.06 7.92ZM272.82 8.25L272.82 8.5L272.94 8.5L273.2 8.37C273.34 8.46 273.5 8.5 273.66 8.5L273.79 8.5C273.79 8.39 273.64 8.28 273.32 8.17C273.32 8.22 273.28 8.25 273.2 8.25L273.2 8.17C273.07 8.21 272.95 8.24 272.82 8.25L272.82 8.25ZM281.37 8.17L281.5 8.17C281.64 8.17 281.71 8.24 281.71 8.37L281.71 8.5L281.37 8.5L281.37 8.17ZM265.49 10.38L265.49 10.5L265.83 10.5C266.11 10.33 266.63 10.17 267.4 10C267.4 10.11 267.51 10.24 267.73 10.38L267.86 10.38C267.69 10.18 267.61 10.06 267.61 10C267.86 9.86 268.1 9.79 268.33 9.79L268.92 9.92L268.79 9.67L272.48 8.62L272.48 8.37L265.49 10.38ZM280.19 8.5L280.65 8.5C280.65 8.67 280.57 8.75 280.4 8.75L280.19 8.75L280.19 8.5ZM273.79 8.75L273.79 8.96C274.04 8.96 274.24 9 274.38 9.08L274.38 8.83L273.79 8.75ZM205.98 9.33L205.98 9.92L206.1 9.92L206.23 9.33L205.98 9.33ZM272.35 9.33C272.38 9.47 272.46 9.54 272.6 9.54L272.73 9.54C272.73 9.4 272.65 9.33 272.48 9.33L272.35 9.33ZM264.77 9.42L264.77 9.54L265.23 9.54L265.23 9.42L264.77 9.42ZM276.97 9.42L277.35 9.42C277.35 9.58 277.26 9.67 277.1 9.67L276.97 9.67L276.97 9.42ZM210 9.92L210 10.13C210.17 10.04 210.3 10 210.38 10L210.38 9.67L210.26 9.67C210.09 9.7 210 9.78 210 9.92ZM208.6 9.79L208.6 10.13C208.74 10.13 208.81 10.06 208.81 9.92L208.81 9.79L208.6 9.79ZM276.37 9.67L276.37 9.92L275.78 10C275.78 9.83 275.98 9.72 276.37 9.67ZM274.98 10L275.57 10L275.57 10.25C275.29 10.33 275.12 10.38 275.06 10.38L274.98 10.13L274.98 10ZM263.46 10.96L263.46 11.09L263.71 11.09C263.85 11.09 264.09 11 264.43 10.83C264.57 10.92 264.68 10.96 264.77 10.96L264.9 10.71L264.64 10.71C264.44 10.71 264.05 10.79 263.46 10.96L263.46 10.96ZM259.69 10.83L259.69 10.96L260.15 10.96L260.15 10.83L259.69 10.83ZM262.06 11.54L262.4 11.54L262.74 11.29C262.91 11.38 263.03 11.42 263.12 11.42L263.24 11.17C263.07 11.17 262.99 11.14 262.99 11.09C262.37 11.25 262.06 11.4 262.06 11.54ZM266.89 11.67L267.01 11.67C267.18 11.67 267.27 11.59 267.27 11.42L267.14 11.42C266.97 11.45 266.89 11.53 266.89 11.67ZM268.45 11.67C268.45 11.59 268.41 11.54 268.33 11.54C268.33 11.68 267.49 11.95 265.83 12.34L265.83 12.59L266.21 12.59C266.41 12.45 267.35 12.14 269.05 11.67L269.05 11.42L268.79 11.42L268.45 11.67ZM262.86 12.71L263.24 12.71L263.24 12.46L263.12 12.46C262.95 12.49 262.86 12.57 262.86 12.71ZM264.18 12.71L264.18 12.92L265.36 12.84L265.36 12.71C265.28 12.71 265.16 12.67 265.02 12.59C264.75 12.66 264.46 12.71 264.18 12.71ZM208.81 12.84L208.81 13.17L209.2 13.17L209.2 12.84L208.81 12.84ZM261.08 13.63L261.08 13.75L261.34 13.75C261.62 13.75 262.48 13.52 263.92 13.04L263.92 12.92L263.58 12.92C263.13 13.17 262.3 13.41 261.08 13.63L261.08 13.63ZM260.87 13.29L261.08 13.29C261.25 13.21 261.38 13.17 261.47 13.17L261.47 13.04L261.08 13.04C260.94 13.07 260.87 13.16 260.87 13.29ZM258.12 14L258.12 14.21L258.97 14.09L258.84 13.88L258.12 14ZM257.53 14.09L257.53 14.21L258.03 14.21L257.91 14C257.78 14.05 257.66 14.08 257.53 14.09ZM260.03 14.21L260.28 14.21C260.42 14.21 260.49 14.14 260.49 14L260.28 14C260.11 14 260.03 14.07 260.03 14.21ZM258.63 14.34L258.63 14.59C258.88 14.59 259.08 14.62 259.22 14.67C259.22 14.45 259.45 14.34 259.9 14.34L259.9 14.09L259.81 14.09C259.25 14.25 258.85 14.34 258.63 14.34ZM255.87 14.59L255.87 14.67L256.34 14.67C256.51 14.67 256.59 14.6 256.59 14.46C256.51 14.46 256.47 14.42 256.47 14.34C256.21 14.5 256.01 14.59 255.87 14.59ZM257.78 14.67L257.78 14.8C257.94 14.8 258.1 14.75 258.25 14.67L258.5 14.8L258.63 14.8L258.63 14.67C258.37 14.67 258.25 14.56 258.25 14.34C257.94 14.45 257.78 14.56 257.78 14.67ZM254.22 15.63L254.22 15.76L254.35 15.76L255.87 15.38C256.04 15.46 256.17 15.5 256.26 15.5L256.26 15.63C256.26 15.77 256.17 15.84 256 15.84C255.83 15.84 255.68 15.81 255.53 15.76L254.82 16.09L254.56 15.96C254.56 16.07 254.36 16.23 253.97 16.42L253.76 16.42L253.5 16.3C253.5 16.46 253.3 16.55 252.91 16.55L253.04 16.8L252.78 16.88C252.78 16.74 252.71 16.67 252.57 16.67C252.4 16.76 252.27 16.8 252.19 16.8C252.36 16.99 252.44 17.14 252.44 17.26L252.7 17.26L252.57 17.01L252.57 16.88L253.16 17.01C253.3 17.01 253.37 16.94 253.37 16.8L253.63 16.88L253.88 16.88L253.76 16.67L253.97 16.55C254 16.71 254.08 16.8 254.22 16.8L254.48 16.8L254.35 16.55L254.56 16.42L254.56 16.67C255.58 16.48 256.26 16.2 256.59 15.84L256.47 15.63L256.85 15.05L256.26 15.05L256.26 15.38L256.13 15.38L256.13 15.05L254.22 15.63ZM252.19 16.3L252.7 16.3C252.84 16.3 252.91 16.23 252.91 16.09L252.44 16.09C252.27 16.12 252.19 16.19 252.19 16.3ZM249.14 17.01L249.14 17.13L249.61 17.13L249.61 16.88L249.48 16.88C249.34 16.96 249.22 17.01 249.14 17.01ZM251.85 17.01L251.85 17.13C251.88 17.3 251.96 17.38 252.1 17.38L252.19 17.38L252.19 17.01L251.85 17.01ZM250.92 17.13C250.92 17.29 250.88 17.45 250.79 17.59L251.13 17.59L251.13 17.38L251.38 17.46L251.72 17.46L251.72 17.38C251.72 17.21 251.65 17.13 251.51 17.13L250.92 17.13L250.92 17.13ZM250.33 17.38C250.33 17.52 250.24 17.59 250.07 17.59C250.1 17.76 250.18 17.84 250.33 17.84L250.54 17.84L250.54 17.71L250.41 17.46C250.49 17.46 250.54 17.44 250.54 17.38L250.33 17.38ZM246.3 18.42L246.39 18.63C246.24 18.72 246.13 18.76 246.05 18.76C246.08 18.92 246.16 19.01 246.3 19.01C247.15 18.67 247.7 18.4 247.95 18.17C248.15 18.17 248.38 18.26 248.63 18.42L248.76 18.17C248.67 18.17 248.63 18.13 248.63 18.05L249.22 18.17L249.94 17.96C249.94 17.8 249.87 17.71 249.73 17.71L249.61 17.71L249.22 17.96C249.22 17.8 249.2 17.71 249.14 17.71C248.97 17.8 248.84 17.84 248.76 17.84L248.76 17.71C247.52 18.19 246.7 18.42 246.3 18.42ZM244.73 19.01C244.76 19.15 244.85 19.22 244.99 19.22C245.55 19.22 245.86 19.1 245.92 18.88L245.33 18.76L245.33 19.01L245.2 19.01L245.2 18.76L244.99 18.76C244.82 18.78 244.73 18.87 244.73 19.01ZM243.8 19.13L243.8 19.22L244.52 19.34C244.52 19.23 244.4 19.12 244.14 19.01C244 19.09 243.89 19.13 243.8 19.13ZM214.91 28.81L215.21 28.81C215.21 29.2 215.27 29.39 215.38 29.39L215.21 30.1L215.21 31.52C215.21 31.63 215.17 31.68 215.08 31.68L215.21 31.98L215.08 32.68L215.51 32.68C215.62 31.77 215.82 30.95 216.1 30.22L216.82 30.22C216.85 30.06 216.95 29.97 217.12 29.97L217.71 30.39L217.84 29.81L218.13 29.81L218.13 30.81C218.3 30.81 218.5 30.34 218.73 29.39L219.15 29.39C219.15 29.78 219.25 29.97 219.45 29.97L219.45 31.1C219.45 31.18 219.39 31.23 219.28 31.23C219.39 31.39 219.45 31.68 219.45 32.1L219.57 32.1L219.57 31.39L219.87 31.39L219.87 31.98C219.67 32.48 219.48 34.32 219.28 37.52C219.08 38.16 218.6 41.4 217.84 47.24C217.75 47.24 217.71 47.39 217.71 47.69L217.84 47.95C217.64 48.47 217 52.29 215.93 59.41C215.82 59.41 215.44 59.79 214.79 60.54C211.88 60.34 210.43 60.05 210.43 59.66L209.41 59.83C207.77 59.61 206.95 59.27 206.95 58.83L206.95 58.12C207.43 58.12 208.55 53.16 210.3 43.23C210.44 41.84 210.64 40.9 210.89 40.4L210.72 40.11C210.92 38.99 211.46 36.85 212.33 33.68C212.33 33.21 212.37 32.98 212.46 32.98L212.33 32.68C212.58 32.02 212.78 31.68 212.92 31.68C212.92 31.77 212.97 31.81 213.05 31.81C213.28 30.67 213.56 29.81 213.9 29.22L214.2 29.39L214.36 29.39C214.36 29.2 214.41 29.1 214.49 29.1L214.91 29.1L214.91 28.81ZM253.59 20.55L253.71 20.55L253.71 20.93L253.59 21.22C253.76 21.25 253.84 21.34 253.84 21.51L253.08 22.84L253.08 23.01L253.21 23.01C253.21 22.73 253.46 22.41 253.97 22.05L253.97 22.18C253.94 22.34 253.52 23.02 252.7 24.22L252.7 24.39C253.46 23.91 253.84 23.54 253.84 23.26L253.97 23.26L253.97 23.43C253.97 23.9 253.63 24.4 252.95 24.93L252.7 24.76L252.53 25.05L252.53 25.18L252.95 25.18L252.82 25.47C252.94 25.47 253.06 25.61 253.21 25.89L253.21 26.01L252.53 27.1L252.53 27.26L252.82 27.26L252.82 27.39C252.82 27.53 252.68 27.67 252.4 27.81C252.4 27.61 252.32 27.51 252.15 27.51L251.89 28.35L252.02 28.35L252.53 27.93L252.7 27.93C252.7 28.07 252.51 28.25 252.15 28.47L252.27 28.76C252.27 28.9 251.93 29.22 251.26 29.72C251.68 29.75 251.89 29.89 251.89 30.14C251.27 31.28 250.71 31.96 250.2 32.18C249.86 32.63 249.61 32.85 249.44 32.85L249.44 33.14L249.69 33.14L249.69 32.85C249.86 32.85 249.94 32.99 249.94 33.27L250.07 33.27L251.64 31.23L251.77 31.23C251.06 32.64 249.68 34.7 247.61 37.4L247.49 37.4L247.49 37.27L248.04 36.31L247.91 36.31L246.34 37.65C246.29 37.92 246.08 38.3 245.71 38.77L245.96 38.9L246.09 38.9L247.23 37.65L247.36 37.94C245.89 40.24 245.03 41.88 244.78 42.86C244.69 42.86 244.14 43.73 243.12 45.48C241.54 47.01 240.12 48.83 238.85 50.95C238.17 52.11 237.48 53.53 236.77 55.2C235.3 58.17 234.48 59.77 234.31 59.99L233.42 60.83C233.31 60.83 233.26 60.79 233.26 60.7L233 60.83C232.55 60.49 231.6 60.18 230.16 59.87C230.16 59.76 229.82 59.58 229.15 59.33L228.89 59.45C227.42 59.09 226.69 58.31 226.69 57.12C226.15 54.7 225.46 50.54 224.61 44.65C224.11 42.79 223.41 39.59 222.54 35.06L222.41 35.06C222.41 33.98 222.89 33.43 223.85 33.43C225.32 33.43 227 34.2 228.89 35.73C229.2 35.73 229.54 36.01 229.91 36.56C229.91 36.64 229.87 36.69 229.78 36.69C230.04 37.41 230.86 40.98 232.24 47.4L232.11 47.4C232.28 47.96 232.37 48.32 232.37 48.49L232.49 48.49L241.18 35.6C241.18 35.55 242.55 33.55 245.29 29.6C245.29 29.43 246.41 27.87 248.67 24.93C248.67 24.57 249.53 23.43 251.26 21.51C251.51 21.51 251.93 21.41 252.53 21.22L252.82 21.34C252.82 21.26 253.08 21 253.59 20.55ZM251.89 25.18L251.89 25.47L252.15 25.47C252.15 25.25 252.23 25.01 252.4 24.76L252.4 24.64C252.29 24.64 252.12 24.82 251.89 25.18ZM251 30.81L250.88 31.1L250.88 31.23L251 31.23C251 31.11 251.05 30.97 251.13 30.81L251 30.81ZM265.91 29.14C269.27 29.14 272.21 30.46 274.72 33.1C275.23 34.3 275.63 35.73 275.91 37.4C275.91 37.48 275.87 37.52 275.78 37.52L275.91 38.35L275.91 39.36C275.91 40.83 274.68 42.66 272.22 44.86C267.54 47.67 264.4 49.07 262.82 49.07C262.62 48.99 262.48 48.94 262.4 48.94C262.4 49.11 262.3 49.2 262.1 49.2C261.99 49.2 261.93 49.15 261.93 49.07L261.21 49.2L260.74 49.2C260.6 49.2 260.46 49.07 260.32 48.82L260.45 48.57C260.05 48.1 259.71 47.86 259.43 47.86C257.48 46.14 256.51 44.78 256.51 43.78L256.81 43.65L259.01 43.65C261.61 43.15 264.78 41.64 268.54 39.11C270.2 37.46 271.04 36.42 271.04 35.98L269 35.6L267.23 35.6C264.6 35.82 261.17 37.4 256.93 40.31C254.76 42.21 253.39 44.44 252.82 47.03C253.76 49.36 257.62 51.68 264.43 53.99C266.49 54.63 269.15 55.31 272.39 56.03L272.52 56.28C272.32 56.31 272.22 56.38 272.22 56.49L272.52 56.62C272.72 56.62 272.82 56.51 272.82 56.28L273.54 56.28L273.54 56.49L273.11 56.49L273.11 56.74L273.41 56.74C274.48 56.74 275.02 56.95 275.02 57.37C275.02 57.59 275.22 57.7 275.61 57.7L275.61 58.08C275.61 58.24 275.51 58.33 275.32 58.33L274.6 58.33C273.83 58.33 272.6 58.16 270.91 57.83L270.91 58.08L271.33 58.08L271.33 58.33L270.91 58.33C270.66 58.16 270.46 58.08 270.32 58.08L270.32 57.83L270.61 57.83L270.61 57.7L270.19 57.7L269.73 57.95L269.6 57.95C268.86 57.95 268.47 57.83 268.41 57.58L269.13 57.58C269.13 57.44 269.03 57.37 268.84 57.37L268.41 57.37C268.41 57.51 268.21 57.58 267.82 57.58L267.82 57.7C268.1 57.7 268.64 57.91 269.43 58.33L269.89 58.08L270.02 58.08L270.02 58.2L269.89 58.45L270.02 58.45C270.22 58.37 270.37 58.33 270.49 58.33L273.54 59.29C273.93 59.29 274.13 59.35 274.13 59.49L273.83 59.49L272.1 59.41L271.93 59.41L271.93 59.49C272.01 59.49 272.31 59.54 272.82 59.62L272.82 59.74C272.82 59.86 272.58 60.02 272.1 60.24C271.84 60.08 271.65 59.99 271.5 59.99L271.21 60.12C270.44 59.79 269.95 59.62 269.73 59.62L269.6 59.62L270.91 60.37C270.51 60.37 270.32 60.56 270.32 60.95L269.43 60.95C268.64 60.95 268 60.79 267.52 60.45C264.19 59.65 260.66 58.37 256.93 56.62C254.42 54.89 252.7 53.38 251.77 52.07C250.61 50.96 249.68 48.28 248.97 44.03L248.84 42.57C249.04 40.7 249.38 39.34 249.86 38.48C250.51 37.28 251.6 36.13 253.12 35.02C253.12 34.6 254 33.96 255.75 33.1C257.16 32.3 258.19 31.57 258.84 30.93C261.35 29.74 263.71 29.14 265.91 29.14ZM274.72 40.52C274.72 40.66 274.38 41.19 273.71 42.11L273.83 42.11C274.31 42.11 274.71 41.58 275.02 40.52L274.72 40.52ZM273.54 42.23C273.31 42.93 271.8 44.12 269 45.82C266.07 47.26 264.5 47.99 264.3 47.99L264.3 48.11L264.73 48.11C269.07 46.8 272.17 44.89 274 42.36L273.71 42.23L273.54 42.23ZM267.23 57.58L267.69 57.58L267.69 57.37L267.52 57.37C267.32 57.37 267.23 57.44 267.23 57.58ZM272.69 58.45L273.11 58.45L273.11 58.66L272.69 58.66L272.69 58.45ZM267.4 59.16L267.4 59.41C267.48 59.41 267.62 59.44 267.82 59.49L267.95 59.29C267.75 59.29 267.56 59.24 267.4 59.16ZM268.71 60.24C268.93 60.24 269.13 60.29 269.3 60.37L269.43 60.12L269.13 59.99L269 59.99C268.81 60.02 268.71 60.11 268.71 60.24Z" fill="#FFFFFF" fill-opacity="1.000000" fill-rule="nonzero"/>
</svg>
